<svg xmlns="http://www.w3.org/2000/svg"><symbol id="mhd-doc-pdf" viewBox="0 0 50 50"><path d="M24.38 34.3H24v6.49h.39a1.88 1.88 0 0 0 1.61-.85 4.17 4.17 0 0 0 .59-2.4 4.2 4.2 0 0 0-.59-2.42 1.9 1.9 0 0 0-1.62-.82zm-7.38 0h-.27v3.5h.35a1.41 1.41 0 0 0 1.19-.51 2.13 2.13 0 0 0 .4-1.33 1.68 1.68 0 0 0-.43-1.24A1.63 1.63 0 0 0 17 34.3z"/><path d="M30 0H4v50h40V14zm-9.8 37.23a2.3 2.3 0 0 1-1.08.91 5.33 5.33 0 0 1-2.07.33h-.34v2.26l1.07.11v.64h-4v-.64l.89-.1v-6.4l-.89-.09v-.65H17a5.86 5.86 0 0 1 2 .29 2.33 2.33 0 0 1 1.13.83 2.29 2.29 0 0 1 .4 1.28 2.46 2.46 0 0 1-.33 1.23zm7.94 2.43A3.51 3.51 0 0 1 26.65 41a5.26 5.26 0 0 1-2.29.46H21v-.64l.9-.1v-6.38l-.9-.09v-.65h3.57a4.78 4.78 0 0 1 2.19.47 3.32 3.32 0 0 1 1.4 1.35 4.24 4.24 0 0 1 .5 2.1 4.12 4.12 0 0 1-.52 2.14zm6.35-4l-.24-1.39h-2.09v2.79h1.34l.14-.94h.7v2.7h-.7l-.15-1.06h-1.36v2.97l1.07.11v.64h-4v-.64l.89-.1v-6.4l-.89-.09v-.65h6.2l.08 2.06zM30 14V2l12 12z"/></symbol><symbol id="mhd-pic-ingreso" viewBox="0 0 300 300"><path d="M268.5 48.5h-240A11.51 11.51 0 0 0 17 60v140a11.51 11.51 0 0 0 11.5 11.5H116V239a7.5 7.5 0 0 1-7.5 7.5h-30a2.5 2.5 0 0 0 0 5h30A12.52 12.52 0 0 0 121 239v-21.61a51.06 51.06 0 0 1 19.08-5.89h16.84a51.06 51.06 0 0 1 19.08 5.89V239a12.52 12.52 0 0 0 12.5 12.5h30a2.5 2.5 0 0 0 0-5h-30a7.5 7.5 0 0 1-7.5-7.5v-27.5h87.5A11.51 11.51 0 0 0 280 200V60a11.51 11.51 0 0 0-11.5-11.5zM267 64v130a3.5 3.5 0 0 1-3.5 3.5h-230A3.5 3.5 0 0 1 30 194V64a3.5 3.5 0 0 1 3.5-3.5h230A3.5 3.5 0 0 1 267 64z"/><path d="M234.5 199h-176a3.5 3.5 0 0 1-3.5-3.5v-106a3.5 3.5 0 0 1 3.5-3.5h176a3.5 3.5 0 0 1 3.5 3.5v106a3.5 3.5 0 0 1-3.5 3.5zM58.5 89a.5.5 0 0 0-.5.5v106a.5.5 0 0 0 .5.5h176a.5.5 0 0 0 .5-.5v-106a.5.5 0 0 0-.5-.5z"/><path d="M101.9 134H72a1.5 1.5 0 0 1 0-3h29.9a1.5 1.5 0 0 1 0 3zm.1 20H72.1a1.5 1.5 0 0 1 0-3H102a1.5 1.5 0 0 1 0 3zm0 20H72.1a1.5 1.5 0 0 1 0-3H102a1.5 1.5 0 0 1 0 3zm59.9-40H132a1.5 1.5 0 0 1 0-3h29.9a1.5 1.5 0 0 1 0 3zm.1 20h-29.9a1.5 1.5 0 0 1 0-3H162a1.5 1.5 0 0 1 0 3zm0 20h-29.9a1.5 1.5 0 0 1 0-3H162a1.5 1.5 0 0 1 0 3zm59.9-40H192a1.5 1.5 0 0 1 0-3h29.9a1.5 1.5 0 0 1 0 3zm.1 20h-29.9a1.5 1.5 0 0 1 0-3H222a1.5 1.5 0 0 1 0 3zm0 20h-29.9a1.5 1.5 0 0 1 0-3H222a1.5 1.5 0 0 1 0 3zm-104.5 25a1.5 1.5 0 0 1-1.5-1.5v-110a1.5 1.5 0 0 1 3 0v110a1.5 1.5 0 0 1-1.5 1.5zm59 0a1.5 1.5 0 0 1-1.5-1.5v-110a1.5 1.5 0 0 1 3 0v110a1.5 1.5 0 0 1-1.5 1.5z"/><path d="M178 88h-60.5v-.5h-61v22H117v.5h120V88zm-76.1 13H72a2.5 2.5 0 0 1 0-5h29.9a2.5 2.5 0 0 1 0 5zm60 0H132a2.5 2.5 0 0 1 0-5h29.9a2.5 2.5 0 0 1 0 5zm60 0H192a2.5 2.5 0 0 1 0-5h29.9a2.5 2.5 0 0 1 0 5z"/></symbol><symbol id="mhd-doc-flip" viewBox="0 0 50 50"><path d="M25 43.84a68.68 68.68 0 0 0-21.7-3.52H.35v3.52H3.3A68.68 68.68 0 0 1 25 47.36a68.68 68.68 0 0 1 21.7-3.52h2.95v-3.52H46.7A68.68 68.68 0 0 0 25 43.84z"/><path d="M47.05 2.64a68.7 68.7 0 0 0-20.82 3.24v35.21a68.7 68.7 0 0 1 20.82-3.24h3V2.64zM3 2.64H0v35.21h3a68.7 68.7 0 0 1 20.82 3.24V5.88A68.7 68.7 0 0 0 3 2.64z"/></symbol><symbol id="mhd-pic-qa" viewBox="0 0 300 300"><defs><style>.cls-1{isolation:isolate}.cls-2{mix-blend-mode:multiply}</style></defs><g class="cls-1"><g id="pic-qa" class="cls-2"><path d="M220.5 98h-8.38a196.94 196.94 0 0 0-61.62 9.87A196.94 196.94 0 0 0 88.88 98H80.5a2.5 2.5 0 0 0-2.5 2.5v110a2.5 2.5 0 0 0 2.5 2.5h8.38a192 192 0 0 1 60.83 9.87 2.47 2.47 0 0 0 1.58 0 192 192 0 0 1 60.83-9.87h8.38a2.5 2.5 0 0 0 2.5-2.5v-110a2.5 2.5 0 0 0-2.5-2.5zm-2.5 5v95h-5.88a196.83 196.83 0 0 0-60.12 9.39v-94.75a192.19 192.19 0 0 1 60.12-9.64zm-135 0h5.88a192.19 192.19 0 0 1 60.12 9.64v94.75A196.83 196.83 0 0 0 88.88 198H83zm129.12 105a196.94 196.94 0 0 0-61.62 9.87A196.94 196.94 0 0 0 88.88 208H83v-5h5.88a192 192 0 0 1 60.83 9.87 2.47 2.47 0 0 0 1.58 0 192 192 0 0 1 60.83-9.87H218v5z"/><path d="M160.5 142a1.41 1.41 0 0 0 .4-.05 193.11 193.11 0 0 1 51.22-6.95 1.5 1.5 0 0 0 0-3 196.25 196.25 0 0 0-52 7 1.5 1.5 0 0 0 .4 2.94zm-71.62-7a193.11 193.11 0 0 1 51.22 6.91 1.41 1.41 0 0 0 .4.05 1.5 1.5 0 0 0 .4-2.94 196.25 196.25 0 0 0-52-7 1.5 1.5 0 0 0 0 3zm71.62 27a1.41 1.41 0 0 0 .4-.05 193.11 193.11 0 0 1 51.22-6.95 1.5 1.5 0 0 0 0-3 196.25 196.25 0 0 0-52 7 1.5 1.5 0 0 0 .4 2.94zm-71.62-7a193.11 193.11 0 0 1 51.22 6.91 1.41 1.41 0 0 0 .4.05 1.5 1.5 0 0 0 .4-2.94 196.25 196.25 0 0 0-52-7 1.5 1.5 0 0 0 0 3zm123.24 17a196.25 196.25 0 0 0-52 7 1.5 1.5 0 0 0 .4 2.94 1.41 1.41 0 0 0 .4-.05 193.11 193.11 0 0 1 51.2-6.89 1.5 1.5 0 0 0 0-3zm-72.02 9.91a1.41 1.41 0 0 0 .4.05 1.5 1.5 0 0 0 .4-2.94 196.25 196.25 0 0 0-52-7 1.5 1.5 0 0 0 0 3 193.11 193.11 0 0 1 51.2 6.89z"/><path d="M50.5 239a8.51 8.51 0 0 1-8.5-8.5v-140a8.51 8.51 0 0 1 8.5-8.5h200a8.51 8.51 0 0 1 8.5 8.5v94.1a47.14 47.14 0 0 1 11.5 5.83V90.5a20 20 0 0 0-20-20h-200a20 20 0 0 0-20 20v140a20 20 0 0 0 20 20h150.39A47.07 47.07 0 0 1 197 239z"/><path d="M259 184.6a47.5 47.5 0 0 0-63 44.9 48 48 0 0 0 1 9.5 47.07 47.07 0 0 0 3.94 11.5h49.56a20 20 0 0 0 20-20v-40.07a47.14 47.14 0 0 0-11.5-5.83zm-6.3 25.27l-14.46 14.46-1.08 1.09-5.06 5.06a1.53 1.53 0 0 1-2.17 0L218 218.55a1.53 1.53 0 0 1 0-2.17l5.06-5.06a1.53 1.53 0 0 1 2.17 0l5.77 5.78 14.46-14.46a1.53 1.53 0 0 1 2.17 0l5.06 5.06a1.53 1.53 0 0 1 .01 2.17z"/></g></g></symbol><symbol id="mhd-doc-word" viewBox="0 0 50 50"><path d="M25.86 34.52a1.21 1.21 0 0 0-1-.45 1.19 1.19 0 0 0-1 .45 2.9 2.9 0 0 0-.54 1.24 8 8 0 0 0-.17 1.78 8.09 8.09 0 0 0 .17 1.78 2.84 2.84 0 0 0 .54 1.24 1.19 1.19 0 0 0 1 .46 1.21 1.21 0 0 0 1-.46 3 3 0 0 0 .53-1.24 8.75 8.75 0 0 0 .17-1.78 8.61 8.61 0 0 0-.17-1.78 3 3 0 0 0-.53-1.24zm-10.09-.22h-.41v6.49h.4a1.85 1.85 0 0 0 1.62-.85 4.09 4.09 0 0 0 .6-2.4 4.12 4.12 0 0 0-.6-2.42 1.87 1.87 0 0 0-1.61-.82z"/><path d="M31 0H5v50h40V14zM19.53 39.66A3.59 3.59 0 0 1 18 41a5.21 5.21 0 0 1-2.28.46H12.4v-.64l.9-.1v-6.38l-.9-.09v-.65H16a4.8 4.8 0 0 1 2.2.47 3.44 3.44 0 0 1 1.4 1.35 4.23 4.23 0 0 1 .49 2.1 4.11 4.11 0 0 1-.56 2.14zm8.84-.3a3.72 3.72 0 0 1-.85 1.3 3.52 3.52 0 0 1-1.22.79 4 4 0 0 1-1.42.26 3.86 3.86 0 0 1-1.43-.26 3.44 3.44 0 0 1-1.22-.78 3.76 3.76 0 0 1-.85-1.3 5.53 5.53 0 0 1 0-3.65 3.74 3.74 0 0 1 .86-1.3 3.44 3.44 0 0 1 1.22-.78 3.85 3.85 0 0 1 1.42-.27 4 4 0 0 1 1.42.26 3.5 3.5 0 0 1 2.07 2.08 5.53 5.53 0 0 1 0 3.65zm8 1.74a5 5 0 0 1-1.1.44 5.68 5.68 0 0 1-1.41.17 4.76 4.76 0 0 1-2.11-.46 3.53 3.53 0 0 1-1.5-1.39 4.43 4.43 0 0 1-.56-2.32 4.7 4.7 0 0 1 .31-1.85 3.66 3.66 0 0 1 .94-1.3 4.07 4.07 0 0 1 1.36-.77 5.37 5.37 0 0 1 1.7-.25 4.56 4.56 0 0 1 2.35.6l.05 1.86h-.91l-.35-1.57a1.85 1.85 0 0 0-.87-.2 2.12 2.12 0 0 0-1.18.36 2.46 2.46 0 0 0-.88 1.13 5.15 5.15 0 0 0-.33 2 5 5 0 0 0 .32 2 2.49 2.49 0 0 0 .8 1.11 2 2 0 0 0 1.17.36 2.2 2.2 0 0 0 .5-.06 3 3 0 0 0 .5-.17l.34-1.54h.91zM31 14V2l12 12z"/></symbol><symbol id="mhd-orn-c" viewBox="0 0 240 18"><path d="M233.47 4.09h-96.96c-.42-1.35-2.4-2.27-2.65-2.39a.45.45 0 0 0-.2 0h-27.32a.45.45 0 0 0-.2 0c-.25.12-2.23 1-2.65 2.39H6.73L6.64 4h-.06A4 4 0 0 0 5 7.25a4 4 0 0 0 1.57 3.21.5.5 0 0 0 .31.1H11a5.16 5.16 0 0 1 5.14 5.14.5.5 0 0 0 .5.5h61.79a.5.5 0 0 0 .43-.24 13 13 0 0 1 2.3-2.3 12.19 12.19 0 0 1 2.13 2.1.5.5 0 0 0 .5.45h26.53a.5.5 0 0 0 .5-.45 7.54 7.54 0 0 1 6.78-6.84h4.73a7.56 7.56 0 0 1 6.83 6.85.5.5 0 0 0 .5.45h26.54a.47.47 0 0 0 .49-.43 11.94 11.94 0 0 1 2.14-2.12 13 13 0 0 1 2.3 2.3.5.5 0 0 0 .43.24h61.82a.5.5 0 0 0 .5-.5 5.16 5.16 0 0 1 5.12-5.15h4.08a.5.5 0 0 0 .31-.1A4 4 0 0 0 235 7.25a4 4 0 0 0-1.53-3.16zM78.16 15.2H17.08a6.12 6.12 0 0 0-2.75-4.63h63.8A12.36 12.36 0 0 0 80.41 13a15.8 15.8 0 0 0-2.25 2.2zm77.7 0h-25.75a8.55 8.55 0 0 0-7.72-7.29h-4.83a8.54 8.54 0 0 0-7.67 7.29H84.14a12.14 12.14 0 0 0-2.21-2.2 10.33 10.33 0 0 0 2.18-2.41h23a.51.51 0 0 0 .35-.15.49.49 0 0 0 .15-.36A4.35 4.35 0 0 1 112 5.7h16a4.36 4.36 0 0 1 4.35 4.37.5.5 0 0 0 .5.5h23a10.33 10.33 0 0 0 2.22 2.43 12.14 12.14 0 0 0-2.21 2.2zm67.06 0h-61.08a15.8 15.8 0 0 0-2.25-2.2 12.36 12.36 0 0 0 2.28-2.41h63.8a6.12 6.12 0 0 0-2.75 4.61zm10-5.64h-71.35a.51.51 0 0 0-.46.3 10.72 10.72 0 0 1-2.28 2.45 8.75 8.75 0 0 1-2.17-2.45.51.51 0 0 0-.46-.3h-22.85A5.36 5.36 0 0 0 128 4.7h-16a5.36 5.36 0 0 0-5.32 4.87H83.8a.51.51 0 0 0-.46.3 8.75 8.75 0 0 1-2.17 2.45 10.72 10.72 0 0 1-2.28-2.45.51.51 0 0 0-.46-.3H7.07a3 3 0 0 1 0-4.63h96.82a.5.5 0 0 0 .5-.5c0-.73 1.32-1.58 2-1.93h27.1c.72.35 2 1.2 2 1.93a.5.5 0 0 0 .5.5h96.82a3 3 0 0 1 0 4.63z"/><path d="M120.24 11.14a.5.5 0 0 0-.35-.14.52.52 0 0 0-.36.14l-2.75 2.75a.5.5 0 0 0 0 .71l2.75 2.75a.49.49 0 0 0 .36.15.47.47 0 0 0 .35-.15L123 14.6a.5.5 0 0 0 0-.71zm-.35 5.15l-2-2 2-2.05 2 2.05z"/></symbol><symbol id="mhd-orn-bl" viewBox="0 0 100 100"><path d="M98.48 95.59a3.52 3.52 0 0 0-1.38-2.81.49.49 0 0 0-.31-.11H93.3a4.33 4.33 0 0 1-4.3-4.33.5.5 0 0 0-.5-.5H14.21a2.59 2.59 0 0 0-2-2V11.51a.5.5 0 0 0-.5-.5 4.34 4.34 0 0 1-4.36-4.33v-3.5a.48.48 0 0 0-.11-.3 3.54 3.54 0 0 0-5.56-.06v.05a.41.41 0 0 0-.13.13v61.34a.5.5 0 0 0 .24.43 11 11 0 0 1 2 2A11.22 11.22 0 0 1 2 68.55a.5.5 0 0 0-.45.5v22.72a.5.5 0 0 0 .47.49H2A6.37 6.37 0 0 1 7.77 98a.51.51 0 0 0 .5.46H31a.51.51 0 0 0 .42-.22A12.43 12.43 0 0 1 34 96.08a9.19 9.19 0 0 1 2.45 2.17.52.52 0 0 0 .43.25h60a.41.41 0 0 0 .24-.08v-.05a3.54 3.54 0 0 0 1.36-2.78zM11.18 12v74.27a.5.5 0 0 0 .5.5 1.58 1.58 0 0 1 1.58 1.58.5.5 0 0 0 .5.5H88a5.3 5.3 0 0 0 2.19 3.82H36.72a.52.52 0 0 0-.41.21 13.41 13.41 0 0 1-2.44 2 12.92 12.92 0 0 1-2.52-2.08.51.51 0 0 0-.37-.16H11.49a4.65 4.65 0 0 0-4.14-4.12V69.05a.5.5 0 0 0-.35-.46 7.32 7.32 0 0 1-2-1.78 8.81 8.81 0 0 1 2-1.8.51.51 0 0 0 .3-.46V9.76A5.28 5.28 0 0 0 11.18 12zM2.52 64.08V3.38a2.54 2.54 0 0 1 3.83 0v60.9A10.5 10.5 0 0 0 4.41 66a12.34 12.34 0 0 0-1.89-1.92zM30.73 97.5h-22a7.36 7.36 0 0 0-6.19-6.15v-22a10.63 10.63 0 0 0 1.87-1.83 8.44 8.44 0 0 0 2 1.8V89a.49.49 0 0 0 .15.36.5.5 0 0 0 .35.14 3.67 3.67 0 0 1 3.66 3.65.5.5 0 0 0 .5.5h19.7a14.33 14.33 0 0 0 2.23 1.9 13.29 13.29 0 0 0-2.27 1.95zm65.87 0H37.1a11.17 11.17 0 0 0-2.27-2A14.27 14.27 0 0 0 37 93.67h59.62a2.54 2.54 0 0 1 0 3.83z"/><path d="M17.24 85.67a.49.49 0 0 1-.35-.15l-2.36-2.36a.5.5 0 0 1 0-.7l2.36-2.36a.48.48 0 0 1 .7 0L20 82.46a.48.48 0 0 1 0 .7l-2.36 2.36a.47.47 0 0 1-.4.15zm-1.65-2.86l1.65 1.65 1.65-1.65-1.65-1.65z"/></symbol><symbol id="mhd-orn-tr" viewBox="0 0 100 100"><path d="M98 31.45a.5.5 0 0 0 .45-.5V8.23a.5.5 0 0 0-.45-.49A6.37 6.37 0 0 1 92.23 2a.51.51 0 0 0-.5-.46H69a.51.51 0 0 0-.42.22A12.43 12.43 0 0 1 66 3.92a9.19 9.19 0 0 1-2.45-2.17.52.52 0 0 0-.43-.25h-60a.27.27 0 0 0-.12 0v.07h-.07a3.53 3.53 0 0 0 0 5.56.49.49 0 0 0 .31.11H6.7a4.33 4.33 0 0 1 4.3 4.42.5.5 0 0 0 .5.5h74.29a2.59 2.59 0 0 0 2 2v74.33a.5.5 0 0 0 .5.5 4.33 4.33 0 0 1 4.33 4.33v3.5a.48.48 0 0 0 .11.3 3.54 3.54 0 0 0 5.56.06.13.13 0 0 0 0-.05.31.31 0 0 0 0-.1V35.66a.5.5 0 0 0-.24-.43 11 11 0 0 1-2-2A11.22 11.22 0 0 1 98 31.45zM2.52 4.41A2.55 2.55 0 0 1 3.4 2.5h59.5a11.17 11.17 0 0 0 2.27 2.05A14.27 14.27 0 0 0 63 6.33H3.38a2.56 2.56 0 0 1-.86-1.92zM88.82 88V13.73a.5.5 0 0 0-.5-.5 1.58 1.58 0 0 1-1.58-1.58.5.5 0 0 0-.5-.5H12a5.3 5.3 0 0 0-2.21-3.82h53.49a.52.52 0 0 0 .41-.21 13.41 13.41 0 0 1 2.44-2 12.59 12.59 0 0 1 2.52 2.08.51.51 0 0 0 .37.16h19.49a4.65 4.65 0 0 0 4.14 4.12V31a.49.49 0 0 0 .31.46 7.22 7.22 0 0 1 2 1.79A9 9 0 0 1 93 35a.51.51 0 0 0-.3.46v54.78A5.28 5.28 0 0 0 88.82 88zm8.66-52.12v60.7a2.54 2.54 0 0 1-3.83 0V35.74A10.5 10.5 0 0 0 95.59 34a12.34 12.34 0 0 0 1.89 1.92zm-1.87-3.47a8.44 8.44 0 0 0-2-1.8V11a.49.49 0 0 0-.15-.36.5.5 0 0 0-.35-.14 3.63 3.63 0 0 1-2.58-1.07 3.68 3.68 0 0 1-1.08-2.58.5.5 0 0 0-.5-.5H69.23A14.33 14.33 0 0 0 67 4.45a13.29 13.29 0 0 0 2.27-1.95h22a7.36 7.36 0 0 0 6.19 6.15v22a10.63 10.63 0 0 0-1.85 1.8z"/><path d="M83.11 14.48a.5.5 0 0 0-.7 0l-2.36 2.36a.5.5 0 0 0 0 .71l2.36 2.35a.47.47 0 0 0 .35.15.49.49 0 0 0 .35-.15l2.36-2.35a.51.51 0 0 0 0-.71zm-.35 4.36l-1.65-1.65 1.65-1.65 1.65 1.65z"/></symbol><symbol id="mhd-orn-tl" viewBox="0 0 100 100"><path d="M97.18 1.68h-.05a.31.31 0 0 0-.1-.05H35.66a.5.5 0 0 0-.43.24 10.75 10.75 0 0 1-2 2A10.78 10.78 0 0 1 31.45 2a.5.5 0 0 0-.5-.45H8.23a.5.5 0 0 0-.49.45A6.37 6.37 0 0 1 2 7.77a.51.51 0 0 0-.46.5V31a.51.51 0 0 0 .22.42A12.43 12.43 0 0 1 3.92 34a9.37 9.37 0 0 1-2.17 2.45.52.52 0 0 0-.25.43v60a.28.28 0 0 0 0 .13v.14a3.54 3.54 0 0 0 5.57-.05.49.49 0 0 0 .11-.31V93.3a4.33 4.33 0 0 1 4.48-4.3.5.5 0 0 0 .5-.5V14.21a2.59 2.59 0 0 0 2-2h74.33a.5.5 0 0 0 .5-.5 4.33 4.33 0 0 1 4.33-4.33h3.5a.48.48 0 0 0 .3-.11 3.54 3.54 0 0 0 .06-5.56zM2.5 30.73v-22a7.36 7.36 0 0 0 6.15-6.21h22a10.63 10.63 0 0 0 1.83 1.87 8.44 8.44 0 0 0-1.8 2H11a.49.49 0 0 0-.36.15.5.5 0 0 0-.14.35 3.67 3.67 0 0 1-3.65 3.67.5.5 0 0 0-.5.5v19.71A14.33 14.33 0 0 0 4.45 33a12.91 12.91 0 0 0-1.95-2.27zm3.83 65.89a2.54 2.54 0 0 1-3.83 0V37.1a11.17 11.17 0 0 0 2.05-2.27A14.27 14.27 0 0 0 6.33 37v59.61zM88 11.18H13.73a.5.5 0 0 0-.5.5 1.58 1.58 0 0 1-1.58 1.58.5.5 0 0 0-.5.5V88a5.3 5.3 0 0 0-3.82 2.19V36.72a.52.52 0 0 0-.21-.41 13.41 13.41 0 0 1-2-2.44 12.92 12.92 0 0 1 2.08-2.52.51.51 0 0 0 .13-.35V11.49a4.67 4.67 0 0 0 4.12-4.14H31a.5.5 0 0 0 .41-.35 7.32 7.32 0 0 1 1.78-2 8.81 8.81 0 0 1 1.8 2 .51.51 0 0 0 .46.3h54.79A5.28 5.28 0 0 0 88 11.18zm8.6-4.83H35.74A10.5 10.5 0 0 0 34 4.41a12.79 12.79 0 0 0 2-1.89h60.7a2.54 2.54 0 0 1 0 3.83z"/><path d="M17.54 14.53a.5.5 0 0 0-.7 0l-2.36 2.36a.51.51 0 0 0 0 .71l2.36 2.4a.49.49 0 0 0 .35.15.47.47 0 0 0 .35-.15l2.36-2.4a.5.5 0 0 0 0-.71zm-.35 4.36l-1.65-1.65 1.65-1.65 1.65 1.65z"/></symbol><symbol id="mhd-pic-pub" viewBox="0 0 300 300"><path d="M160 156.46a1.41 1.41 0 0 0 .4-.05 193.11 193.11 0 0 1 51.22-6.91 1.5 1.5 0 0 0 0-3 196.25 196.25 0 0 0-52 7 1.5 1.5 0 0 0 .4 2.94zm-71.62-6.96a193.11 193.11 0 0 1 51.22 6.91 1.41 1.41 0 0 0 .4.05 1.5 1.5 0 0 0 .4-2.94 196.25 196.25 0 0 0-52-7 1.5 1.5 0 0 0 0 3zM160 176.46a1.41 1.41 0 0 0 .4-.05 193.11 193.11 0 0 1 51.22-6.91 1.5 1.5 0 0 0 0-3 196.25 196.25 0 0 0-52 7 1.5 1.5 0 0 0 .4 2.94zm-71.62-6.96a193.11 193.11 0 0 1 51.22 6.91 1.41 1.41 0 0 0 .4.05 1.5 1.5 0 0 0 .4-2.94 196.25 196.25 0 0 0-52-7 1.5 1.5 0 0 0 0 3zM213.12 188a1.5 1.5 0 0 0-1.5-1.5 196.25 196.25 0 0 0-52 7 1.5 1.5 0 0 0 .4 2.94 1.41 1.41 0 0 0 .4-.05 193.11 193.11 0 0 1 51.22-6.91 1.5 1.5 0 0 0 1.48-1.48zm-73.52 8.41a1.41 1.41 0 0 0 .4.05 1.5 1.5 0 0 0 .4-2.94 196.25 196.25 0 0 0-52-7 1.5 1.5 0 0 0 0 3 193.11 193.11 0 0 1 51.2 6.89zM70 123.5H50a1.5 1.5 0 0 0 0 3h20a1.5 1.5 0 0 0 0-3zm0 20H50a1.5 1.5 0 0 0 0 3h20a1.5 1.5 0 0 0 0-3zm0 20H50a1.5 1.5 0 0 0 0 3h20a1.5 1.5 0 0 0 0-3z"/><path d="M250 63.5h-80A11.51 11.51 0 0 0 158.5 75v44.79c-2.85.8-5.68 1.65-8.5 2.58a197.55 197.55 0 0 0-27.5-6.9V75a2.5 2.5 0 0 0-2.5-2.5H40a2.5 2.5 0 0 0-2.5 2.5v110a2.5 2.5 0 0 0 2.5 2.5h37.5V225a2.5 2.5 0 0 0 2.5 2.5h8.38a192 192 0 0 1 60.83 9.87 2.47 2.47 0 0 0 1.58 0 192 192 0 0 1 60.83-9.87H220a2.5 2.5 0 0 0 2.5-2.5v-38.5H250a11.51 11.51 0 0 0 11.5-11.5V75A11.51 11.51 0 0 0 250 63.5zm-167.5 54h5.88a192.14 192.14 0 0 1 60.12 9.64v94.75a196.83 196.83 0 0 0-60.12-9.39H82.5zm69 9.64a192.14 192.14 0 0 1 60.12-9.64h5.88v95h-5.88a196.83 196.83 0 0 0-60.12 9.39zM220 112.5h-8.38a196.8 196.8 0 0 0-40.12 4.13V76.5h77v97h-26V115a2.5 2.5 0 0 0-2.5-2.5zm-177.5 70v-105h75v37.17a196.57 196.57 0 0 0-29.12-2.17H80a2.5 2.5 0 0 0-2.5 2.5v67.5zm169.12 40a196.94 196.94 0 0 0-61.62 9.87 196.94 196.94 0 0 0-61.62-9.87H82.5v-5h5.88a192 192 0 0 1 60.83 9.87 2.47 2.47 0 0 0 1.58 0 192 192 0 0 1 60.83-9.87h5.88v5z"/></symbol><symbol id="mhd-orn-br" viewBox="0 0 100 100"><path d="M98.25 63.59a.52.52 0 0 0 .25-.43V3.21a.28.28 0 0 0 0-.13v-.14h-.05a3.54 3.54 0 0 0-5.57 0 .49.49 0 0 0-.11.31V6.7a4.33 4.33 0 0 1-4.43 4.3.5.5 0 0 0-.5.5v74.29a2.59 2.59 0 0 0-2 2H11.51a.5.5 0 0 0-.5.5 4.33 4.33 0 0 1-4.33 4.33h-3.5a.48.48 0 0 0-.3.11 3.54 3.54 0 0 0-.06 5.56.45.45 0 0 0 .27.1h61.25a.5.5 0 0 0 .43-.24 11 11 0 0 1 2-2A11.22 11.22 0 0 1 68.55 98a.5.5 0 0 0 .5.45h22.72a.5.5 0 0 0 .49-.47A6.37 6.37 0 0 1 98 92.23a.51.51 0 0 0 .46-.5V69a.51.51 0 0 0-.22-.42A12.43 12.43 0 0 1 96.08 66a9.37 9.37 0 0 1 2.17-2.41zM12 88.82h74.27a.5.5 0 0 0 .5-.5 1.58 1.58 0 0 1 1.58-1.58.5.5 0 0 0 .5-.5V12a5.3 5.3 0 0 0 3.82-2.19v53.47a.52.52 0 0 0 .21.41 13.41 13.41 0 0 1 2 2.44 12.92 12.92 0 0 1-2.08 2.52.51.51 0 0 0-.16.37v19.49a4.65 4.65 0 0 0-4.12 4.14H69.05a.5.5 0 0 0-.46.31 7.32 7.32 0 0 1-1.78 2A8.81 8.81 0 0 1 65 93a.51.51 0 0 0-.46-.3H9.76A5.28 5.28 0 0 0 12 88.82zm52.12 8.66H3.38a2.54 2.54 0 0 1 0-3.83h60.9A10.5 10.5 0 0 0 66 95.59a12.34 12.34 0 0 0-1.92 1.89zM97.5 69.27v22a7.36 7.36 0 0 0-6.15 6.19h-22a10.63 10.63 0 0 0-1.83-1.87 8.44 8.44 0 0 0 1.8-2H89a.49.49 0 0 0 .36-.15.5.5 0 0 0 .14-.35 3.67 3.67 0 0 1 3.65-3.67.5.5 0 0 0 .5-.5V69.23a14.33 14.33 0 0 0 1.9-2.23 13.29 13.29 0 0 0 1.95 2.27zm-2-4.1A14.27 14.27 0 0 0 93.67 63V3.38a2.54 2.54 0 0 1 3.83 0V62.9a11.17 11.17 0 0 0-2.05 2.27z"/><path d="M82.46 85.47a.47.47 0 0 0 .35.15.49.49 0 0 0 .35-.15l2.36-2.36a.5.5 0 0 0 0-.7l-2.36-2.36a.48.48 0 0 0-.7 0l-2.36 2.36a.48.48 0 0 0 0 .7zm.35-4.36l1.65 1.65-1.65 1.65-1.65-1.65z"/></symbol><symbol id="mhd-pic-dno" viewBox="0 0 300 300"><path d="M149.79 98.23a2.88 2.88 0 0 0-.22-.27l-.23-.17h-.1a.92.92 0 0 0-.23-.09h-.1a1.25 1.25 0 0 0-.7 0h-.1a.92.92 0 0 0-.23.09h-.1l-.23.17a2.88 2.88 0 0 0-.22.27l-26.86 44.57a11.57 11.57 0 0 0 .29 12.3L137 179.45V184a6.51 6.51 0 0 0 6.5 6.5h10a6.51 6.51 0 0 0 6.5-6.5v-4.55l16.24-24.35a11.57 11.57 0 0 0 .29-12.3zm-1.29 38.27a3.5 3.5 0 1 1-3.5 3.5 3.5 3.5 0 0 1 3.5-3.5zM157 184a3.5 3.5 0 0 1-3.5 3.5h-10a3.5 3.5 0 0 1-3.5-3.5v-3.5h17zm16.74-30.57l-16 24.07H139.3l-16-24.07a8.55 8.55 0 0 1-.22-9.09l24-39.92v29.26a6.5 6.5 0 1 0 3 0v-29.26l24 39.92a8.55 8.55 0 0 1-.34 9.09z"/><path d="M168.46 81.5h24.72a6.5 6.5 0 1 0 0-3H155V75a1.5 1.5 0 0 0-1.5-1.5h-10A1.5 1.5 0 0 0 142 75v3.5h-38.18a6.5 6.5 0 1 0 0 3h24.72A61.51 61.51 0 0 0 86 140a1.5 1.5 0 0 0 3 0 58.78 58.78 0 0 1 53-58.21V85a1.5 1.5 0 0 0 1.5 1.5h10A1.5 1.5 0 0 0 155 85v-3.21A58.78 58.78 0 0 1 208 140a1.5 1.5 0 0 0 3 0 61.51 61.51 0 0 0-42.54-58.5zm31-5A3.5 3.5 0 1 1 196 80a3.5 3.5 0 0 1 3.5-3.5zm-102 7A3.5 3.5 0 1 1 101 80a3.5 3.5 0 0 1-3.5 3.5zm54.5 0h-7v-7h7z"/><path d="M268.5 48.5h-240A11.51 11.51 0 0 0 17 60v140a11.51 11.51 0 0 0 11.5 11.5H116V239a7.5 7.5 0 0 1-7.5 7.5h-30a2.5 2.5 0 0 0 0 5h30A12.52 12.52 0 0 0 121 239v-21.61a51.06 51.06 0 0 1 19.08-5.89h16.84a51.06 51.06 0 0 1 19.08 5.89V239a12.52 12.52 0 0 0 12.5 12.5h30a2.5 2.5 0 0 0 0-5h-30a7.5 7.5 0 0 1-7.5-7.5v-27.5h87.5A11.51 11.51 0 0 0 280 200V60a11.51 11.51 0 0 0-11.5-11.5zM267 64v130a3.5 3.5 0 0 1-3.5 3.5h-230A3.5 3.5 0 0 1 30 194V64a3.5 3.5 0 0 1 3.5-3.5h230A3.5 3.5 0 0 1 267 64z"/></symbol><symbol id="mhd-pic-acc" viewBox="0 0 300 300"><defs><style>.cls-1{isolation:isolate}.cls-2{mix-blend-mode:multiply}</style></defs><g class="cls-1"><g id="pic-acc" class="cls-2"><circle cx="82.25" cy="104.88" r="5"/><circle cx="82.25" cy="64.88" r="5"/><circle cx="102.25" cy="64.88" r="5"/><circle cx="82.25" cy="180.88" r="5"/><circle cx="82.25" cy="160.38" r="5"/><circle cx="102.25" cy="160.38" r="5"/><circle cx="102.25" cy="140.88" r="5"/><circle cx="182.25" cy="64.88" r="5"/><circle cx="202.25" cy="84.88" r="5"/><circle cx="202.25" cy="64.88" r="5"/><circle cx="132.25" cy="84.88" r="5"/><circle cx="132.25" cy="64.88" r="5"/><path d="M143.25 262.38h-75a7.51 7.51 0 0 1-7.5-7.5v-210a7.5 7.5 0 0 1 7.5-7.5h150a7.5 7.5 0 0 1 7.5 7.5v45a2.5 2.5 0 0 1-5 0v-45a2.5 2.5 0 0 0-2.5-2.5h-150a2.5 2.5 0 0 0-2.5 2.5v210a2.51 2.51 0 0 0 2.5 2.5h75a2.5 2.5 0 0 1 0 5z"/><path d="M224.2 218.88v-24.7l-2-82.44a10 10 0 1 0-19.87-2.23l-.27 52.23a1 1 0 0 1-2-.12L192.61 89a10 10 0 0 0-20 0l4.24 69.22a1 1 0 0 1-2 .15L163.06 83a10 10 0 1 0-19.81 2.73l11.1 83.6a1 1 0 0 1-1.9.54l-16.57-68.54a10 10 0 0 0-18.52 7.56l22 89.33c-.54 7.8-5.11 2.67-5.11 2.67s-2.68-7.78-9-24c-4.38-11.25-22-5.52-22.76.39-.41 3 4.46 10.71 7.76 20 1.39 3.9 3.35 12.12 5.09 20a34.26 34.26 0 0 0 17.88 23.22c14.15 7.16 23 19.43 23 19.43l1.37 2.74H218a8 8 0 0 0 8-8V250c-3.7-14.46-1.8-31.12-1.8-31.12z"/></g></g></symbol><symbol id="mhd-pic-avf" viewBox="0 0 300 300"><path d="M124.12 218.43a32.5 32.5 0 1 1 32.5-32.5 32.54 32.54 0 0 1-32.5 32.5zm0-60a27.5 27.5 0 1 0 27.5 27.5 27.53 27.53 0 0 0-27.5-27.5z"/><path d="M193.93 126h-22.34l-10.39-15.18a20.52 20.52 0 0 0-16.94-9H104.5a20.55 20.55 0 0 0-16.94 9L77.17 126H54.84a20.3 20.3 0 0 0-20.46 20.14v80.55a20.3 20.3 0 0 0 20.46 20.14h139.09a20.29 20.29 0 0 0 20.45-20.14v-80.55A20.3 20.3 0 0 0 193.93 126zm-79.56-9.67h20v9h-20zm9.75 114.6a45 45 0 1 1 45-45 45 45 0 0 1-45 45zM232.86 85.74l-25.7-14.83v29.67l25.7-14.84z"/><path d="M253.12 118.17h-70a12.52 12.52 0 0 1-12.5-12.5v-40a12.51 12.51 0 0 1 12.5-12.5h70a12.51 12.51 0 0 1 12.5 12.5v40a12.52 12.52 0 0 1-12.5 12.5zm-70-60a7.5 7.5 0 0 0-7.5 7.5v40a7.51 7.51 0 0 0 7.5 7.5h70a7.52 7.52 0 0 0 7.5-7.5v-40a7.51 7.51 0 0 0-7.5-7.5z"/></symbol><symbol id="mhd-pic-inf" viewBox="0 0 300 300"><path d="M281.77 227.73l-39.48-39.48a1.46 1.46 0 0 0 .21-.75v-108A11.51 11.51 0 0 0 231 68H70a11.51 11.51 0 0 0-11.5 11.5v108a2.88 2.88 0 0 0-.27.22l-40 40a2.52 2.52 0 0 0-.67 2.3 2.42 2.42 0 0 0-.06.47v10a12 12 0 0 0 12 12h240.96a12 12 0 0 0 12-12v-10a2.42 2.42 0 0 0-.06-.47 2.52 2.52 0 0 0-.63-2.29zM51.13 240.5a1.51 1.51 0 0 1-1.51 1.5H29.54a1.5 1.5 0 0 1 0-3h20.08a1.51 1.51 0 0 1 1.51 1.5zm177.37-156v90a3.5 3.5 0 0 1-3.5 3.5H76a3.5 3.5 0 0 1-3.5-3.5v-90A3.5 3.5 0 0 1 76 81h149a3.5 3.5 0 0 1 3.5 3.5zM61 192h178l36.5 36.5H24.54z"/><path d="M118.94 150.56a1.5 1.5 0 0 0 2.12 0 1.49 1.49 0 0 0 0-2.12l-18.94-18.94 18.94-18.94a1.5 1.5 0 0 0-2.12-2.12l-20 20a1.49 1.49 0 0 0 0 2.12zm60 0a1.5 1.5 0 0 0 2.12 0l20-20a1.49 1.49 0 0 0 0-2.12l-20-20a1.5 1.5 0 0 0-2.12 2.12l18.94 18.94-18.94 18.94a1.49 1.49 0 0 0 0 2.12zm-39.61.28a1.44 1.44 0 0 0 .67.16 1.49 1.49 0 0 0 1.34-.83l20-40a1.5 1.5 0 0 0-2.68-1.34l-20 40a1.5 1.5 0 0 0 .67 2.01z"/></symbol><symbol id="mhd-pic-jur" viewBox="0 0 300 300"><path d="M195.61 238.05a21 21 0 0 0-21-20.55h-12.16V87.62a2.2 2.2 0 0 0 0-.36 17.66 17.66 0 0 0 3.33-4.76h39.31a2.52 2.52 0 0 0 1.78-.74l8.13-8.22 1.15 1.16a12.51 12.51 0 0 0 17.68 0l2.2-2.2h9.06a2.5 2.5 0 0 0 0-5H235a2.51 2.51 0 0 0-1.77.73l-2.93 2.93a7.48 7.48 0 0 1-10.6 0l-2.93-2.93-.14-.11a2 2 0 0 0-.24-.19 1.65 1.65 0 0 0-.26-.14 1.4 1.4 0 0 0-.17-.09l-.31-.1h-.16a2.2 2.2 0 0 0-.36 0h-49.39a17.67 17.67 0 0 0-7.69-8 12.5 12.5 0 1 0-16.2 0 17.67 17.67 0 0 0-7.69 8H85a2.61 2.61 0 0 0-.48 0h-.15l-.32.1a1.51 1.51 0 0 0-.18.09c-.08 0-.17.08-.25.14a2.31 2.31 0 0 0-.39.31l-3 3a7.54 7.54 0 0 1-10.53.08l-3.24-3.14a2.46 2.46 0 0 0-1.74-.71H55a2.5 2.5 0 0 0 0 5h8.68l2.51 2.44a12.56 12.56 0 0 0 17.54-.14L85 73.54l8.23 8.23a2.51 2.51 0 0 0 1.77.73h39.21a17.66 17.66 0 0 0 3.33 4.76 2.2 2.2 0 0 0 0 .36V217.5H125.8a21 21 0 0 0-21 20.55 21.05 21.05 0 0 0-16.34 20.48V260a2.5 2.5 0 0 0 2.5 2.5h118.5A2.5 2.5 0 0 0 212 260v-1.47a21.05 21.05 0 0 0-16.39-20.48zM209 72.5l-5 5h-36.75a15.73 15.73 0 0 0 0-5zM142.45 50a7.5 7.5 0 1 1 7.5 7.5 7.5 7.5 0 0 1-7.5-7.5zM96 77.5l-5-5h41.66a15.72 15.72 0 0 0 0 5zm54-15A12.5 12.5 0 1 1 137.45 75 12.52 12.52 0 0 1 150 62.5zm-7.5 31.29a17.3 17.3 0 0 0 15 0V217.5h-15zM125.8 222.5h48.8a16 16 0 0 1 16 15h-80.8a16 16 0 0 1 16-15zm-32.32 35a16.06 16.06 0 0 1 16-15h81.44a16.06 16.06 0 0 1 16 15z"/><path d="M107 152.3a2.47 2.47 0 0 0-1-2 2.16 2.16 0 0 0-.72-.34L80.3 71.49a1.51 1.51 0 0 0-1.93-.9 1.49 1.49 0 0 0-.89 1.92l24.68 77.9a88.16 88.16 0 0 1-53.82 0L73 72.51a1.49 1.49 0 0 0-.89-1.92 1.51 1.51 0 0 0-1.93.9l-24.86 78.44a2.16 2.16 0 0 0-.72.34 2.47 2.47 0 0 0-1.05 2 31.7 31.7 0 0 0 63.4 0zm148.4-2.03a2.16 2.16 0 0 0-.72-.34L229.8 71.49a1.51 1.51 0 0 0-1.93-.9 1.49 1.49 0 0 0-.89 1.92l24.68 77.9a88.16 88.16 0 0 1-53.82 0l24.68-77.9a1.49 1.49 0 0 0-.89-1.92 1.51 1.51 0 0 0-1.93.9l-24.88 78.44a2.16 2.16 0 0 0-.72.34 2.47 2.47 0 0 0-1 2 31.7 31.7 0 0 0 63.4 0 2.47 2.47 0 0 0-1.1-2z"/><circle cx="75" cy="68" r="6"/><circle cx="225" cy="68" r="6"/></symbol><symbol id="mhd-pic-ryc" viewBox="0 0 300 300"><path d="M171.52 78.94a1.39 1.39 0 0 0 .4.06 1.49 1.49 0 0 0 1.44-1.11c.4-1.43.85-3.15 1.22-5a1.5 1.5 0 0 0-2.94-.6c-.35 1.72-.79 3.37-1.17 4.76a1.49 1.49 0 0 0 1.05 1.89zm-1.69 9.81a1.5 1.5 0 0 0 1.5-1.47 20.91 20.91 0 0 1 .73-4.6 1.5 1.5 0 1 0-2.91-.72 23.81 23.81 0 0 0-.82 5.26 1.5 1.5 0 0 0 1.47 1.53zm38.87 9.56a24.48 24.48 0 0 1 3.83 2.72 1.5 1.5 0 0 0 1 .37 1.52 1.52 0 0 0 1.14-.52 1.5 1.5 0 0 0-.15-2.11 25.81 25.81 0 0 0-4.31-3.06 1.5 1.5 0 1 0-1.49 2.6zM190 95.56h.16c1.85-.2 3.39-.31 4.86-.34a1.5 1.5 0 1 0-.06-3c-1.57 0-3.19.15-5.12.36a1.5 1.5 0 0 0 .16 3zm28.56 12.8a1.5 1.5 0 0 0 1.29.73 1.46 1.46 0 0 0 .77-.22 1.49 1.49 0 0 0 .51-2.05 37.22 37.22 0 0 0-3-4.28 1.5 1.5 0 0 0-2.33 1.9 34 34 0 0 1 2.76 3.92zm-18.75-12.93a25.8 25.8 0 0 1 4.61 1 1.47 1.47 0 0 0 .46.07 1.48 1.48 0 0 0 1.42-1 1.5 1.5 0 0 0-1-1.89 29.14 29.14 0 0 0-5.16-1.12 1.5 1.5 0 0 0-.37 3zM163 47.05a28.58 28.58 0 0 1 3.48 3.23 1.5 1.5 0 0 0 2.11.11 1.49 1.49 0 0 0 .11-2.12 32.1 32.1 0 0 0-3.83-3.57 1.5 1.5 0 1 0-1.87 2.35zm6.26 7a21.45 21.45 0 0 1 1.82 4l.1.29a1.52 1.52 0 0 0 1.43 1 1.48 1.48 0 0 0 .46-.08 1.5 1.5 0 0 0 1-1.89l-.12-.35a24.72 24.72 0 0 0-2.08-4.49 1.5 1.5 0 1 0-2.58 1.53zm10.83 42.65h.07c1.69-.09 3.52-.32 5.1-.52a1.5 1.5 0 0 0-.39-3c-1.53.2-3.28.42-4.86.5a1.5 1.5 0 0 0 .08 3zm-6.57-35.49a1.5 1.5 0 0 0-1.32 1.66 24.93 24.93 0 0 1 .17 2.89q0 .93-.06 1.83a1.5 1.5 0 0 0 1.39 1.6h.1a1.5 1.5 0 0 0 1.5-1.4c0-.68.07-1.36.07-2a28.91 28.91 0 0 0-.19-3.24 1.5 1.5 0 0 0-1.66-1.34zm-.87 30.33c-.11-.13-.21-.27-.31-.41a1.5 1.5 0 0 0-2.46 1.72c.15.21.3.41.47.61a8.53 8.53 0 0 0 4.37 2.78 1.84 1.84 0 0 0 .41.05 1.5 1.5 0 0 0 .41-2.94 5.63 5.63 0 0 1-2.89-1.81zM73 255.5v-25.88l-7 4.82V253a16 16 0 0 0 16 16h123c7.27 0 12.05-.8 13.51-6H80.5a7.5 7.5 0 0 1-7.5-7.5zm0-210v-.26c-6.12 1.12-7 6-7 13.76v150.06l7-7z"/><path d="M266.15 207.27L228 168V45.5a7.5 7.5 0 0 0-7.5-7.5h-140a7.51 7.51 0 0 0-7.5 7.24v156.82l-7 7-33.27 33.27a1.14 1.14 0 0 0-.73.67l-.13.13a1.21 1.21 0 0 0-.35 1 9.83 9.83 0 0 0 7 8q.39.12.78.21a1.24 1.24 0 0 0 .27 0h.27a1.25 1.25 0 0 0 .88-.36l.5-.5L66 234.44l7-4.82v25.88a7.5 7.5 0 0 0 7.5 7.5h140a7.5 7.5 0 0 0 7.5-7.5v-64.36l27.51 26.71a7.5 7.5 0 0 0 10.61 0 7.5 7.5 0 0 0 0-10.58zM76 213.2l-10 10-26.59 26.59a7.64 7.64 0 0 1-5.31-5.31l31.9-31.9 10-10 29.39-29.39 25.86-4.09.78.78-23.26 5.17a1.28 1.28 0 0 0-.69.42l-30.22 35.87zm147-102.42a1.49 1.49 0 0 0-2.2 1.86c.64 1.41 1.25 2.93 1.8 4.52a1.47 1.47 0 0 0 .4.58v45.09l-50.85-52.39-7.37-8.44h40.72a1.5 1.5 0 0 0 0-3h-42.67c-.84-2.12-2.27-5.5-3.47-7l-3.87-6.61a2.5 2.5 0 0 0-1.83-1.22 1.08 1.08 0 0 0-.18 0l-4.55-6.84a2 2 0 0 0-.19-.22l-21.2-21.21a1.39 1.39 0 0 0-.48-.32 1.41 1.41 0 0 0-.54-.11h-.3a28.49 28.49 0 0 0-22.44 22.43 1.43 1.43 0 0 0 0 .29 1.5 1.5 0 0 0 .11.55 1.34 1.34 0 0 0 .32.49L123.94 99H95.5a1.5 1.5 0 0 0 0 3h32.15l4.82 3.21a1 1 0 0 0 0 .17 2.5 2.5 0 0 0 1.22 1.84l6.61 3.87c1.86 1.51 6.74 3.39 8.32 4l10.09 8.81 25.88 25.1H95.5a1.5 1.5 0 0 0 0 3h92.18L223 186.29v69.21a2.5 2.5 0 0 1-2.5 2.5h-140a2.5 2.5 0 0 1-2.5-2.5v-29.32l8-5.52a.27.27 0 0 0 .08-.07L108.75 202h96.75a1.5 1.5 0 0 0 0-3h-93.1l9.74-8 28.36-3.33a1.25 1.25 0 0 0 .81-2l-2.56-3a1.27 1.27 0 0 0-1-.44l-30 1.85a1.2 1.2 0 0 0-.63.22l-31.23 21.5 23.86-28.32 25.06-5.58a1.25 1.25 0 0 0 .61-2.09l-2.83-2.83a1.26 1.26 0 0 0-1.08-.35l-26.91 4.17a1.24 1.24 0 0 0-.69.35L78 197.06V45.5a2.5 2.5 0 0 1 2.5-2.5h76.4c.69.4 1.41.82 2.13 1.28a1.53 1.53 0 0 0 .8.22 1.49 1.49 0 0 0 1.27-.7 1.39 1.39 0 0 0 .22-.8h59.18a2.5 2.5 0 0 1 2.5 2.5zm-99-23l-15.27-15.3c.31-.63.63-1.24 1-1.85l15.7 15.7a1.49 1.49 0 0 0 1.06.44 1.53 1.53 0 0 0 1.06-.44 1.51 1.51 0 0 0 0-2.12L111.4 68.08c.4-.54.83-1 1.28-1.55l16.26 16.26a1.51 1.51 0 0 0 1.06.44 1.5 1.5 0 0 0 1.06-2.56L114.8 64.41c.5-.45 1-.88 1.55-1.28l16.13 16.13a1.49 1.49 0 0 0 1.06.44 1.51 1.51 0 0 0 1.06-2.57l-15.7-15.69c.61-.35 1.22-.68 1.85-1L136 75.72a1.51 1.51 0 0 0 1.06.44 1.5 1.5 0 0 0 1.06-2.56l-14.33-14.35c.72-.24 1.46-.44 2.21-.62l20.51 20.52 4.33 6.49-16.93 16.93-6.49-4.33-20.51-20.51c.17-.75.38-1.49.61-2.21l14.35 14.34a1.5 1.5 0 0 0 2.12 0 1.49 1.49 0 0 0 .01-2.12zm28.82 3l2.36 4a2 2 0 0 0 .36.47 42.26 42.26 0 0 1 3.25 7.21 2.58 2.58 0 0 0 .49.85l7.62 8.73-6.6 6.6-8.74-7.64a2.58 2.58 0 0 0-.85-.49 43.58 43.58 0 0 1-7.17-3.22 2.72 2.72 0 0 0-.51-.4l-4-2.35z"/></symbol><symbol id="mhd-pic-pub2" viewBox="0 0 300 300"><defs><style>.cls-1{isolation:isolate}.cls-2{mix-blend-mode:multiply}</style></defs><g class="cls-1"><g id="pic-pub2" class="cls-2"><path d="M250.5 70.5h-200a20 20 0 0 0-20 20v140a20 20 0 0 0 20 20h200a20 20 0 0 0 20-20v-140a20 20 0 0 0-20-20zm0 168.5h-200a8.51 8.51 0 0 1-8.5-8.5v-140a8.51 8.51 0 0 1 8.5-8.5h200a8.51 8.51 0 0 1 8.5 8.5v140a8.51 8.51 0 0 1-8.5 8.5z"/><path d="M220.5 98h-8.38a196.94 196.94 0 0 0-61.62 9.87A196.94 196.94 0 0 0 88.88 98H80.5a2.5 2.5 0 0 0-2.5 2.5v110a2.5 2.5 0 0 0 2.5 2.5h8.38a192 192 0 0 1 60.83 9.87 2.47 2.47 0 0 0 1.58 0 192 192 0 0 1 60.83-9.87h8.38a2.5 2.5 0 0 0 2.5-2.5v-110a2.5 2.5 0 0 0-2.5-2.5zm-2.5 5v95h-5.88a196.83 196.83 0 0 0-60.12 9.39v-94.75a192.19 192.19 0 0 1 60.12-9.64zm-135 0h5.88a192.19 192.19 0 0 1 60.12 9.64v94.75A196.83 196.83 0 0 0 88.88 198H83zm129.12 105a196.94 196.94 0 0 0-61.62 9.87A196.94 196.94 0 0 0 88.88 208H83v-5h5.88a192 192 0 0 1 60.83 9.87 2.47 2.47 0 0 0 1.58 0 192 192 0 0 1 60.83-9.87H218v5z"/><path d="M160.5 142a1.41 1.41 0 0 0 .4-.05 193.11 193.11 0 0 1 51.22-6.95 1.5 1.5 0 0 0 0-3 196.25 196.25 0 0 0-52 7 1.5 1.5 0 0 0 .4 2.94zm-71.62-7a193.11 193.11 0 0 1 51.22 6.91 1.41 1.41 0 0 0 .4.05 1.5 1.5 0 0 0 .4-2.94 196.25 196.25 0 0 0-52-7 1.5 1.5 0 0 0 0 3zm71.62 27a1.41 1.41 0 0 0 .4-.05 193.11 193.11 0 0 1 51.22-6.95 1.5 1.5 0 0 0 0-3 196.25 196.25 0 0 0-52 7 1.5 1.5 0 0 0 .4 2.94zm-71.62-7a193.11 193.11 0 0 1 51.22 6.91 1.41 1.41 0 0 0 .4.05 1.5 1.5 0 0 0 .4-2.94 196.25 196.25 0 0 0-52-7 1.5 1.5 0 0 0 0 3zm123.24 17a196.25 196.25 0 0 0-52 7 1.5 1.5 0 0 0 .4 2.94 1.41 1.41 0 0 0 .4-.05 193.11 193.11 0 0 1 51.2-6.89 1.5 1.5 0 0 0 0-3zm-72.02 9.91a1.41 1.41 0 0 0 .4.05 1.5 1.5 0 0 0 .4-2.94 196.25 196.25 0 0 0-52-7 1.5 1.5 0 0 0 0 3 193.11 193.11 0 0 1 51.2 6.89z"/></g></g></symbol><symbol id="mhd-pic-captura" viewBox="0 0 300 300"><path d="M77.5 104.5v110A2.5 2.5 0 0 0 80 217h8.38a192 192 0 0 1 60.83 9.87 2.47 2.47 0 0 0 1.58 0 192 192 0 0 1 60.83-9.87H220a2.5 2.5 0 0 0 2.5-2.5v-110a2.5 2.5 0 0 0-2.5-2.5h-8.38a196.94 196.94 0 0 0-61.62 9.87A196.94 196.94 0 0 0 88.38 102H80a2.5 2.5 0 0 0-2.5 2.5zM211.62 212a196.94 196.94 0 0 0-61.62 9.87A196.94 196.94 0 0 0 88.38 212H82.5v-5h5.88a192 192 0 0 1 60.83 9.87 2.47 2.47 0 0 0 1.58 0 192 192 0 0 1 60.83-9.87h5.88v5zm5.88-105v95h-5.88a196.83 196.83 0 0 0-60.12 9.39v-94.75a192.19 192.19 0 0 1 60.12-9.64zm-135 0h5.88a192.19 192.19 0 0 1 60.12 9.64v94.75A196.83 196.83 0 0 0 88.38 202H82.5z"/><path d="M160 146a1.41 1.41 0 0 0 .4-.05 193.11 193.11 0 0 1 51.22-6.95 1.5 1.5 0 0 0 0-3 196.25 196.25 0 0 0-52 7 1.5 1.5 0 0 0 .38 3zm-71.62-7a193.11 193.11 0 0 1 51.22 6.91 1.41 1.41 0 0 0 .4.05 1.5 1.5 0 0 0 .4-2.94 196.25 196.25 0 0 0-52-7 1.5 1.5 0 0 0 0 3zM160 166a1.41 1.41 0 0 0 .4-.05 193.11 193.11 0 0 1 51.22-6.95 1.5 1.5 0 0 0 0-3 196.25 196.25 0 0 0-52 7 1.5 1.5 0 0 0 .38 3zm-71.62-7a193.11 193.11 0 0 1 51.22 6.91 1.41 1.41 0 0 0 .4.05 1.5 1.5 0 0 0 .4-2.94 196.25 196.25 0 0 0-52-7 1.5 1.5 0 0 0 0 3zm123.24 17a196.25 196.25 0 0 0-52 7 1.5 1.5 0 0 0 .38 3 1.41 1.41 0 0 0 .4-.05 193.11 193.11 0 0 1 51.22-6.95 1.5 1.5 0 0 0 0-3zm-72.02 9.91a1.41 1.41 0 0 0 .4.05 1.5 1.5 0 0 0 .4-2.94 196.25 196.25 0 0 0-52-7 1.5 1.5 0 0 0 0 3 193.11 193.11 0 0 1 51.2 6.89z"/><path d="M248.94 116.21a7.43 7.43 0 0 0-7.29-.33l-12.77 6.38a2.5 2.5 0 0 0 2.24 4.48l12.76-6.39a2.5 2.5 0 0 1 3.62 2.24v91.09l-96 28.8v-8a1.5 1.5 0 0 0-3 0v8l-96-28.8v-91.09a2.5 2.5 0 0 1 3.62-2.24l12.76 6.39a2.5 2.5 0 0 0 2.24-4.48l-12.77-6.38a7.5 7.5 0 0 0-10.85 6.71V244.5A12.52 12.52 0 0 0 60 257h180a12.52 12.52 0 0 0 12.5-12.5V122.59a7.45 7.45 0 0 0-3.56-6.38zM110.91 75.09a1.49 1.49 0 0 0 1.06-.44l1.42-1.42a1.5 1.5 0 0 0-2.12-2.12l-1.42 1.42a1.5 1.5 0 0 0 1.06 2.56zm8.49-8.49a1.48 1.48 0 0 0 1.06-.44l1.41-1.41a1.5 1.5 0 1 0-2.12-2.12L118.34 64a1.49 1.49 0 0 0 0 2.12 1.45 1.45 0 0 0 1.06.48zm8.48-8.48a1.53 1.53 0 0 0 .62-.15v6.53A1.5 1.5 0 0 0 130 66h40a1.5 1.5 0 0 0 1.5-1.5V58a1.53 1.53 0 0 0 .62.15 1.5 1.5 0 0 0 1.06-2.56l-1.42-1.42a.9.9 0 0 0-.26-.17V24.5A1.5 1.5 0 0 0 170 23h-40a1.5 1.5 0 0 0-1.5 1.5V54a.9.9 0 0 0-.26.17l-1.42 1.42a1.5 1.5 0 0 0 1.06 2.56zM141.5 44.5A8.5 8.5 0 1 1 150 53a8.51 8.51 0 0 1-8.5-8.5zm-39.07 39.07a1.48 1.48 0 0 0 1.06-.44l1.41-1.41a1.5 1.5 0 0 0-2.12-2.12l-1.41 1.4a1.49 1.49 0 0 0 0 2.12 1.45 1.45 0 0 0 1.06.45zm-8.49 8.49a1.49 1.49 0 0 0 1.06-.44l1.42-1.41a1.51 1.51 0 0 0-2.13-2.13l-1.41 1.42a1.49 1.49 0 0 0 0 2.12 1.51 1.51 0 0 0 1.06.44zM188 74.65a1.49 1.49 0 0 0 1.06.44 1.5 1.5 0 0 0 1.06-2.56l-1.42-1.42a1.5 1.5 0 0 0-2.12 2.12zm-8.46-8.49a1.48 1.48 0 0 0 1.06.44 1.45 1.45 0 0 0 1.06-.44 1.49 1.49 0 0 0 0-2.12l-1.41-1.41a1.5 1.5 0 1 0-2.12 2.12zM205 91.62a1.49 1.49 0 0 0 1.06.44 1.51 1.51 0 0 0 1.06-.44 1.49 1.49 0 0 0 0-2.12l-1.41-1.42a1.51 1.51 0 0 0-2.13 2.13zm-8.49-8.49a1.48 1.48 0 0 0 1.06.44 1.45 1.45 0 0 0 1.06-.44 1.49 1.49 0 0 0 0-2.12l-1.41-1.41a1.5 1.5 0 0 0-2.12 2.12z"/></symbol><symbol id="mhd-pic-edicion" viewBox="0 0 300 300"><path d="M250.4 174a2.5 2.5 0 0 0-2.5 2.5v60a7.5 7.5 0 0 1-7.5 7.5h-7.5V98.5a7.5 7.5 0 0 0-7.5-7.5h-110a7.51 7.51 0 0 0-7.5 7.5V244H50.4a7.51 7.51 0 0 1-7.5-7.5v-28h-5v28A12.52 12.52 0 0 0 50.4 249h190a12.52 12.52 0 0 0 12.5-12.5v-60a2.5 2.5 0 0 0-2.5-2.5zm-137.5 70V98.5a2.5 2.5 0 0 1 2.5-2.5h110a2.5 2.5 0 0 1 2.5 2.5V244z"/><path d="M288.57 146.55l-33.69-33.7a3.5 3.5 0 0 0-6 2.48v50.34a3.5 3.5 0 0 0 6 2.48l7.56-7.57a.51.51 0 0 1 .81.15l10.89 23.47a3.58 3.58 0 0 0 2.08 1.85 3.75 3.75 0 0 0 1.09.17 3.42 3.42 0 0 0 1.68-.43l7.46-4.06a3.5 3.5 0 0 0 1.48-4.59l-11-22.78a.51.51 0 0 1 0-.46.53.53 0 0 1 .38-.26l9.18-1.14a3.5 3.5 0 0 0 2-5.95zM210.4 132h-80a1.5 1.5 0 1 0 0 3h80a1.5 1.5 0 0 0 0-3zm0 40h-80a1.5 1.5 0 1 0 0 3h80a1.5 1.5 0 0 0 0-3zm0 39h-80a1.5 1.5 0 1 0 0 3h80a1.5 1.5 0 0 0 0-3zM27.77 139.6a1.51 1.51 0 0 0 1.06.44 1.49 1.49 0 0 0 1.06-.44l35.36-35.36a1.51 1.51 0 0 0 0-2.12l-6.72-6.72a1.5 1.5 0 0 0-2.12 0l-35.36 35.36a1.51 1.51 0 0 0 0 2.12z"/><path d="M42.9 73.5h205v32a2.5 2.5 0 0 0 5 0v-42A12.52 12.52 0 0 0 240.4 51h-190a12.52 12.52 0 0 0-12.5 12.5v45.29l5-5zM59.4 66h-10a2.5 2.5 0 0 1 0-5h10a2.5 2.5 0 1 1 0 5zm20 0h-10a2.5 2.5 0 0 1 0-5h10a2.5 2.5 0 0 1 0 5zm20 0h-10a2.5 2.5 0 0 1 0-5h10a2.5 2.5 0 0 1 0 5zm-56.5 83.5v-18.79l-5 5v13.79h5z"/><path d="M55.9 81.5v10a1.5 1.5 0 0 0 3 0v-10a1.5 1.5 0 0 0-3 0zm12.75 2.37a1.51 1.51 0 0 0-2.05.55l-5 8.66a1.5 1.5 0 0 0 .55 2 1.48 1.48 0 0 0 .75.2 1.5 1.5 0 0 0 1.3-.75l5-8.66a1.5 1.5 0 0 0-.55-2zM67.07 99.5a1.46 1.46 0 0 0 .75-.2l8.66-5A1.5 1.5 0 0 0 75 91.7l-8.66 5a1.5 1.5 0 0 0 .75 2.8zm13.83 4a1.5 1.5 0 0 0-1.5-1.5h-10a1.5 1.5 0 0 0 0 3h10a1.5 1.5 0 0 0 1.5-1.5zM65.79 164l8.73-8.73a1.33 1.33 0 0 0 .28-1.43 1.31 1.31 0 0 0-1.21-.81H21.21a1.31 1.31 0 0 0-1.31 1.31v52.38a1.32 1.32 0 0 0 .78 1.2 1.4 1.4 0 0 0 .53.11 1.31 1.31 0 0 0 .88-.34l9.6-8.73a1.29 1.29 0 0 0 .43-1v-33.61h32.74a1.34 1.34 0 0 0 .93-.35z"/><path d="M70.4 167.5h-11v27h-25v10h36v-37zm-53 37v-8l-7 8h7zm53-55v-7l-7.7 7h7.7z"/></symbol><symbol id="mhd-pic-dyp" viewBox="0 0 300 300"><path d="M64.16 50a1.5 1.5 0 0 0 1.5 1.5h130a1.5 1.5 0 0 0 0-3h-130a1.5 1.5 0 0 0-1.5 1.5z"/><path d="M256.84 175.32a6.49 6.49 0 0 0-9.68-5.66V112a14.51 14.51 0 0 0-14.5-14.5h-6.5V90a1.5 1.5 0 0 0-1.5-1.5h-16.5V70a12.52 12.52 0 0 0-12.5-12.5h-140a7.5 7.5 0 0 1 0-15h130a2.5 2.5 0 0 0 0-5h-130A12.52 12.52 0 0 0 43.16 50v180a22.52 22.52 0 0 0 22.5 22.5h57.24a14.45 14.45 0 0 0 13.76 10h96a14.51 14.51 0 0 0 14.5-14.5v-60.31l7.77-7.77a6.46 6.46 0 0 0 1.91-4.6zM48.16 230V60a12.47 12.47 0 0 0 7.5 2.52h7.5V247.3a17.51 17.51 0 0 1-15-17.3zm20-167.5h127.5a7.5 7.5 0 0 1 7.5 7.5v18.5h-58.5a1.5 1.5 0 0 0-1.5 1.5v7.5h-6.5a14.52 14.52 0 0 0-14.5 14.5v135.5h-54zm174 185.5a9.51 9.51 0 0 1-9.5 9.5h-96a9.59 9.59 0 0 1-9.35-7.92 9.31 9.31 0 0 1-.15-1.58V112a9.51 9.51 0 0 1 9.5-9.5h6.5v7.5a1.5 1.5 0 0 0 1.5 1.5h80a1.5 1.5 0 0 0 1.5-1.5v-7.5h6.5a9.51 9.51 0 0 1 9.5 9.5v62.31l-15 15V140a1.5 1.5 0 0 0-1.5-1.5 1.43 1.43 0 0 1-1 0h-80a1.5 1.5 0 0 0-1.5 1.5v60a1.5 1.5 0 0 0 1.5 1.5H215l-4.58 4.58a6.46 6.46 0 0 0-1.8 3.45l-4.17 9.95c-.08.18.89 1.87 1.24 1.87a1.23 1.23 0 0 0 .53-.11l9.88-4.16a6.44 6.44 0 0 0 3.51-1.81l22.58-22.58zM218 198.5h-71.84v-17h78V192a1.27 1.27 0 0 0 0 .28zm6.19-57v17h-78v-17zm-78 20h78v17h-78zm65.26 54.61l-3.23 1.36 1.35-3.24a7 7 0 0 0 .85 1 5.91 5.91 0 0 0 1 .88zm6-3a3.59 3.59 0 0 1-5 0 3.49 3.49 0 0 1 0-5l6.92-6.92a1.46 1.46 0 0 0 .51-.51l24.44-24.44a5.78 5.78 0 0 0 5 4.95zm34.93-35.42a3.23 3.23 0 0 1-4.46 0 3.15 3.15 0 1 1 4.46 0z"/><path d="M224 260h-93a6 6 0 0 1-6-6V120c0-3.31 2-16 2-16-8.84 0-12 7.16-12 16v134a16 16 0 0 0 16 16h93c8.84 0 16-4.16 16-13 0 0-12.69 3-16 3z"/><path d="M208.21 224.46l-14.46 14.46-1.08 1.08-5.07 5.06a1.52 1.52 0 0 1-2.16 0l-11.93-11.93a1.53 1.53 0 0 1 0-2.17l5.06-5.06a1.53 1.53 0 0 1 2.17 0l5.78 5.79L201 217.23a1.53 1.53 0 0 1 2.17 0l5.06 5.06a1.53 1.53 0 0 1-.02 2.17z"/></symbol><symbol id="mhd-pic-analisis" viewBox="0 0 300 300"><defs><style>.cls-1{isolation:isolate}.cls-2{mix-blend-mode:multiply}</style></defs><g class="cls-1"><g id="pic-analisis" class="cls-2"><path d="M84 50a1.5 1.5 0 0 0 1.5 1.5h130a1.5 1.5 0 0 0 0-3h-130A1.5 1.5 0 0 0 84 50z"/><path d="M252.5 97.5H246V92a1.5 1.5 0 0 0-1.5-1.5H228a2.73 2.73 0 0 0 0-.5V70a12.52 12.52 0 0 0-12.5-12.5h-140a7.5 7.5 0 0 1 0-15h130a2.5 2.5 0 0 0 0-5h-130A12.52 12.52 0 0 0 63 50v87.61a32.49 32.49 0 0 0 0 64.78V230a22.52 22.52 0 0 0 22.5 22.5h57.22a14.53 14.53 0 0 0 13.78 10h96A14.51 14.51 0 0 0 267 248V112a14.51 14.51 0 0 0-14.5-14.5zm-177-35H83v80.14a32.27 32.27 0 0 0-15-5V60a12.45 12.45 0 0 0 7.5 2.5zM38 170a27.5 27.5 0 1 1 27.5 27.5A27.54 27.54 0 0 1 38 170zm30 60v-27.61a32.27 32.27 0 0 0 15-5v49.91A17.51 17.51 0 0 1 68 230zm20-26.89L120.88 236a7.5 7.5 0 1 0 10.6-10.61L96.12 190a7.43 7.43 0 0 0-3.59-2A32.42 32.42 0 0 0 88 146.58V62.5h127.5A7.5 7.5 0 0 1 223 70v20a2.73 2.73 0 0 0 .05.5H164.5A1.5 1.5 0 0 0 163 92v5.5h-6.5A14.51 14.51 0 0 0 142 112v135.5H88zM262 248a9.51 9.51 0 0 1-9.5 9.5h-96a9.51 9.51 0 0 1-9.5-9.5V112a9.51 9.51 0 0 1 9.5-9.5h5.5v7.5a2.5 2.5 0 0 0 2.5 2.5h80a2.5 2.5 0 0 0 2.5-2.5v-7.5h5.5a9.51 9.51 0 0 1 9.5 9.5z"/><path d="M244.5 138.5h-80a1.5 1.5 0 0 0 0 3h80a1.5 1.5 0 0 0 0-3zm0 20h-80a1.5 1.5 0 0 0 0 3h80a1.5 1.5 0 0 0 0-3zm0 20h-80a1.5 1.5 0 0 0 0 3h80a1.5 1.5 0 0 0 0-3zm0 20h-80a1.5 1.5 0 0 0 0 3h80a1.5 1.5 0 0 0 0-3zm0 20h-80a1.5 1.5 0 0 0 0 3h80a1.5 1.5 0 0 0 0-3z"/><path d="M244 260h-93a6 6 0 0 1-6-6V120c0-3.31 2-16 2-16-8.84 0-12 7.16-12 16v134a16 16 0 0 0 16 16h93c8.84 0 16-4.16 16-13 0 0-12.69 3-16 3z"/></g></g></symbol><symbol id="mhd-logo" viewBox="0 0 600 400"><path d="M37.65 223.31h-3l-11.8 30.61-12.5-30.61H.46v2.19l5 .62v31.09l-4.95.7v2.2h12.2v-2.2l-4.5-.69v-17.54l-.32-10.45 12.68 30.88h2.69l12-30.88v13.85c0 4.82 0 9.57-.12 14.25l-4.66.58v2.2h14.86v-2.2l-5.1-.59c-.1-4.74-.12-9.51-.12-14.24v-2.74c0-4.82 0-9.57.12-14.25l5.1-.59v-2.19h-7.69zm32.89 20.54c0-6.65-4.5-10.49-10.16-10.49-6.81 0-12.52 5.6-12.52 14s4.77 13.46 12.14 13.46a11.17 11.17 0 0 0 10.5-6.37l-1.27-1c-2 2.31-4.17 3.9-7.69 3.9-5.42 0-8.9-3.64-9-10.43h17.62a11.17 11.17 0 0 0 .38-3.07zm-7.58.77H52.63c.65-6.33 4.28-8.79 7.47-8.79a6.1 6.1 0 0 1 6.1 6c0 1.53-.6 2.79-3.2 2.79zm15.34 12.81l-4.14.76v1.92h12.63v-1.92l-3.92-.79c-.06-2.75-.09-6.37-.09-8.83v-7.94c2.84-2.42 4.92-3.43 7.48-3.43 3.29 0 4.61 1.65 4.61 6.76v4.61c0 2.54 0 6.13-.09 8.86l-4.14.76v1.92h12.63v-1.92l-3.92-.79c-.06-2.73-.09-6.3-.09-8.83v-5c0-1-.05-1.94-.13-2.79 2.92-2.59 5.16-3.53 7.55-3.53 3.24 0 4.67 1.49 4.67 6.65v4.72c0 2.54 0 6.13-.09 8.86l-4.14.76v1.92h12.63v-1.92l-3.92-.79c-.06-2.73-.09-6.3-.09-8.83v-5.65c0-6.82-2.58-9.56-7-9.56a13.17 13.17 0 0 0-10 5.14c-.91-3.6-3-5.14-6.45-5.14s-7.11 2.11-9.7 5l-.46-4.45-.83-.55-7.47 3.29v1.93l4.4.49c.11 2.2.16 3.9.16 6.92v2.58c0 2.38-.03 6.05-.09 8.81zm69.29-10.23c0-9.12-6.32-13.84-12.52-13.84s-12.53 4.72-12.53 13.84 6.21 13.62 12.53 13.62 12.52-4.5 12.52-13.62zm-12.52 11.15c-4.89 0-7.58-3.79-7.58-11.15s2.69-11.37 7.58-11.37 7.58 4 7.58 11.37-2.8 11.15-7.58 11.15zm20.06-.9l-4 .74v1.92h13.18v-1.92l-4.58-.84c-.06-2.75-.09-6.34-.09-8.78v-4.06a13.66 13.66 0 0 1 4.64-7.18l.69.59a5 5 0 0 0 3.3 1.32c2.19 0 3.18-1.43 3.18-4a4.71 4.71 0 0 0-3.9-1.87c-3 0-6.1 2.65-7.94 7.11l-.63-6.56-.82-.55-7.47 3.29v1.93l4.39.49c.11 2.2.17 3.9.17 6.92v2.58c-.03 2.42-.06 6.11-.12 8.87zm27.28-33.76a3.63 3.63 0 0 0-7.26 0 3.63 3.63 0 0 0 7.26 0zm-1.27 36.42H185v-1.92l-3.93-.79c-.05-2.75-.08-6.37-.08-8.83v-7.25l.16-7.41-.82-.55-8.3 3.29v1.93l4.51.49c.11 2.2.16 3.9.16 6.92v2.58c0 2.46 0 6.09-.08 8.84l-4.26.78v1.92h8.79zm30.65-3.46a2.73 2.73 0 0 1-2.14 1.21c-1.27 0-2-.88-2-3.35v-11.65c0-6.92-2.74-9.5-8.4-9.5-5.49 0-9.56 2.58-10.6 6.76a2.24 2.24 0 0 0 2.47 2.19c1.48 0 2.31-.88 2.8-2.47l1.1-3.62a12.55 12.55 0 0 1 3.08-.39c3.62 0 5.16 1.32 5.16 6.7v1.34a62.81 62.81 0 0 0-6.32 1.85c-7.36 2.69-9 5.16-9 8.24 0 4.56 3.35 6.86 7.36 6.86 3.2 0 5.06-1.42 8.09-4.41a4.76 4.76 0 0 0 4.88 4.25 5.12 5.12 0 0 0 4.67-2.8zm-19.23-3.46c0-1.59.55-3.68 5.5-5.6a50.1 50.1 0 0 1 5.16-1.68v8.35c-3.23 2.31-4.34 3-6.21 3-2.52-.01-4.45-1.16-4.45-4.07zm66.63-27.1l5.1-.59v-2.19h-15.38v2.19l5.1.59c.1 4.64.12 9.29.12 13.92H236c0-4.71 0-9.35.11-13.92l5.1-.59v-2.19h-15.37v2.19l5.1.59c.1 4.75.12 9.51.12 14.25v2.74c0 4.82 0 9.57-.12 14.24l-5.1.59v2.2h15.38v-2.2l-5.12-.59c-.09-4.61-.09-9.37-.09-14.79h18.12c0 5.49 0 10.25-.09 14.79l-5.13.59v2.2h15.38v-2.2l-5.1-.59c-.09-4.74-.11-9.51-.11-14.24v-2.74c0-4.82.02-9.57.11-14.25zm10.92-2.4a3.63 3.63 0 1 0 3.62-3.46 3.42 3.42 0 0 0-3.62 3.46zm1.45 33.72l-4.25.78v1.92h12.63v-1.92l-3.94-.79c-.05-2.75-.08-6.37-.08-8.83v-7.25l.16-7.41-.82-.55-8.3 3.29v1.93l4.51.49c.11 2.2.16 3.9.16 6.92v2.58c.01 2.43-.02 6.09-.07 8.84zm30.35-4.41c0-3.4-2.09-6-7.58-8l-1.65-.6c-3.74-1.37-5.11-2.31-5.11-4.78 0-2.31 1.76-3.79 5.17-3.79a8.34 8.34 0 0 1 3.86 1l.86 4.36h2.75l.22-5.55a14 14 0 0 0-7.64-2.25c-6.1 0-9.45 3.68-9.45 7.63 0 3.74 2.64 5.88 6.65 7.36l2.53.94c3.46 1.26 5.1 2.47 5.1 4.83 0 2.53-2 4.23-6.2 4.23a10.8 10.8 0 0 1-4.47-.87l-1.08-4.73H283l.22 6a16.75 16.75 0 0 0 8.13 2.08c6.99-.04 10.56-3.77 10.56-7.86zm18.4 5l-1.31-1.46a6.3 6.3 0 0 1-3.73 1.54c-1.87 0-3.08-1.21-3.08-4.07v-17.08h7.58v-2.86h-7.48l.34-7.47h-3.19l-1.35 7.33-4.91.64v2.36h4.62V250c0 2.15-.06 3.3-.06 4.62 0 4.23 2.36 6.2 6.15 6.2a7.87 7.87 0 0 0 6.42-2.82zm19.82-34.53c1.48-1.37 1.76-2.2 1.76-2.91a1.93 1.93 0 0 0-2-2c-.94 0-1.87.55-2.91 2.19-1.71 2.59-3.3 5.17-4.89 7.75l1.37 1c2.28-2.02 4.47-4 6.67-6.03zm-5.99 37.35c6.21 0 12.53-4.5 12.53-13.62s-6.32-13.84-12.53-13.84-12.52 4.72-12.52 13.84 6.21 13.62 12.52 13.62zm0-25c4.78 0 7.58 4 7.58 11.37s-2.8 11.15-7.58 11.15-7.58-3.79-7.58-11.15 2.69-11.36 7.58-11.36zm24.55 12.75v-4.06a13.64 13.64 0 0 1 4.63-7.18l.7.59a5 5 0 0 0 3.3 1.32c2.19 0 3.18-1.43 3.18-4a4.72 4.72 0 0 0-3.9-1.87c-3 0-6.1 2.65-7.94 7.11l-.63-6.56-.82-.55-7.47 3.29v1.93l4.39.49c.11 2.2.17 3.9.17 6.92v2.58c0 2.47 0 6.12-.09 8.88l-4 .74v1.92h13.18v-1.92l-4.58-.84c-.09-2.76-.12-6.36-.12-8.79zm16.99 8.84l-4.25.78v1.92h12.63v-1.92l-3.92-.79c-.06-2.75-.09-6.37-.09-8.83v-7.25l.17-7.41-.83-.55-8.29 3.29v1.93l4.5.49c.11 2.2.17 3.9.17 6.92v2.58c0 2.43-.03 6.09-.09 8.84zm5.8-33.72a3.63 3.63 0 0 0-7.25 0 3.63 3.63 0 0 0 7.25 0zm27.74 30.05l-1.32-.66a8.84 8.84 0 0 1-7.69 4.28c-5.16 0-8.84-3.79-8.84-10.71s3.4-10.82 8.18-10.82a10.74 10.74 0 0 1 3.07.49l1.05 3.69c.38 1.37 1.1 2.47 2.91 2.47a2.26 2.26 0 0 0 2.47-2c-.71-4.07-4.78-7.09-9.66-7.09-6.54 0-12.58 5.16-12.58 13.79 0 8.4 4.72 13.67 12.25 13.67 5.16-.03 8.67-2.55 10.16-7.11zm23.39 6.92a5.12 5.12 0 0 0 4.67-2.8l-1.1-1.21a2.71 2.71 0 0 1-2.14 1.21c-1.26 0-2-.88-2-3.35v-11.65c0-6.92-2.75-9.5-8.41-9.5-5.49 0-9.55 2.58-10.6 6.76a2.24 2.24 0 0 0 2.47 2.19c1.49 0 2.31-.88 2.81-2.47l1.09-3.62a12.55 12.55 0 0 1 3.08-.39c3.63 0 5.17 1.32 5.17 6.7v1.34a62 62 0 0 0-6.32 1.85c-7.36 2.69-9 5.16-9 8.24 0 4.56 3.35 6.86 7.36 6.86 3.2 0 5.06-1.42 8.09-4.41a4.76 4.76 0 0 0 4.83 4.25zM417 253.19c0-1.59.55-3.68 5.49-5.6a51.22 51.22 0 0 1 5.17-1.68v8.35c-3.24 2.31-4.34 3-6.21 3-2.57-.01-4.45-1.16-4.45-4.07zm67.13-11.43c0-12-7.25-18.45-17.69-18.45h-16.2v2.19l5.1.59c.09 4.75.11 9.51.11 14.25v2.08c0 5.36 0 10.22-.09 14.9l-5.12.59v2.2h15.1c10.66 0 18.79-6.48 18.79-18.35zM465 257.58h-4.5c-.1-4.84-.11-9.78-.11-15.16v-2.08c0-4.91 0-9.75.12-14.51h5c8.13 0 12.85 5.55 12.85 15.93 0 10-4.72 15.82-13.36 15.82zm32.36-33.89a3.63 3.63 0 0 0-7.26 0 3.63 3.63 0 0 0 7.26 0zm2.58 34.5l-3.94-.79c-.05-2.75-.08-6.37-.08-8.83v-7.25l.16-7.41-.82-.55-8.3 3.29v1.93l4.51.49c.11 2.2.16 3.9.16 6.92v2.58c0 2.46 0 6.09-.08 8.84l-4.26.78v1.92h12.64zm20.4-22.71a10.68 10.68 0 0 0-6.84-2.12c-5.6 0-9.88 3.18-9.88 9 0 3.77 1.62 6.34 4.22 7.74-2.71 2.57-3.67 4.37-3.67 6.05 0 2.13 1.23 3.5 3.62 4.17-4.11 2-5.44 3.89-5.44 6.26 0 4 3.46 6.7 11.37 6.7 8.9 0 13.41-4.72 13.41-9.44 0-4.45-2.81-7-8.68-7h-7.25c-2.59 0-3.19-1-3.19-2.47a5.36 5.36 0 0 1 1.44-3.55 13 13 0 0 0 4 .59c5.55 0 9.83-3.19 9.83-9a9.36 9.36 0 0 0-1.32-5.06h5.44v-3.4l-.82-.55zm-2.72 25.34c4 0 5.55 1.87 5.55 4.34 0 3.14-3.24 5.66-9.28 5.66-4.29 0-7.09-1.43-7.09-5.05a7.11 7.11 0 0 1 2.23-5c.68.06 1.4.1 2.11.1zm-4.34-11.64c-3.4 0-5.38-2.75-5.38-6.76s2.14-6.86 5.66-6.86 5.44 2.74 5.44 6.64c0 4.07-2.14 6.98-5.72 6.98zM532 223.69a3.63 3.63 0 0 0 7.25 0 3.63 3.63 0 0 0-7.25 0zm5.83 24.88v-7.25l.17-7.41-.83-.55-8.29 3.29v1.93l4.5.49c.11 2.2.17 3.9.17 6.92v2.58c0 2.46 0 6.09-.09 8.84l-4.25.78v1.92h12.63v-1.92l-3.92-.79c-.06-2.75-.09-6.4-.09-8.83zm16.97 9.51c-1.87 0-3.07-1.21-3.07-4.07v-17.08h7.58v-2.86h-7.49l.34-7.47H549l-1.36 7.33-4.9.64v2.36h4.61V250c0 2.15-.05 3.3-.05 4.62 0 4.23 2.36 6.2 6.15 6.2a7.83 7.83 0 0 0 6.37-2.8l-1.26-1.48a6.3 6.3 0 0 1-3.76 1.54zm28.07-.22c-1.26 0-2-.88-2-3.35v-11.65c0-6.92-2.75-9.5-8.41-9.5-5.49 0-9.56 2.58-10.6 6.76a2.24 2.24 0 0 0 2.47 2.19c1.49 0 2.31-.88 2.8-2.47l1.1-3.62a12.55 12.55 0 0 1 3.08-.39c3.62 0 5.16 1.32 5.16 6.7v1.34a62.57 62.57 0 0 0-6.31 1.85c-7.37 2.69-9 5.16-9 8.24 0 4.56 3.35 6.86 7.36 6.86 3.2 0 5.06-1.42 8.09-4.41a4.75 4.75 0 0 0 4.87 4.25 5.12 5.12 0 0 0 4.67-2.8l-1.1-1.21a2.73 2.73 0 0 1-2.18 1.21zm-17.08-4.67c0-1.59.54-3.68 5.49-5.6a50.92 50.92 0 0 1 5.16-1.68v8.35c-3.23 2.31-4.34 3-6.21 3-2.52-.01-4.44-1.16-4.44-4.07zm29.76 4.21q-.1-4.41-.11-8.83V227.7l.22-7.8-.77-.44-8.4 2.47v1.93l4.56.54v24.17c0 3 0 5.89-.11 8.83l-4.45.79v1.92H600v-1.92zM86.52 285.12a6.81 6.81 0 0 1 3.37.92l.62 3.68h2l-.13-4.67a12.5 12.5 0 0 0-6.22-1.54c-6.27 0-10.84 4.83-10.84 11.27S79.66 306 86.17 306a13.59 13.59 0 0 0 6.5-1.54l.13-4.67h-2l-.62 3.7a9 9 0 0 1-3.91.9c-4.48 0-7.63-3.38-7.63-9.65s3.53-9.62 7.88-9.62zM95.57 298c0 5.35 3.63 8 7.34 8s7.34-2.64 7.34-8-3.71-8.11-7.34-8.11-7.34 2.76-7.34 8.11zm11.78 0c0 4.32-1.64 6.54-4.44 6.54s-4.45-2.22-4.45-6.54 1.58-6.66 4.45-6.66 4.44 2.34 4.44 6.66zm10.75-1.58a8 8 0 0 1 2.72-4.21l.4.35a3 3 0 0 0 1.94.77c1.28 0 1.86-.84 1.86-2.35a2.74 2.74 0 0 0-2.28-1.1c-1.77 0-3.58 1.57-4.65 4.19l-.37-3.87-.49-.32-4.38 1.93v1.13l2.58.29c.06 1.29.1 2.29.1 4.06V304l-2.37.43v1.13h7.73v-1.13l-2.69-.49c0-1.61-.05-3.71-.05-5.14zm10.76 5.92c0 2.48 1.38 3.64 3.6 3.64a4.59 4.59 0 0 0 3.73-1.64l-.74-.87a3.66 3.66 0 0 1-2.19.9c-1.09 0-1.8-.71-1.8-2.38V292h4.44v-1.7h-4.38l.2-4.38h-1.87l-.79 4.3-2.88.37V292h2.71v7.66c0 1.23-.03 1.91-.03 2.68zm22.21-6.34a5.75 5.75 0 0 0-6-6.15c-4 0-7.34 3.29-7.34 8.21s2.8 7.89 7.12 7.89a6.54 6.54 0 0 0 6.15-3.74l-.75-.58a5.53 5.53 0 0 1-4.5 2.29c-3.18 0-5.21-2.14-5.27-6.12h10.32a6.35 6.35 0 0 0 .27-1.8zm-4.44.45h-6.06c.38-3.71 2.51-5.15 4.38-5.15a3.57 3.57 0 0 1 3.57 3.51c0 .93-.35 1.67-1.89 1.67zm28.71 3.48c0-3-1.64-4.9-5.89-6.54l-1.25-.48c-2.36-.9-3.67-2.09-3.67-4.12 0-2.42 1.89-3.67 4.4-3.67a5.09 5.09 0 0 1 2.65.66l.67 3.62h1.93l.2-4.18a8.49 8.49 0 0 0-5.25-1.71c-4.09 0-7.21 2.25-7.21 5.95 0 3.29 2.25 5.16 5.53 6.44l1.23.49c2.8 1.09 4 2 4 4.12 0 2.51-2 3.92-5.08 3.92a6.41 6.41 0 0 1-3.39-.84l-.64-3.76h-1.93l-.19 4.51a12.36 12.36 0 0 0 6.24 1.7c4.46-.04 7.65-2.31 7.65-6.11zm8.15 6.07a7.43 7.43 0 0 0 5.72-3l.34 2.87 4.35-.26v-1.13l-2.23-.47v-9l.1-4.51-.32-.32-4.57.42v1.12l2.31.5-.09 9.46a6.88 6.88 0 0 1-4.6 2.12c-1.77 0-2.61-1-2.61-3.87v-4.92l.16-4.51-.32-.32-4.64.42v1.12l2.32.5-.1 8c-.01 4.21 1.6 5.78 4.18 5.78zm17.51-2.17a5.36 5.36 0 0 0 4.31 2.15c3.77 0 6.6-3.16 6.6-8.11s-2.7-8-6.11-8a6.55 6.55 0 0 0-4.89 2.44l-.2-2.12-.48-.32-4.38 1.93v1.13l2.58.29c.06 1.29.09 2.29.09 4.06v9.23c0 1.73 0 3.45-.07 5.17l-2.63.47v1.13h8.24v-1.13l-3-.49c0-1.74-.06-3.49-.06-5.21zm8.18-5.67c0 4.15-2 6-4.44 6a5.22 5.22 0 0 1-3.64-1.71v-9a6.49 6.49 0 0 1 4-1.84c2.4.04 4.11 2.39 4.11 6.55zm15.26-8.28c-1.77 0-3.58 1.57-4.66 4.2l-.37-3.88-.48-.32-4.38 1.93v1.13l2.58.29c.06 1.29.09 2.29.09 4.06v1.51c0 1.45 0 3.58-.05 5.2l-2.36.43v1.13h7.73v-1.13l-2.69-.49v-7.52a8 8 0 0 1 2.72-4.21l.4.35a2.94 2.94 0 0 0 1.93.77c1.29 0 1.87-.84 1.87-2.35a2.75 2.75 0 0 0-2.33-1.1zM241.4 296a5.75 5.75 0 0 0-6-6.15c-4 0-7.33 3.29-7.33 8.21s2.8 7.89 7.11 7.89a6.54 6.54 0 0 0 6.15-3.74l-.74-.58a5.56 5.56 0 0 1-4.51 2.29c-3.17 0-5.21-2.14-5.27-6.12h10.33a6.8 6.8 0 0 0 .26-1.8zm-4.44.45h-6.05c.37-3.71 2.5-5.15 4.37-5.15a3.58 3.58 0 0 1 3.58 3.51c0 .93-.36 1.67-1.86 1.67zm29.16-.45v2.77c0 1.49 0 3.59-.05 5.19l-2.43.44v1.13h7.41v-1.13l-2.3-.46c0-1.6-.05-3.69-.05-5.17v-3.32c0-4-1.52-5.6-4.09-5.6a7.69 7.69 0 0 0-5.88 3 3.53 3.53 0 0 0-3.78-3 8.24 8.24 0 0 0-5.68 2.93l-.27-2.58-.49-.32-4.37 1.93v1.13l2.57.29c.07 1.29.1 2.29.1 4.06v1.51c0 1.44 0 3.57-.05 5.19l-2.43.44v1.13h7.4v-1.13l-2.3-.46c0-1.61-.05-3.73-.05-5.17v-4.66c1.67-1.41 2.88-2 4.38-2 1.93 0 2.71 1 2.71 4v2.7c0 1.49 0 3.59-.05 5.19l-2.43.44v1.13h7.4v-1.13l-2.3-.46v-8.17a16.17 16.17 0 0 0-.08-1.63c1.71-1.52 3-2.07 4.43-2.07 1.85 0 2.68.86 2.68 3.86zm12.65 1.13c-4.31 1.57-5.27 3-5.27 4.82 0 2.68 2 4 4.31 4 1.87 0 3-.83 4.74-2.59a2.78 2.78 0 0 0 2.86 2.49 3 3 0 0 0 2.73-1.64l-.64-.71a1.6 1.6 0 0 1-1.26.71c-.74 0-1.19-.51-1.19-2v-6.83c0-4.05-1.61-5.57-4.92-5.57s-5.6 1.52-6.22 4a1.32 1.32 0 0 0 1.45 1.29c.87 0 1.35-.51 1.64-1.45l.65-2.12a7.62 7.62 0 0 1 1.8-.23c2.13 0 3 .77 3 3.93v.77a37.52 37.52 0 0 0-3.68 1.13zm-2.54 4.37c0-.93.32-2.15 3.22-3.28a30.44 30.44 0 0 1 3-1v4.89c-1.9 1.35-2.55 1.76-3.64 1.76-1.45.02-2.58-.66-2.58-2.37zm59.91-17.5h-8.66v1.29l3 .34c.06 2.79.07 5.58.07 8.35v1.61c0 2.82 0 5.61-.07 8.35l-3 .34v1.29h9v-1.29l-3-.34c0-2.33-.05-4.57-.06-6.9h1.74c6.57 0 9.05-3 9.05-6.63.01-3.78-2.73-6.41-8.07-6.41zm-.48 11.56h-2.23V294c0-2.87 0-5.71.08-8.5h2c3.89 0 5.63 1.81 5.63 4.93s-1.53 5.12-5.48 5.12zm17.48-5.68c-3.7 0-7.34 2.77-7.34 8.11s3.64 8 7.34 8 7.34-2.64 7.34-8-3.71-8.11-7.34-8.11zm0 14.65c-2.87 0-4.45-2.22-4.45-6.54s1.58-6.66 4.45-6.66 4.44 2.35 4.44 6.66-1.64 6.54-4.44 6.54zm26.52 1.03v-1.13L377 304v-17.43l.13-4.57-.45-.26-4.93 1.45v1.12l2.77.33V292a5.24 5.24 0 0 0-4.21-2.11c-4 0-6.86 3.29-6.86 8.18 0 4.67 2.64 7.92 6.57 7.92a5.25 5.25 0 0 0 4.5-2.37l.23 2.27zm-9-1.35c-2.6 0-4.54-1.93-4.54-6.22s2.1-6.34 4.51-6.34a5.64 5.64 0 0 1 3.74 1.73v8.88a4.58 4.58 0 0 1-3.66 1.95zm24.26-8.21a5.75 5.75 0 0 0-5.95-6.15c-4 0-7.34 3.29-7.34 8.21s2.8 7.89 7.11 7.89a6.54 6.54 0 0 0 6.15-3.74l-.74-.58a5.56 5.56 0 0 1-4.51 2.29c-3.17 0-5.21-2.14-5.27-6.12h10.33a6.8 6.8 0 0 0 .22-1.8zm-4.44.45h-6.05c.37-3.71 2.5-5.15 4.38-5.15a3.58 3.58 0 0 1 3.57 3.51c0 .93-.38 1.67-1.9 1.67zm12.42-.03a8.06 8.06 0 0 1 2.72-4.21l.41.35a2.94 2.94 0 0 0 1.93.77c1.29 0 1.87-.84 1.87-2.35a2.77 2.77 0 0 0-2.29-1.1c-1.76 0-3.57 1.57-4.65 4.2l-.37-3.88-.48-.32-4.38 1.93v1.13l2.57.29c.07 1.29.1 2.29.1 4.06v1.51c0 1.45 0 3.58-.05 5.2l-2.37.43v1.13h7.73v-1.13l-2.68-.49c0-1.61-.06-3.71-.06-5.14zm18.54 12.83l-.83-.63a3.74 3.74 0 0 0-2.38-.94 1.71 1.71 0 0 0-1.93 1.55c.29 1.22 1.54 1.54 2.73 1.54a5.86 5.86 0 0 0 6-4.79 35.35 35.35 0 0 0 .39-6.89V294c0-2.82 0-5.61.07-8.35l3-.34V284h-9.33v1.29l3.3.35c.16 14.72.3 17.9.3 19.77s-.37 2.95-1.32 3.84zm14.37-3.25a7.43 7.43 0 0 0 5.72-3l.34 2.87 4.34-.26v-1.13L444 304v-9l.1-4.51-.32-.32-4.57.42v1.12l2.31.5-.09 9.46a6.88 6.88 0 0 1-4.6 2.12c-1.78 0-2.61-1-2.61-3.87V295l.16-4.51-.32-.32-4.64.42v1.12l2.31.5-.09 8c-.02 4.22 1.59 5.79 4.17 5.79zm19.57-16.12c-4 0-6.86 3.29-6.86 8.18 0 4.67 2.64 7.92 6.57 7.92a5.27 5.27 0 0 0 4.51-2.37l.22 2.27 4.92-.32v-1.13l-2.67-.43v-17.43l.13-4.57-.45-.26-4.92 1.45v1.12l2.76.33V292a5.24 5.24 0 0 0-4.21-2.12zm.42 14.33c-2.61 0-4.54-1.93-4.54-6.22s2.09-6.34 4.5-6.34a5.64 5.64 0 0 1 3.74 1.73v8.88a4.57 4.57 0 0 1-3.7 1.95zm13.05-.21l-2.49.45v1.13h7.4v-1.13l-2.3-.46v-9.42l.1-4.35-.49-.32-4.86 1.93v1.13l2.64.29c.07 1.29.1 2.29.1 4.06v1.51c-.05 1.42-.07 3.54-.1 5.18z"/><ellipse cx="470.12" cy="284.22" rx="2.12" ry="2.03"/><path d="M483.35 306a5.77 5.77 0 0 0 6-4.15l-.78-.39A5.17 5.17 0 0 1 484 304c-3 0-5.18-2.22-5.18-6.28s2-6.34 4.79-6.34a6.41 6.41 0 0 1 1.8.29l.62 2.16a1.66 1.66 0 0 0 1.7 1.45 1.33 1.33 0 0 0 1.45-1.19c-.42-2.39-2.8-4.16-5.66-4.16-3.83 0-7.38 3-7.38 8.08s2.8 7.99 7.21 7.99z"/><ellipse cx="495.33" cy="284.22" rx="2.12" ry="2.03"/><path d="M494.05 304l-2.49.45v1.13H499v-1.13l-2.3-.46c0-1.61-.05-3.73-.05-5.17v-4.25l.09-4.35-.48-.32-4.86 1.93v1.13l2.64.29c.06 1.29.09 2.29.09 4.06v1.51c-.03 1.42-.04 3.54-.08 5.18zm14.06-14.12c-3.22 0-5.6 1.52-6.21 4a1.3 1.3 0 0 0 1.44 1.29c.87 0 1.36-.51 1.65-1.45l.64-2.12a7.69 7.69 0 0 1 1.8-.23c2.13 0 3 .77 3 3.93v.7a37.28 37.28 0 0 0-3.7 1.09c-4.32 1.57-5.28 3-5.28 4.82 0 2.68 2 4 4.31 4 1.88 0 3-.83 4.74-2.59a2.79 2.79 0 0 0 2.86 2.49 3 3 0 0 0 2.73-1.64l-.64-.71a1.59 1.59 0 0 1-1.25.71c-.75 0-1.2-.51-1.2-2v-6.83c0-3.94-1.58-5.46-4.89-5.46zm-3.9 11.62c0-.93.33-2.15 3.22-3.28a30.44 30.44 0 0 1 3-1v4.89c-1.9 1.35-2.55 1.76-3.64 1.76-1.45.02-2.58-.66-2.58-2.37zm15.54 2.5l-2.59.46v1.13h7.91v-1.13l-2.59-.46c0-1.72-.08-3.45-.08-5.17v-12.26l.13-4.57-.45-.26-4.92 1.45v1.12l2.67.33v14.16c0 1.72-.04 3.45-.08 5.2zM278.5 354a9 9 0 0 1-3.95.91c-4.52 0-7.71-3.41-7.71-9.75s3.55-9.75 7.94-9.75a6.86 6.86 0 0 1 3.4.93l.63 3.72h2l-.13-4.72a12.53 12.53 0 0 0-6.27-1.56c-6.34 0-11 4.88-11 11.38s4.42 11.38 11 11.38a13.7 13.7 0 0 0 6.56-1.56l.13-4.72h-2zm20.04-4.82v-3c0-4.29-1.33-6-4.13-6a8.75 8.75 0 0 0-6 3v-6.37l.13-4.61-.45-.27-4.88 1.47v1.14l2.7.32v14.3c0 1.46 0 3.61-.05 5.24l-2.49.45V356h7.48v-1.14l-2.29-.46c0-1.63-.05-3.77-.05-5.23v-4.59c1.79-1.57 3.1-2.14 4.68-2.14 2 0 2.73 1 2.73 4v2.73c0 1.51 0 3.63-.05 5.25l-2.45.44V356h7.48v-1.14l-2.33-.46c-.01-1.61-.03-3.72-.03-5.22zm6.18-14.72a2.15 2.15 0 0 0 4.3 0 2.15 2.15 0 0 0-4.3 0zm3.45 14.72v-4.29l.1-4.39-.49-.32-4.91 1.95v1.14l2.67.29c.06 1.3.09 2.31.09 4.1v1.52c0 1.46 0 3.6-.05 5.24l-2.51.45V356h7.47v-1.14l-2.32-.46c-.03-1.62-.05-3.76-.05-5.22zm9.53 0v-12.35l.13-4.61-.46-.27-5 1.47v1.14l2.7.32v14.3c0 1.75 0 3.49-.08 5.23l-2.62.46V356h8v-1.14l-2.63-.46c-.01-1.73-.04-3.47-.04-5.22zm18.43-2.79a5.8 5.8 0 0 0-6-6.21c-4 0-7.41 3.32-7.41 8.29s2.82 8 7.18 8a6.6 6.6 0 0 0 6.21-3.77l-.75-.58a5.64 5.64 0 0 1-4.55 2.31c-3.21 0-5.26-2.16-5.32-6.18h10.41a6.51 6.51 0 0 0 .23-1.86zm-4.48.45h-6.12c.39-3.74 2.54-5.2 4.43-5.2a3.61 3.61 0 0 1 3.6 3.55c0 .91-.36 1.65-1.91 1.65zM0 202.74h265.83v2.48H0zm352.25-90.17a8.28 8.28 0 0 0-16.56 0v67.33a8.28 8.28 0 1 0 16.56 0zm-88.33 0a8.28 8.28 0 0 0-16.56 0v67.33a8.28 8.28 0 0 0 16.56 0zm13.81 83.15a8.28 8.28 0 0 0 8.28-8.28v-72.9a8.29 8.29 0 0 0-16.57 0v72.9a8.29 8.29 0 0 0 8.29 8.28zm52.44-81.21a8.28 8.28 0 0 0-16.56 0v72.9a8.28 8.28 0 0 0 16.56 0zm-22.07.69a8.28 8.28 0 0 0-16.56 0v88.7a8.28 8.28 0 0 0 16.56 0zM296 101.43h7.62a4.33 4.33 0 0 0 4.47-4.17V85.6l-8.28 2.16-8.28-2.16v11.66a4.33 4.33 0 0 0 4.47 4.17zm-20.44-.83l7.61.46a4.33 4.33 0 0 0 4.71-3.9l.69-11.64-8.39 1.66-8.18-2.65-.7 11.64a4.33 4.33 0 0 0 4.26 4.43zm-7.93-4.71L269 84.31l-8.48 1.16-8-3.13-1.39 11.58a4.32 4.32 0 0 0 3.94 4.67l7.57.91a4.32 4.32 0 0 0 4.99-3.61zm60-11.06l-8.13 2.65-8.4-1.67.7 11.64a4.32 4.32 0 0 0 4.7 3.9l7.62-.45a4.33 4.33 0 0 0 4.21-4.43zm19.47-2.2l-8 3.13-8.48-1.16L332 96.18a4.32 4.32 0 0 0 5 3.61l7.57-.91a4.32 4.32 0 0 0 3.94-4.67zM235.76 49.91a2.34 2.34 0 0 0 1 .21h126.12a1.75 1.75 0 0 0 .61-.09 3.31 3.31 0 0 0 0-6.44 1.76 1.76 0 0 0-.58-.09H236.76a2 2 0 0 0-.87.17 3.31 3.31 0 0 0-.13 6.24zm-3.63 13.43a1 1 0 0 0 .25 0h134.88a1.29 1.29 0 0 0 .29 0c1.72-.25 3.07-2.6 3.07-5.46s-1.35-5.21-3.07-5.47H232.13c-1.74.22-3.11 2.58-3.11 5.47s1.37 5.24 3.11 5.46z"/><path d="M228.13 96.89c.46.29.93.56 1.43.81a12.1 12.1 0 0 0 1.43.62 13.25 13.25 0 0 0 3 .71 12.91 12.91 0 0 0 1.52.09 13.29 13.29 0 0 0 4.17-.68 13.06 13.06 0 0 0 6.24-4.44c.27-.34.51-.69.75-1.06s.45-.75.65-1.15a10.91 10.91 0 0 0 1.15-5.25c0-.36 0-.71-.08-1.06a12 12 0 0 0-.47-2.05 11.33 11.33 0 0 0-.85-1.92 10.9 10.9 0 0 0-4.63-4.43 9.06 9.06 0 0 0-5.27-.89c-.29 0-.58.09-.86.15a9.09 9.09 0 0 0-4.55 2.57 8.64 8.64 0 0 0-1.59 2.24 8.4 8.4 0 0 0-.55 1.41 7.63 7.63 0 0 0-.27 2.22c0 .25 0 .5.05.75a8.67 8.67 0 0 0 .34 1.49 7.67 7.67 0 0 0 1 2 6.26 6.26 0 0 0 .46.59 7.52 7.52 0 0 0 1.08 1c.2.15.41.3.62.43a6.38 6.38 0 0 0 .67.38 6.51 6.51 0 0 0 2.45.68 6.74 6.74 0 0 0 1.27 0 7.12 7.12 0 0 0 1.26-.28 6.67 6.67 0 0 0 2.22-1.26 6.44 6.44 0 0 0 1.56-2 2 2 0 0 0 .2-.81 1.89 1.89 0 0 0-1.85-1.93 1.87 1.87 0 0 0-1.7 1.06 2.78 2.78 0 0 1-.66.85 2.83 2.83 0 0 1-2 .67 2.94 2.94 0 0 1-1-.29 4 4 0 0 1-1.21-.94 3.95 3.95 0 0 1-.95-2.86 3.85 3.85 0 0 1 .41-1.47 5.39 5.39 0 0 1 5.16-3 5.25 5.25 0 0 1 1 .17 4.87 4.87 0 0 1 1 .39c.22.11.43.23.64.36s.4.27.59.42a6.48 6.48 0 0 1 1.11 1.11 7.26 7.26 0 0 1 1 1.63 7.44 7.44 0 0 1 .43 1.31 7.91 7.91 0 0 1 .18 1.37 7.09 7.09 0 0 1-.76 3.45 8.81 8.81 0 0 1-1 1.58 9.37 9.37 0 0 1-2.77 2.4 10.11 10.11 0 0 1-1.71.76 9.52 9.52 0 0 1-4.58.34 9.3 9.3 0 0 1-2.64-.87 12.23 12.23 0 0 1-5.72-6 12.54 12.54 0 0 1-.75-2.24c-.08-.39-.15-.77-.2-1.17a11.7 11.7 0 0 1-.08-2.37 12.34 12.34 0 0 1 .77-3.56c.15-.39.32-.77.51-1.15a16.27 16.27 0 0 1 3.72-5c.29-.26.59-.51.9-.74a13.32 13.32 0 0 1 2-1.22c2.49 2.13 10.89 4.78 22.82 6.9a260.2 260.2 0 0 0 44.08 3.69h1.11c33.31 0 61.92-6.32 66.9-10.59a13.66 13.66 0 0 1 3.72 2.88 16.78 16.78 0 0 1 2.23 3c.22.37.43.76.63 1.16s.36.76.51 1.15a12.34 12.34 0 0 1 .77 3.56 12.52 12.52 0 0 1-1.55 6.84 12.29 12.29 0 0 1-5.2 5 9.46 9.46 0 0 1-1.74.67c-.3.08-.6.15-.9.2a9.52 9.52 0 0 1-4.58-.34 10.11 10.11 0 0 1-1.71-.76 9.22 9.22 0 0 1-2.17-1.7 9 9 0 0 1-1.6-2.28 7.06 7.06 0 0 1-.76-3.45c0-.26 0-.53.07-.79a9.05 9.05 0 0 1 .29-1.25c.08-.21.16-.43.25-.64a6.78 6.78 0 0 1 .45-.84 7.1 7.1 0 0 1 1.14-1.43 6.93 6.93 0 0 1 1.76-1.25 5.12 5.12 0 0 1 2.06-.56 5.37 5.37 0 0 1 5.16 3 4.22 4.22 0 0 1 .35 1.13 3.92 3.92 0 0 1-.13 1.86 4.13 4.13 0 0 1-.76 1.34 3.85 3.85 0 0 1-.55.52 4.1 4.1 0 0 1-.66.42 2.23 2.23 0 0 1-.51.19 3.1 3.1 0 0 1-.53.1 2.83 2.83 0 0 1-2-.67 2.78 2.78 0 0 1-.66-.85 1.86 1.86 0 0 0-1.66-1.17 1.89 1.89 0 0 0-1.9 1.88 1.91 1.91 0 0 0 .2.86 6.44 6.44 0 0 0 1.56 2 6.27 6.27 0 0 0 1 .73 7 7 0 0 0 1.18.53l.63.17a6.35 6.35 0 0 0 2.53.06 6.28 6.28 0 0 0 1.82-.6 6.38 6.38 0 0 0 .67-.38c.21-.13.42-.28.62-.43a7.52 7.52 0 0 0 1.08-1 7.7 7.7 0 0 0 1.76-6.33 7.65 7.65 0 0 0-.71-2.15 9.14 9.14 0 0 0-6.14-4.81c-.28-.06-.57-.11-.86-.15a9.16 9.16 0 0 0-2.56 0h-.26a7.84 7.84 0 0 0-1.38.37l-.59.23-.48.21a10.81 10.81 0 0 0-1.87 1.19 10.48 10.48 0 0 0-1.55 1.5 9.88 9.88 0 0 0-.86 1.18 10.92 10.92 0 0 0-.82 1.5c-.14.32-.27.65-.38 1a11.08 11.08 0 0 0-.47 2.05 10.94 10.94 0 0 0 1.07 6.31 13.42 13.42 0 0 0 3.17 4.08 13.16 13.16 0 0 0 4.5 2.54c.26.09.53.16.8.23.42.11.84.21 1.27.28a13.52 13.52 0 0 0 2.1.17 13.16 13.16 0 0 0 5.92-1.42 16 16 0 0 0 6.79-6.48q.38-.68.69-1.38a16.06 16.06 0 0 0-.34-13.7 20.35 20.35 0 0 0-4.81-6.28 17.59 17.59 0 0 0-3.1-2.13 16.74 16.74 0 0 0-1.71-.81 15.27 15.27 0 0 0-1.8-.62 15.78 15.78 0 0 0-2.38-.45c-1.82-.23-3.63-.29-3.63-.29H239.85s-1.82.06-3.64.29c-.68.09-1.37.2-2 .34l-.41.11a17.38 17.38 0 0 0-5.11 2.41 16.56 16.56 0 0 0-1.5 1.15 19.14 19.14 0 0 0-2.65 2.81 21.16 21.16 0 0 0-2.16 3.47 16.07 16.07 0 0 0 5.75 20.8zM75.19 329.6h148.27v2.48H75.19zm258.74-126.86h265.83v2.48H333.93zm43.01 126.86h148.27v2.48H376.94zm-77.41-34.99h15.16v2.48h-15.16z"/></symbol></svg>