<svg xmlns="http://www.w3.org/2000/svg" viewBox="0 0 50 50" width="50" height="50"><path d="M24.38 34.3H24v6.49h.39a1.88 1.88 0 0 0 1.61-.85 4.17 4.17 0 0 0 .59-2.4 4.2 4.2 0 0 0-.59-2.42 1.9 1.9 0 0 0-1.62-.82zm-7.38 0h-.27v3.5h.35a1.41 1.41 0 0 0 1.19-.51 2.13 2.13 0 0 0 .4-1.33 1.68 1.68 0 0 0-.43-1.24A1.63 1.63 0 0 0 17 34.3z"/><path d="M30 0H4v50h40V14zm-9.8 37.23a2.3 2.3 0 0 1-1.08.91 5.33 5.33 0 0 1-2.07.33h-.34v2.26l1.07.11v.64h-4v-.64l.89-.1v-6.4l-.89-.09v-.65H17a5.86 5.86 0 0 1 2 .29 2.33 2.33 0 0 1 1.13.83 2.29 2.29 0 0 1 .4 1.28 2.46 2.46 0 0 1-.33 1.23zm7.94 2.43A3.51 3.51 0 0 1 26.65 41a5.26 5.26 0 0 1-2.29.46H21v-.64l.9-.1v-6.38l-.9-.09v-.65h3.57a4.78 4.78 0 0 1 2.19.47 3.32 3.32 0 0 1 1.4 1.35 4.24 4.24 0 0 1 .5 2.1 4.12 4.12 0 0 1-.52 2.14zm6.35-4l-.24-1.39h-2.09v2.79h1.34l.14-.94h.7v2.7h-.7l-.15-1.06h-1.36v2.97l1.07.11v.64h-4v-.64l.89-.1v-6.4l-.89-.09v-.65h6.2l.08 2.06zM30 14V2l12 12z"/></svg>