<svg xmlns="http://www.w3.org/2000/svg" viewBox="0 0 300 300" width="300" height="300"><path d="M149.79 98.23a2.88 2.88 0 0 0-.22-.27l-.23-.17h-.1a.92.92 0 0 0-.23-.09h-.1a1.25 1.25 0 0 0-.7 0h-.1a.92.92 0 0 0-.23.09h-.1l-.23.17a2.88 2.88 0 0 0-.22.27l-26.86 44.57a11.57 11.57 0 0 0 .29 12.3L137 179.45V184a6.51 6.51 0 0 0 6.5 6.5h10a6.51 6.51 0 0 0 6.5-6.5v-4.55l16.24-24.35a11.57 11.57 0 0 0 .29-12.3zm-1.29 38.27a3.5 3.5 0 1 1-3.5 3.5 3.5 3.5 0 0 1 3.5-3.5zM157 184a3.5 3.5 0 0 1-3.5 3.5h-10a3.5 3.5 0 0 1-3.5-3.5v-3.5h17zm16.74-30.57l-16 24.07H139.3l-16-24.07a8.55 8.55 0 0 1-.22-9.09l24-39.92v29.26a6.5 6.5 0 1 0 3 0v-29.26l24 39.92a8.55 8.55 0 0 1-.34 9.09z"/><path d="M168.46 81.5h24.72a6.5 6.5 0 1 0 0-3H155V75a1.5 1.5 0 0 0-1.5-1.5h-10A1.5 1.5 0 0 0 142 75v3.5h-38.18a6.5 6.5 0 1 0 0 3h24.72A61.51 61.51 0 0 0 86 140a1.5 1.5 0 0 0 3 0 58.78 58.78 0 0 1 53-58.21V85a1.5 1.5 0 0 0 1.5 1.5h10A1.5 1.5 0 0 0 155 85v-3.21A58.78 58.78 0 0 1 208 140a1.5 1.5 0 0 0 3 0 61.51 61.51 0 0 0-42.54-58.5zm31-5A3.5 3.5 0 1 1 196 80a3.5 3.5 0 0 1 3.5-3.5zm-102 7A3.5 3.5 0 1 1 101 80a3.5 3.5 0 0 1-3.5 3.5zm54.5 0h-7v-7h7z"/><path d="M268.5 48.5h-240A11.51 11.51 0 0 0 17 60v140a11.51 11.51 0 0 0 11.5 11.5H116V239a7.5 7.5 0 0 1-7.5 7.5h-30a2.5 2.5 0 0 0 0 5h30A12.52 12.52 0 0 0 121 239v-21.61a51.06 51.06 0 0 1 19.08-5.89h16.84a51.06 51.06 0 0 1 19.08 5.89V239a12.52 12.52 0 0 0 12.5 12.5h30a2.5 2.5 0 0 0 0-5h-30a7.5 7.5 0 0 1-7.5-7.5v-27.5h87.5A11.51 11.51 0 0 0 280 200V60a11.51 11.51 0 0 0-11.5-11.5zM267 64v130a3.5 3.5 0 0 1-3.5 3.5h-230A3.5 3.5 0 0 1 30 194V64a3.5 3.5 0 0 1 3.5-3.5h230A3.5 3.5 0 0 1 267 64z"/></svg>