<svg xmlns="http://www.w3.org/2000/svg" viewBox="0 0 300 300" width="300" height="300"><path d="M195.61 238.05a21 21 0 0 0-21-20.55h-12.16V87.62a2.2 2.2 0 0 0 0-.36 17.66 17.66 0 0 0 3.33-4.76h39.31a2.52 2.52 0 0 0 1.78-.74l8.13-8.22 1.15 1.16a12.51 12.51 0 0 0 17.68 0l2.2-2.2h9.06a2.5 2.5 0 0 0 0-5H235a2.51 2.51 0 0 0-1.77.73l-2.93 2.93a7.48 7.48 0 0 1-10.6 0l-2.93-2.93-.14-.11a2 2 0 0 0-.24-.19 1.65 1.65 0 0 0-.26-.14 1.4 1.4 0 0 0-.17-.09l-.31-.1h-.16a2.2 2.2 0 0 0-.36 0h-49.39a17.67 17.67 0 0 0-7.69-8 12.5 12.5 0 1 0-16.2 0 17.67 17.67 0 0 0-7.69 8H85a2.61 2.61 0 0 0-.48 0h-.15l-.32.1a1.51 1.51 0 0 0-.18.09c-.08 0-.17.08-.25.14a2.31 2.31 0 0 0-.39.31l-3 3a7.54 7.54 0 0 1-10.53.08l-3.24-3.14a2.46 2.46 0 0 0-1.74-.71H55a2.5 2.5 0 0 0 0 5h8.68l2.51 2.44a12.56 12.56 0 0 0 17.54-.14L85 73.54l8.23 8.23a2.51 2.51 0 0 0 1.77.73h39.21a17.66 17.66 0 0 0 3.33 4.76 2.2 2.2 0 0 0 0 .36V217.5H125.8a21 21 0 0 0-21 20.55 21.05 21.05 0 0 0-16.34 20.48V260a2.5 2.5 0 0 0 2.5 2.5h118.5A2.5 2.5 0 0 0 212 260v-1.47a21.05 21.05 0 0 0-16.39-20.48zM209 72.5l-5 5h-36.75a15.73 15.73 0 0 0 0-5zM142.45 50a7.5 7.5 0 1 1 7.5 7.5 7.5 7.5 0 0 1-7.5-7.5zM96 77.5l-5-5h41.66a15.72 15.72 0 0 0 0 5zm54-15A12.5 12.5 0 1 1 137.45 75 12.52 12.52 0 0 1 150 62.5zm-7.5 31.29a17.3 17.3 0 0 0 15 0V217.5h-15zM125.8 222.5h48.8a16 16 0 0 1 16 15h-80.8a16 16 0 0 1 16-15zm-32.32 35a16.06 16.06 0 0 1 16-15h81.44a16.06 16.06 0 0 1 16 15z"/><path d="M107 152.3a2.47 2.47 0 0 0-1-2 2.16 2.16 0 0 0-.72-.34L80.3 71.49a1.51 1.51 0 0 0-1.93-.9 1.49 1.49 0 0 0-.89 1.92l24.68 77.9a88.16 88.16 0 0 1-53.82 0L73 72.51a1.49 1.49 0 0 0-.89-1.92 1.51 1.51 0 0 0-1.93.9l-24.86 78.44a2.16 2.16 0 0 0-.72.34 2.47 2.47 0 0 0-1.05 2 31.7 31.7 0 0 0 63.4 0zm148.4-2.03a2.16 2.16 0 0 0-.72-.34L229.8 71.49a1.51 1.51 0 0 0-1.93-.9 1.49 1.49 0 0 0-.89 1.92l24.68 77.9a88.16 88.16 0 0 1-53.82 0l24.68-77.9a1.49 1.49 0 0 0-.89-1.92 1.51 1.51 0 0 0-1.93.9l-24.88 78.44a2.16 2.16 0 0 0-.72.34 2.47 2.47 0 0 0-1 2 31.7 31.7 0 0 0 63.4 0 2.47 2.47 0 0 0-1.1-2z"/><circle cx="75" cy="68" r="6"/><circle cx="225" cy="68" r="6"/></svg>