<svg xmlns="http://www.w3.org/2000/svg" viewBox="0 0 300 300" width="300" height="300"><path d="M281.77 227.73l-39.48-39.48a1.46 1.46 0 0 0 .21-.75v-108A11.51 11.51 0 0 0 231 68H70a11.51 11.51 0 0 0-11.5 11.5v108a2.88 2.88 0 0 0-.27.22l-40 40a2.52 2.52 0 0 0-.67 2.3 2.42 2.42 0 0 0-.06.47v10a12 12 0 0 0 12 12h240.96a12 12 0 0 0 12-12v-10a2.42 2.42 0 0 0-.06-.47 2.52 2.52 0 0 0-.63-2.29zM51.13 240.5a1.51 1.51 0 0 1-1.51 1.5H29.54a1.5 1.5 0 0 1 0-3h20.08a1.51 1.51 0 0 1 1.51 1.5zm177.37-156v90a3.5 3.5 0 0 1-3.5 3.5H76a3.5 3.5 0 0 1-3.5-3.5v-90A3.5 3.5 0 0 1 76 81h149a3.5 3.5 0 0 1 3.5 3.5zM61 192h178l36.5 36.5H24.54z"/><path d="M118.94 150.56a1.5 1.5 0 0 0 2.12 0 1.49 1.49 0 0 0 0-2.12l-18.94-18.94 18.94-18.94a1.5 1.5 0 0 0-2.12-2.12l-20 20a1.49 1.49 0 0 0 0 2.12zm60 0a1.5 1.5 0 0 0 2.12 0l20-20a1.49 1.49 0 0 0 0-2.12l-20-20a1.5 1.5 0 0 0-2.12 2.12l18.94 18.94-18.94 18.94a1.49 1.49 0 0 0 0 2.12zm-39.61.28a1.44 1.44 0 0 0 .67.16 1.49 1.49 0 0 0 1.34-.83l20-40a1.5 1.5 0 0 0-2.68-1.34l-20 40a1.5 1.5 0 0 0 .67 2.01z"/></svg>