<svg xmlns="http://www.w3.org/2000/svg" viewBox="0 0 300 300" width="300" height="300"><defs><style>.cls-1{isolation:isolate}.cls-2{mix-blend-mode:multiply}</style></defs><g class="cls-1"><g id="pic-acc" class="cls-2"><circle cx="82.25" cy="104.88" r="5"/><circle cx="82.25" cy="64.88" r="5"/><circle cx="102.25" cy="64.88" r="5"/><circle cx="82.25" cy="180.88" r="5"/><circle cx="82.25" cy="160.38" r="5"/><circle cx="102.25" cy="160.38" r="5"/><circle cx="102.25" cy="140.88" r="5"/><circle cx="182.25" cy="64.88" r="5"/><circle cx="202.25" cy="84.88" r="5"/><circle cx="202.25" cy="64.88" r="5"/><circle cx="132.25" cy="84.88" r="5"/><circle cx="132.25" cy="64.88" r="5"/><path d="M143.25 262.38h-75a7.51 7.51 0 0 1-7.5-7.5v-210a7.5 7.5 0 0 1 7.5-7.5h150a7.5 7.5 0 0 1 7.5 7.5v45a2.5 2.5 0 0 1-5 0v-45a2.5 2.5 0 0 0-2.5-2.5h-150a2.5 2.5 0 0 0-2.5 2.5v210a2.51 2.51 0 0 0 2.5 2.5h75a2.5 2.5 0 0 1 0 5z"/><path d="M224.2 218.88v-24.7l-2-82.44a10 10 0 1 0-19.87-2.23l-.27 52.23a1 1 0 0 1-2-.12L192.61 89a10 10 0 0 0-20 0l4.24 69.22a1 1 0 0 1-2 .15L163.06 83a10 10 0 1 0-19.81 2.73l11.1 83.6a1 1 0 0 1-1.9.54l-16.57-68.54a10 10 0 0 0-18.52 7.56l22 89.33c-.54 7.8-5.11 2.67-5.11 2.67s-2.68-7.78-9-24c-4.38-11.25-22-5.52-22.76.39-.41 3 4.46 10.71 7.76 20 1.39 3.9 3.35 12.12 5.09 20a34.26 34.26 0 0 0 17.88 23.22c14.15 7.16 23 19.43 23 19.43l1.37 2.74H218a8 8 0 0 0 8-8V250c-3.7-14.46-1.8-31.12-1.8-31.12z"/></g></g></svg>