<svg xmlns="http://www.w3.org/2000/svg" viewBox="0 0 300 300" width="300" height="300"><path d="M124.12 218.43a32.5 32.5 0 1 1 32.5-32.5 32.54 32.54 0 0 1-32.5 32.5zm0-60a27.5 27.5 0 1 0 27.5 27.5 27.53 27.53 0 0 0-27.5-27.5z"/><path d="M193.93 126h-22.34l-10.39-15.18a20.52 20.52 0 0 0-16.94-9H104.5a20.55 20.55 0 0 0-16.94 9L77.17 126H54.84a20.3 20.3 0 0 0-20.46 20.14v80.55a20.3 20.3 0 0 0 20.46 20.14h139.09a20.29 20.29 0 0 0 20.45-20.14v-80.55A20.3 20.3 0 0 0 193.93 126zm-79.56-9.67h20v9h-20zm9.75 114.6a45 45 0 1 1 45-45 45 45 0 0 1-45 45zM232.86 85.74l-25.7-14.83v29.67l25.7-14.84z"/><path d="M253.12 118.17h-70a12.52 12.52 0 0 1-12.5-12.5v-40a12.51 12.51 0 0 1 12.5-12.5h70a12.51 12.51 0 0 1 12.5 12.5v40a12.52 12.52 0 0 1-12.5 12.5zm-70-60a7.5 7.5 0 0 0-7.5 7.5v40a7.51 7.51 0 0 0 7.5 7.5h70a7.52 7.52 0 0 0 7.5-7.5v-40a7.51 7.51 0 0 0-7.5-7.5z"/></svg>