<svg xmlns="http://www.w3.org/2000/svg" viewBox="0 0 300 300" width="300" height="300"><path d="M250.4 174a2.5 2.5 0 0 0-2.5 2.5v60a7.5 7.5 0 0 1-7.5 7.5h-7.5V98.5a7.5 7.5 0 0 0-7.5-7.5h-110a7.51 7.51 0 0 0-7.5 7.5V244H50.4a7.51 7.51 0 0 1-7.5-7.5v-28h-5v28A12.52 12.52 0 0 0 50.4 249h190a12.52 12.52 0 0 0 12.5-12.5v-60a2.5 2.5 0 0 0-2.5-2.5zm-137.5 70V98.5a2.5 2.5 0 0 1 2.5-2.5h110a2.5 2.5 0 0 1 2.5 2.5V244z"/><path d="M288.57 146.55l-33.69-33.7a3.5 3.5 0 0 0-6 2.48v50.34a3.5 3.5 0 0 0 6 2.48l7.56-7.57a.51.51 0 0 1 .81.15l10.89 23.47a3.58 3.58 0 0 0 2.08 1.85 3.75 3.75 0 0 0 1.09.17 3.42 3.42 0 0 0 1.68-.43l7.46-4.06a3.5 3.5 0 0 0 1.48-4.59l-11-22.78a.51.51 0 0 1 0-.46.53.53 0 0 1 .38-.26l9.18-1.14a3.5 3.5 0 0 0 2-5.95zM210.4 132h-80a1.5 1.5 0 1 0 0 3h80a1.5 1.5 0 0 0 0-3zm0 40h-80a1.5 1.5 0 1 0 0 3h80a1.5 1.5 0 0 0 0-3zm0 39h-80a1.5 1.5 0 1 0 0 3h80a1.5 1.5 0 0 0 0-3zM27.77 139.6a1.51 1.51 0 0 0 1.06.44 1.49 1.49 0 0 0 1.06-.44l35.36-35.36a1.51 1.51 0 0 0 0-2.12l-6.72-6.72a1.5 1.5 0 0 0-2.12 0l-35.36 35.36a1.51 1.51 0 0 0 0 2.12z"/><path d="M42.9 73.5h205v32a2.5 2.5 0 0 0 5 0v-42A12.52 12.52 0 0 0 240.4 51h-190a12.52 12.52 0 0 0-12.5 12.5v45.29l5-5zM59.4 66h-10a2.5 2.5 0 0 1 0-5h10a2.5 2.5 0 1 1 0 5zm20 0h-10a2.5 2.5 0 0 1 0-5h10a2.5 2.5 0 0 1 0 5zm20 0h-10a2.5 2.5 0 0 1 0-5h10a2.5 2.5 0 0 1 0 5zm-56.5 83.5v-18.79l-5 5v13.79h5z"/><path d="M55.9 81.5v10a1.5 1.5 0 0 0 3 0v-10a1.5 1.5 0 0 0-3 0zm12.75 2.37a1.51 1.51 0 0 0-2.05.55l-5 8.66a1.5 1.5 0 0 0 .55 2 1.48 1.48 0 0 0 .75.2 1.5 1.5 0 0 0 1.3-.75l5-8.66a1.5 1.5 0 0 0-.55-2zM67.07 99.5a1.46 1.46 0 0 0 .75-.2l8.66-5A1.5 1.5 0 0 0 75 91.7l-8.66 5a1.5 1.5 0 0 0 .75 2.8zm13.83 4a1.5 1.5 0 0 0-1.5-1.5h-10a1.5 1.5 0 0 0 0 3h10a1.5 1.5 0 0 0 1.5-1.5zM65.79 164l8.73-8.73a1.33 1.33 0 0 0 .28-1.43 1.31 1.31 0 0 0-1.21-.81H21.21a1.31 1.31 0 0 0-1.31 1.31v52.38a1.32 1.32 0 0 0 .78 1.2 1.4 1.4 0 0 0 .53.11 1.31 1.31 0 0 0 .88-.34l9.6-8.73a1.29 1.29 0 0 0 .43-1v-33.61h32.74a1.34 1.34 0 0 0 .93-.35z"/><path d="M70.4 167.5h-11v27h-25v10h36v-37zm-53 37v-8l-7 8h7zm53-55v-7l-7.7 7h7.7z"/></svg>