<svg xmlns="http://www.w3.org/2000/svg" viewBox="0 0 300 300" width="300" height="300"><path d="M77.5 104.5v110A2.5 2.5 0 0 0 80 217h8.38a192 192 0 0 1 60.83 9.87 2.47 2.47 0 0 0 1.58 0 192 192 0 0 1 60.83-9.87H220a2.5 2.5 0 0 0 2.5-2.5v-110a2.5 2.5 0 0 0-2.5-2.5h-8.38a196.94 196.94 0 0 0-61.62 9.87A196.94 196.94 0 0 0 88.38 102H80a2.5 2.5 0 0 0-2.5 2.5zM211.62 212a196.94 196.94 0 0 0-61.62 9.87A196.94 196.94 0 0 0 88.38 212H82.5v-5h5.88a192 192 0 0 1 60.83 9.87 2.47 2.47 0 0 0 1.58 0 192 192 0 0 1 60.83-9.87h5.88v5zm5.88-105v95h-5.88a196.83 196.83 0 0 0-60.12 9.39v-94.75a192.19 192.19 0 0 1 60.12-9.64zm-135 0h5.88a192.19 192.19 0 0 1 60.12 9.64v94.75A196.83 196.83 0 0 0 88.38 202H82.5z"/><path d="M160 146a1.41 1.41 0 0 0 .4-.05 193.11 193.11 0 0 1 51.22-6.95 1.5 1.5 0 0 0 0-3 196.25 196.25 0 0 0-52 7 1.5 1.5 0 0 0 .38 3zm-71.62-7a193.11 193.11 0 0 1 51.22 6.91 1.41 1.41 0 0 0 .4.05 1.5 1.5 0 0 0 .4-2.94 196.25 196.25 0 0 0-52-7 1.5 1.5 0 0 0 0 3zM160 166a1.41 1.41 0 0 0 .4-.05 193.11 193.11 0 0 1 51.22-6.95 1.5 1.5 0 0 0 0-3 196.25 196.25 0 0 0-52 7 1.5 1.5 0 0 0 .38 3zm-71.62-7a193.11 193.11 0 0 1 51.22 6.91 1.41 1.41 0 0 0 .4.05 1.5 1.5 0 0 0 .4-2.94 196.25 196.25 0 0 0-52-7 1.5 1.5 0 0 0 0 3zm123.24 17a196.25 196.25 0 0 0-52 7 1.5 1.5 0 0 0 .38 3 1.41 1.41 0 0 0 .4-.05 193.11 193.11 0 0 1 51.22-6.95 1.5 1.5 0 0 0 0-3zm-72.02 9.91a1.41 1.41 0 0 0 .4.05 1.5 1.5 0 0 0 .4-2.94 196.25 196.25 0 0 0-52-7 1.5 1.5 0 0 0 0 3 193.11 193.11 0 0 1 51.2 6.89z"/><path d="M248.94 116.21a7.43 7.43 0 0 0-7.29-.33l-12.77 6.38a2.5 2.5 0 0 0 2.24 4.48l12.76-6.39a2.5 2.5 0 0 1 3.62 2.24v91.09l-96 28.8v-8a1.5 1.5 0 0 0-3 0v8l-96-28.8v-91.09a2.5 2.5 0 0 1 3.62-2.24l12.76 6.39a2.5 2.5 0 0 0 2.24-4.48l-12.77-6.38a7.5 7.5 0 0 0-10.85 6.71V244.5A12.52 12.52 0 0 0 60 257h180a12.52 12.52 0 0 0 12.5-12.5V122.59a7.45 7.45 0 0 0-3.56-6.38zM110.91 75.09a1.49 1.49 0 0 0 1.06-.44l1.42-1.42a1.5 1.5 0 0 0-2.12-2.12l-1.42 1.42a1.5 1.5 0 0 0 1.06 2.56zm8.49-8.49a1.48 1.48 0 0 0 1.06-.44l1.41-1.41a1.5 1.5 0 1 0-2.12-2.12L118.34 64a1.49 1.49 0 0 0 0 2.12 1.45 1.45 0 0 0 1.06.48zm8.48-8.48a1.53 1.53 0 0 0 .62-.15v6.53A1.5 1.5 0 0 0 130 66h40a1.5 1.5 0 0 0 1.5-1.5V58a1.53 1.53 0 0 0 .62.15 1.5 1.5 0 0 0 1.06-2.56l-1.42-1.42a.9.9 0 0 0-.26-.17V24.5A1.5 1.5 0 0 0 170 23h-40a1.5 1.5 0 0 0-1.5 1.5V54a.9.9 0 0 0-.26.17l-1.42 1.42a1.5 1.5 0 0 0 1.06 2.56zM141.5 44.5A8.5 8.5 0 1 1 150 53a8.51 8.51 0 0 1-8.5-8.5zm-39.07 39.07a1.48 1.48 0 0 0 1.06-.44l1.41-1.41a1.5 1.5 0 0 0-2.12-2.12l-1.41 1.4a1.49 1.49 0 0 0 0 2.12 1.45 1.45 0 0 0 1.06.45zm-8.49 8.49a1.49 1.49 0 0 0 1.06-.44l1.42-1.41a1.51 1.51 0 0 0-2.13-2.13l-1.41 1.42a1.49 1.49 0 0 0 0 2.12 1.51 1.51 0 0 0 1.06.44zM188 74.65a1.49 1.49 0 0 0 1.06.44 1.5 1.5 0 0 0 1.06-2.56l-1.42-1.42a1.5 1.5 0 0 0-2.12 2.12zm-8.46-8.49a1.48 1.48 0 0 0 1.06.44 1.45 1.45 0 0 0 1.06-.44 1.49 1.49 0 0 0 0-2.12l-1.41-1.41a1.5 1.5 0 1 0-2.12 2.12zM205 91.62a1.49 1.49 0 0 0 1.06.44 1.51 1.51 0 0 0 1.06-.44 1.49 1.49 0 0 0 0-2.12l-1.41-1.42a1.51 1.51 0 0 0-2.13 2.13zm-8.49-8.49a1.48 1.48 0 0 0 1.06.44 1.45 1.45 0 0 0 1.06-.44 1.49 1.49 0 0 0 0-2.12l-1.41-1.41a1.5 1.5 0 0 0-2.12 2.12z"/></svg>