<svg xmlns="http://www.w3.org/2000/svg" viewBox="0 0 300 300" width="300" height="300"><defs><style>.cls-1{isolation:isolate}.cls-2{mix-blend-mode:multiply}</style></defs><g class="cls-1"><g id="pic-qa" class="cls-2"><path d="M220.5 98h-8.38a196.94 196.94 0 0 0-61.62 9.87A196.94 196.94 0 0 0 88.88 98H80.5a2.5 2.5 0 0 0-2.5 2.5v110a2.5 2.5 0 0 0 2.5 2.5h8.38a192 192 0 0 1 60.83 9.87 2.47 2.47 0 0 0 1.58 0 192 192 0 0 1 60.83-9.87h8.38a2.5 2.5 0 0 0 2.5-2.5v-110a2.5 2.5 0 0 0-2.5-2.5zm-2.5 5v95h-5.88a196.83 196.83 0 0 0-60.12 9.39v-94.75a192.19 192.19 0 0 1 60.12-9.64zm-135 0h5.88a192.19 192.19 0 0 1 60.12 9.64v94.75A196.83 196.83 0 0 0 88.88 198H83zm129.12 105a196.94 196.94 0 0 0-61.62 9.87A196.94 196.94 0 0 0 88.88 208H83v-5h5.88a192 192 0 0 1 60.83 9.87 2.47 2.47 0 0 0 1.58 0 192 192 0 0 1 60.83-9.87H218v5z"/><path d="M160.5 142a1.41 1.41 0 0 0 .4-.05 193.11 193.11 0 0 1 51.22-6.95 1.5 1.5 0 0 0 0-3 196.25 196.25 0 0 0-52 7 1.5 1.5 0 0 0 .4 2.94zm-71.62-7a193.11 193.11 0 0 1 51.22 6.91 1.41 1.41 0 0 0 .4.05 1.5 1.5 0 0 0 .4-2.94 196.25 196.25 0 0 0-52-7 1.5 1.5 0 0 0 0 3zm71.62 27a1.41 1.41 0 0 0 .4-.05 193.11 193.11 0 0 1 51.22-6.95 1.5 1.5 0 0 0 0-3 196.25 196.25 0 0 0-52 7 1.5 1.5 0 0 0 .4 2.94zm-71.62-7a193.11 193.11 0 0 1 51.22 6.91 1.41 1.41 0 0 0 .4.05 1.5 1.5 0 0 0 .4-2.94 196.25 196.25 0 0 0-52-7 1.5 1.5 0 0 0 0 3zm123.24 17a196.25 196.25 0 0 0-52 7 1.5 1.5 0 0 0 .4 2.94 1.41 1.41 0 0 0 .4-.05 193.11 193.11 0 0 1 51.2-6.89 1.5 1.5 0 0 0 0-3zm-72.02 9.91a1.41 1.41 0 0 0 .4.05 1.5 1.5 0 0 0 .4-2.94 196.25 196.25 0 0 0-52-7 1.5 1.5 0 0 0 0 3 193.11 193.11 0 0 1 51.2 6.89z"/><path d="M50.5 239a8.51 8.51 0 0 1-8.5-8.5v-140a8.51 8.51 0 0 1 8.5-8.5h200a8.51 8.51 0 0 1 8.5 8.5v94.1a47.14 47.14 0 0 1 11.5 5.83V90.5a20 20 0 0 0-20-20h-200a20 20 0 0 0-20 20v140a20 20 0 0 0 20 20h150.39A47.07 47.07 0 0 1 197 239z"/><path d="M259 184.6a47.5 47.5 0 0 0-63 44.9 48 48 0 0 0 1 9.5 47.07 47.07 0 0 0 3.94 11.5h49.56a20 20 0 0 0 20-20v-40.07a47.14 47.14 0 0 0-11.5-5.83zm-6.3 25.27l-14.46 14.46-1.08 1.09-5.06 5.06a1.53 1.53 0 0 1-2.17 0L218 218.55a1.53 1.53 0 0 1 0-2.17l5.06-5.06a1.53 1.53 0 0 1 2.17 0l5.77 5.78 14.46-14.46a1.53 1.53 0 0 1 2.17 0l5.06 5.06a1.53 1.53 0 0 1 .01 2.17z"/></g></g></svg>