<svg xmlns="http://www.w3.org/2000/svg" viewBox="0 0 300 300" width="300" height="300"><path d="M160 156.46a1.41 1.41 0 0 0 .4-.05 193.11 193.11 0 0 1 51.22-6.91 1.5 1.5 0 0 0 0-3 196.25 196.25 0 0 0-52 7 1.5 1.5 0 0 0 .4 2.94zm-71.62-6.96a193.11 193.11 0 0 1 51.22 6.91 1.41 1.41 0 0 0 .4.05 1.5 1.5 0 0 0 .4-2.94 196.25 196.25 0 0 0-52-7 1.5 1.5 0 0 0 0 3zM160 176.46a1.41 1.41 0 0 0 .4-.05 193.11 193.11 0 0 1 51.22-6.91 1.5 1.5 0 0 0 0-3 196.25 196.25 0 0 0-52 7 1.5 1.5 0 0 0 .4 2.94zm-71.62-6.96a193.11 193.11 0 0 1 51.22 6.91 1.41 1.41 0 0 0 .4.05 1.5 1.5 0 0 0 .4-2.94 196.25 196.25 0 0 0-52-7 1.5 1.5 0 0 0 0 3zM213.12 188a1.5 1.5 0 0 0-1.5-1.5 196.25 196.25 0 0 0-52 7 1.5 1.5 0 0 0 .4 2.94 1.41 1.41 0 0 0 .4-.05 193.11 193.11 0 0 1 51.22-6.91 1.5 1.5 0 0 0 1.48-1.48zm-73.52 8.41a1.41 1.41 0 0 0 .4.05 1.5 1.5 0 0 0 .4-2.94 196.25 196.25 0 0 0-52-7 1.5 1.5 0 0 0 0 3 193.11 193.11 0 0 1 51.2 6.89zM70 123.5H50a1.5 1.5 0 0 0 0 3h20a1.5 1.5 0 0 0 0-3zm0 20H50a1.5 1.5 0 0 0 0 3h20a1.5 1.5 0 0 0 0-3zm0 20H50a1.5 1.5 0 0 0 0 3h20a1.5 1.5 0 0 0 0-3z"/><path d="M250 63.5h-80A11.51 11.51 0 0 0 158.5 75v44.79c-2.85.8-5.68 1.65-8.5 2.58a197.55 197.55 0 0 0-27.5-6.9V75a2.5 2.5 0 0 0-2.5-2.5H40a2.5 2.5 0 0 0-2.5 2.5v110a2.5 2.5 0 0 0 2.5 2.5h37.5V225a2.5 2.5 0 0 0 2.5 2.5h8.38a192 192 0 0 1 60.83 9.87 2.47 2.47 0 0 0 1.58 0 192 192 0 0 1 60.83-9.87H220a2.5 2.5 0 0 0 2.5-2.5v-38.5H250a11.51 11.51 0 0 0 11.5-11.5V75A11.51 11.51 0 0 0 250 63.5zm-167.5 54h5.88a192.14 192.14 0 0 1 60.12 9.64v94.75a196.83 196.83 0 0 0-60.12-9.39H82.5zm69 9.64a192.14 192.14 0 0 1 60.12-9.64h5.88v95h-5.88a196.83 196.83 0 0 0-60.12 9.39zM220 112.5h-8.38a196.8 196.8 0 0 0-40.12 4.13V76.5h77v97h-26V115a2.5 2.5 0 0 0-2.5-2.5zm-177.5 70v-105h75v37.17a196.57 196.57 0 0 0-29.12-2.17H80a2.5 2.5 0 0 0-2.5 2.5v67.5zm169.12 40a196.94 196.94 0 0 0-61.62 9.87 196.94 196.94 0 0 0-61.62-9.87H82.5v-5h5.88a192 192 0 0 1 60.83 9.87 2.47 2.47 0 0 0 1.58 0 192 192 0 0 1 60.83-9.87h5.88v5z"/></svg>