<svg xmlns="http://www.w3.org/2000/svg" viewBox="0 0 300 300" width="300" height="300"><path d="M64.16 50a1.5 1.5 0 0 0 1.5 1.5h130a1.5 1.5 0 0 0 0-3h-130a1.5 1.5 0 0 0-1.5 1.5z"/><path d="M256.84 175.32a6.49 6.49 0 0 0-9.68-5.66V112a14.51 14.51 0 0 0-14.5-14.5h-6.5V90a1.5 1.5 0 0 0-1.5-1.5h-16.5V70a12.52 12.52 0 0 0-12.5-12.5h-140a7.5 7.5 0 0 1 0-15h130a2.5 2.5 0 0 0 0-5h-130A12.52 12.52 0 0 0 43.16 50v180a22.52 22.52 0 0 0 22.5 22.5h57.24a14.45 14.45 0 0 0 13.76 10h96a14.51 14.51 0 0 0 14.5-14.5v-60.31l7.77-7.77a6.46 6.46 0 0 0 1.91-4.6zM48.16 230V60a12.47 12.47 0 0 0 7.5 2.52h7.5V247.3a17.51 17.51 0 0 1-15-17.3zm20-167.5h127.5a7.5 7.5 0 0 1 7.5 7.5v18.5h-58.5a1.5 1.5 0 0 0-1.5 1.5v7.5h-6.5a14.52 14.52 0 0 0-14.5 14.5v135.5h-54zm174 185.5a9.51 9.51 0 0 1-9.5 9.5h-96a9.59 9.59 0 0 1-9.35-7.92 9.31 9.31 0 0 1-.15-1.58V112a9.51 9.51 0 0 1 9.5-9.5h6.5v7.5a1.5 1.5 0 0 0 1.5 1.5h80a1.5 1.5 0 0 0 1.5-1.5v-7.5h6.5a9.51 9.51 0 0 1 9.5 9.5v62.31l-15 15V140a1.5 1.5 0 0 0-1.5-1.5 1.43 1.43 0 0 1-1 0h-80a1.5 1.5 0 0 0-1.5 1.5v60a1.5 1.5 0 0 0 1.5 1.5H215l-4.58 4.58a6.46 6.46 0 0 0-1.8 3.45l-4.17 9.95c-.08.18.89 1.87 1.24 1.87a1.23 1.23 0 0 0 .53-.11l9.88-4.16a6.44 6.44 0 0 0 3.51-1.81l22.58-22.58zM218 198.5h-71.84v-17h78V192a1.27 1.27 0 0 0 0 .28zm6.19-57v17h-78v-17zm-78 20h78v17h-78zm65.26 54.61l-3.23 1.36 1.35-3.24a7 7 0 0 0 .85 1 5.91 5.91 0 0 0 1 .88zm6-3a3.59 3.59 0 0 1-5 0 3.49 3.49 0 0 1 0-5l6.92-6.92a1.46 1.46 0 0 0 .51-.51l24.44-24.44a5.78 5.78 0 0 0 5 4.95zm34.93-35.42a3.23 3.23 0 0 1-4.46 0 3.15 3.15 0 1 1 4.46 0z"/><path d="M224 260h-93a6 6 0 0 1-6-6V120c0-3.31 2-16 2-16-8.84 0-12 7.16-12 16v134a16 16 0 0 0 16 16h93c8.84 0 16-4.16 16-13 0 0-12.69 3-16 3z"/><path d="M208.21 224.46l-14.46 14.46-1.08 1.08-5.07 5.06a1.52 1.52 0 0 1-2.16 0l-11.93-11.93a1.53 1.53 0 0 1 0-2.17l5.06-5.06a1.53 1.53 0 0 1 2.17 0l5.78 5.79L201 217.23a1.53 1.53 0 0 1 2.17 0l5.06 5.06a1.53 1.53 0 0 1-.02 2.17z"/></svg>