<svg xmlns="http://www.w3.org/2000/svg" viewBox="0 0 300 300" width="300" height="300"><path d="M171.52 78.94a1.39 1.39 0 0 0 .4.06 1.49 1.49 0 0 0 1.44-1.11c.4-1.43.85-3.15 1.22-5a1.5 1.5 0 0 0-2.94-.6c-.35 1.72-.79 3.37-1.17 4.76a1.49 1.49 0 0 0 1.05 1.89zm-1.69 9.81a1.5 1.5 0 0 0 1.5-1.47 20.91 20.91 0 0 1 .73-4.6 1.5 1.5 0 1 0-2.91-.72 23.81 23.81 0 0 0-.82 5.26 1.5 1.5 0 0 0 1.47 1.53zm38.87 9.56a24.48 24.48 0 0 1 3.83 2.72 1.5 1.5 0 0 0 1 .37 1.52 1.52 0 0 0 1.14-.52 1.5 1.5 0 0 0-.15-2.11 25.81 25.81 0 0 0-4.31-3.06 1.5 1.5 0 1 0-1.49 2.6zM190 95.56h.16c1.85-.2 3.39-.31 4.86-.34a1.5 1.5 0 1 0-.06-3c-1.57 0-3.19.15-5.12.36a1.5 1.5 0 0 0 .16 3zm28.56 12.8a1.5 1.5 0 0 0 1.29.73 1.46 1.46 0 0 0 .77-.22 1.49 1.49 0 0 0 .51-2.05 37.22 37.22 0 0 0-3-4.28 1.5 1.5 0 0 0-2.33 1.9 34 34 0 0 1 2.76 3.92zm-18.75-12.93a25.8 25.8 0 0 1 4.61 1 1.47 1.47 0 0 0 .46.07 1.48 1.48 0 0 0 1.42-1 1.5 1.5 0 0 0-1-1.89 29.14 29.14 0 0 0-5.16-1.12 1.5 1.5 0 0 0-.37 3zM163 47.05a28.58 28.58 0 0 1 3.48 3.23 1.5 1.5 0 0 0 2.11.11 1.49 1.49 0 0 0 .11-2.12 32.1 32.1 0 0 0-3.83-3.57 1.5 1.5 0 1 0-1.87 2.35zm6.26 7a21.45 21.45 0 0 1 1.82 4l.1.29a1.52 1.52 0 0 0 1.43 1 1.48 1.48 0 0 0 .46-.08 1.5 1.5 0 0 0 1-1.89l-.12-.35a24.72 24.72 0 0 0-2.08-4.49 1.5 1.5 0 1 0-2.58 1.53zm10.83 42.65h.07c1.69-.09 3.52-.32 5.1-.52a1.5 1.5 0 0 0-.39-3c-1.53.2-3.28.42-4.86.5a1.5 1.5 0 0 0 .08 3zm-6.57-35.49a1.5 1.5 0 0 0-1.32 1.66 24.93 24.93 0 0 1 .17 2.89q0 .93-.06 1.83a1.5 1.5 0 0 0 1.39 1.6h.1a1.5 1.5 0 0 0 1.5-1.4c0-.68.07-1.36.07-2a28.91 28.91 0 0 0-.19-3.24 1.5 1.5 0 0 0-1.66-1.34zm-.87 30.33c-.11-.13-.21-.27-.31-.41a1.5 1.5 0 0 0-2.46 1.72c.15.21.3.41.47.61a8.53 8.53 0 0 0 4.37 2.78 1.84 1.84 0 0 0 .41.05 1.5 1.5 0 0 0 .41-2.94 5.63 5.63 0 0 1-2.89-1.81zM73 255.5v-25.88l-7 4.82V253a16 16 0 0 0 16 16h123c7.27 0 12.05-.8 13.51-6H80.5a7.5 7.5 0 0 1-7.5-7.5zm0-210v-.26c-6.12 1.12-7 6-7 13.76v150.06l7-7z"/><path d="M266.15 207.27L228 168V45.5a7.5 7.5 0 0 0-7.5-7.5h-140a7.51 7.51 0 0 0-7.5 7.24v156.82l-7 7-33.27 33.27a1.14 1.14 0 0 0-.73.67l-.13.13a1.21 1.21 0 0 0-.35 1 9.83 9.83 0 0 0 7 8q.39.12.78.21a1.24 1.24 0 0 0 .27 0h.27a1.25 1.25 0 0 0 .88-.36l.5-.5L66 234.44l7-4.82v25.88a7.5 7.5 0 0 0 7.5 7.5h140a7.5 7.5 0 0 0 7.5-7.5v-64.36l27.51 26.71a7.5 7.5 0 0 0 10.61 0 7.5 7.5 0 0 0 0-10.58zM76 213.2l-10 10-26.59 26.59a7.64 7.64 0 0 1-5.31-5.31l31.9-31.9 10-10 29.39-29.39 25.86-4.09.78.78-23.26 5.17a1.28 1.28 0 0 0-.69.42l-30.22 35.87zm147-102.42a1.49 1.49 0 0 0-2.2 1.86c.64 1.41 1.25 2.93 1.8 4.52a1.47 1.47 0 0 0 .4.58v45.09l-50.85-52.39-7.37-8.44h40.72a1.5 1.5 0 0 0 0-3h-42.67c-.84-2.12-2.27-5.5-3.47-7l-3.87-6.61a2.5 2.5 0 0 0-1.83-1.22 1.08 1.08 0 0 0-.18 0l-4.55-6.84a2 2 0 0 0-.19-.22l-21.2-21.21a1.39 1.39 0 0 0-.48-.32 1.41 1.41 0 0 0-.54-.11h-.3a28.49 28.49 0 0 0-22.44 22.43 1.43 1.43 0 0 0 0 .29 1.5 1.5 0 0 0 .11.55 1.34 1.34 0 0 0 .32.49L123.94 99H95.5a1.5 1.5 0 0 0 0 3h32.15l4.82 3.21a1 1 0 0 0 0 .17 2.5 2.5 0 0 0 1.22 1.84l6.61 3.87c1.86 1.51 6.74 3.39 8.32 4l10.09 8.81 25.88 25.1H95.5a1.5 1.5 0 0 0 0 3h92.18L223 186.29v69.21a2.5 2.5 0 0 1-2.5 2.5h-140a2.5 2.5 0 0 1-2.5-2.5v-29.32l8-5.52a.27.27 0 0 0 .08-.07L108.75 202h96.75a1.5 1.5 0 0 0 0-3h-93.1l9.74-8 28.36-3.33a1.25 1.25 0 0 0 .81-2l-2.56-3a1.27 1.27 0 0 0-1-.44l-30 1.85a1.2 1.2 0 0 0-.63.22l-31.23 21.5 23.86-28.32 25.06-5.58a1.25 1.25 0 0 0 .61-2.09l-2.83-2.83a1.26 1.26 0 0 0-1.08-.35l-26.91 4.17a1.24 1.24 0 0 0-.69.35L78 197.06V45.5a2.5 2.5 0 0 1 2.5-2.5h76.4c.69.4 1.41.82 2.13 1.28a1.53 1.53 0 0 0 .8.22 1.49 1.49 0 0 0 1.27-.7 1.39 1.39 0 0 0 .22-.8h59.18a2.5 2.5 0 0 1 2.5 2.5zm-99-23l-15.27-15.3c.31-.63.63-1.24 1-1.85l15.7 15.7a1.49 1.49 0 0 0 1.06.44 1.53 1.53 0 0 0 1.06-.44 1.51 1.51 0 0 0 0-2.12L111.4 68.08c.4-.54.83-1 1.28-1.55l16.26 16.26a1.51 1.51 0 0 0 1.06.44 1.5 1.5 0 0 0 1.06-2.56L114.8 64.41c.5-.45 1-.88 1.55-1.28l16.13 16.13a1.49 1.49 0 0 0 1.06.44 1.51 1.51 0 0 0 1.06-2.57l-15.7-15.69c.61-.35 1.22-.68 1.85-1L136 75.72a1.51 1.51 0 0 0 1.06.44 1.5 1.5 0 0 0 1.06-2.56l-14.33-14.35c.72-.24 1.46-.44 2.21-.62l20.51 20.52 4.33 6.49-16.93 16.93-6.49-4.33-20.51-20.51c.17-.75.38-1.49.61-2.21l14.35 14.34a1.5 1.5 0 0 0 2.12 0 1.49 1.49 0 0 0 .01-2.12zm28.82 3l2.36 4a2 2 0 0 0 .36.47 42.26 42.26 0 0 1 3.25 7.21 2.58 2.58 0 0 0 .49.85l7.62 8.73-6.6 6.6-8.74-7.64a2.58 2.58 0 0 0-.85-.49 43.58 43.58 0 0 1-7.17-3.22 2.72 2.72 0 0 0-.51-.4l-4-2.35z"/></svg>