<svg xmlns="http://www.w3.org/2000/svg" viewBox="0 0 300 300" width="300" height="300"><defs><style>.cls-1{isolation:isolate}.cls-2{mix-blend-mode:multiply}</style></defs><g class="cls-1"><g id="pic-analisis" class="cls-2"><path d="M84 50a1.5 1.5 0 0 0 1.5 1.5h130a1.5 1.5 0 0 0 0-3h-130A1.5 1.5 0 0 0 84 50z"/><path d="M252.5 97.5H246V92a1.5 1.5 0 0 0-1.5-1.5H228a2.73 2.73 0 0 0 0-.5V70a12.52 12.52 0 0 0-12.5-12.5h-140a7.5 7.5 0 0 1 0-15h130a2.5 2.5 0 0 0 0-5h-130A12.52 12.52 0 0 0 63 50v87.61a32.49 32.49 0 0 0 0 64.78V230a22.52 22.52 0 0 0 22.5 22.5h57.22a14.53 14.53 0 0 0 13.78 10h96A14.51 14.51 0 0 0 267 248V112a14.51 14.51 0 0 0-14.5-14.5zm-177-35H83v80.14a32.27 32.27 0 0 0-15-5V60a12.45 12.45 0 0 0 7.5 2.5zM38 170a27.5 27.5 0 1 1 27.5 27.5A27.54 27.54 0 0 1 38 170zm30 60v-27.61a32.27 32.27 0 0 0 15-5v49.91A17.51 17.51 0 0 1 68 230zm20-26.89L120.88 236a7.5 7.5 0 1 0 10.6-10.61L96.12 190a7.43 7.43 0 0 0-3.59-2A32.42 32.42 0 0 0 88 146.58V62.5h127.5A7.5 7.5 0 0 1 223 70v20a2.73 2.73 0 0 0 .05.5H164.5A1.5 1.5 0 0 0 163 92v5.5h-6.5A14.51 14.51 0 0 0 142 112v135.5H88zM262 248a9.51 9.51 0 0 1-9.5 9.5h-96a9.51 9.51 0 0 1-9.5-9.5V112a9.51 9.51 0 0 1 9.5-9.5h5.5v7.5a2.5 2.5 0 0 0 2.5 2.5h80a2.5 2.5 0 0 0 2.5-2.5v-7.5h5.5a9.51 9.51 0 0 1 9.5 9.5z"/><path d="M244.5 138.5h-80a1.5 1.5 0 0 0 0 3h80a1.5 1.5 0 0 0 0-3zm0 20h-80a1.5 1.5 0 0 0 0 3h80a1.5 1.5 0 0 0 0-3zm0 20h-80a1.5 1.5 0 0 0 0 3h80a1.5 1.5 0 0 0 0-3zm0 20h-80a1.5 1.5 0 0 0 0 3h80a1.5 1.5 0 0 0 0-3zm0 20h-80a1.5 1.5 0 0 0 0 3h80a1.5 1.5 0 0 0 0-3z"/><path d="M244 260h-93a6 6 0 0 1-6-6V120c0-3.31 2-16 2-16-8.84 0-12 7.16-12 16v134a16 16 0 0 0 16 16h93c8.84 0 16-4.16 16-13 0 0-12.69 3-16 3z"/></g></g></svg>