<svg xmlns="http://www.w3.org/2000/svg" width="600" height="400" viewBox="0 0 600 400"><path d="M37.65 223.31h-3l-11.8 30.61-12.5-30.61H.46v2.19l5 .62v31.09l-4.95.7v2.2h12.2v-2.2l-4.5-.69v-17.54l-.32-10.45 12.68 30.88h2.69l12-30.88v13.85c0 4.82 0 9.57-.12 14.25l-4.66.58v2.2h14.86v-2.2l-5.1-.59c-.1-4.74-.12-9.51-.12-14.24v-2.74c0-4.82 0-9.57.12-14.25l5.1-.59v-2.19h-7.69zm32.89 20.54c0-6.65-4.5-10.49-10.16-10.49-6.81 0-12.52 5.6-12.52 14s4.77 13.46 12.14 13.46a11.17 11.17 0 0 0 10.5-6.37l-1.27-1c-2 2.31-4.17 3.9-7.69 3.9-5.42 0-8.9-3.64-9-10.43h17.62a11.17 11.17 0 0 0 .38-3.07zm-7.58.77H52.63c.65-6.33 4.28-8.79 7.47-8.79a6.1 6.1 0 0 1 6.1 6c0 1.53-.6 2.79-3.2 2.79zm15.34 12.81l-4.14.76v1.92h12.63v-1.92l-3.92-.79c-.06-2.75-.09-6.37-.09-8.83v-7.94c2.84-2.42 4.92-3.43 7.48-3.43 3.29 0 4.61 1.65 4.61 6.76v4.61c0 2.54 0 6.13-.09 8.86l-4.14.76v1.92h12.63v-1.92l-3.92-.79c-.06-2.73-.09-6.3-.09-8.83v-5c0-1-.05-1.94-.13-2.79 2.92-2.59 5.16-3.53 7.55-3.53 3.24 0 4.67 1.49 4.67 6.65v4.72c0 2.54 0 6.13-.09 8.86l-4.14.76v1.92h12.63v-1.92l-3.92-.79c-.06-2.73-.09-6.3-.09-8.83v-5.65c0-6.82-2.58-9.56-7-9.56a13.17 13.17 0 0 0-10 5.14c-.91-3.6-3-5.14-6.45-5.14s-7.11 2.11-9.7 5l-.46-4.45-.83-.55-7.47 3.29v1.93l4.4.49c.11 2.2.16 3.9.16 6.92v2.58c0 2.38-.03 6.05-.09 8.81zm69.29-10.23c0-9.12-6.32-13.84-12.52-13.84s-12.53 4.72-12.53 13.84 6.21 13.62 12.53 13.62 12.52-4.5 12.52-13.62zm-12.52 11.15c-4.89 0-7.58-3.79-7.58-11.15s2.69-11.37 7.58-11.37 7.58 4 7.58 11.37-2.8 11.15-7.58 11.15zm20.06-.9l-4 .74v1.92h13.18v-1.92l-4.58-.84c-.06-2.75-.09-6.34-.09-8.78v-4.06a13.66 13.66 0 0 1 4.64-7.18l.69.59a5 5 0 0 0 3.3 1.32c2.19 0 3.18-1.43 3.18-4a4.71 4.71 0 0 0-3.9-1.87c-3 0-6.1 2.65-7.94 7.11l-.63-6.56-.82-.55-7.47 3.29v1.93l4.39.49c.11 2.2.17 3.9.17 6.92v2.58c-.03 2.42-.06 6.11-.12 8.87zm27.28-33.76a3.63 3.63 0 0 0-7.26 0 3.63 3.63 0 0 0 7.26 0zm-1.27 36.42H185v-1.92l-3.93-.79c-.05-2.75-.08-6.37-.08-8.83v-7.25l.16-7.41-.82-.55-8.3 3.29v1.93l4.51.49c.11 2.2.16 3.9.16 6.92v2.58c0 2.46 0 6.09-.08 8.84l-4.26.78v1.92h8.79zm30.65-3.46a2.73 2.73 0 0 1-2.14 1.21c-1.27 0-2-.88-2-3.35v-11.65c0-6.92-2.74-9.5-8.4-9.5-5.49 0-9.56 2.58-10.6 6.76a2.24 2.24 0 0 0 2.47 2.19c1.48 0 2.31-.88 2.8-2.47l1.1-3.62a12.55 12.55 0 0 1 3.08-.39c3.62 0 5.16 1.32 5.16 6.7v1.34a62.81 62.81 0 0 0-6.32 1.85c-7.36 2.69-9 5.16-9 8.24 0 4.56 3.35 6.86 7.36 6.86 3.2 0 5.06-1.42 8.09-4.41a4.76 4.76 0 0 0 4.88 4.25 5.12 5.12 0 0 0 4.67-2.8zm-19.23-3.46c0-1.59.55-3.68 5.5-5.6a50.1 50.1 0 0 1 5.16-1.68v8.35c-3.23 2.31-4.34 3-6.21 3-2.52-.01-4.45-1.16-4.45-4.07zm66.63-27.1l5.1-.59v-2.19h-15.38v2.19l5.1.59c.1 4.64.12 9.29.12 13.92H236c0-4.71 0-9.35.11-13.92l5.1-.59v-2.19h-15.37v2.19l5.1.59c.1 4.75.12 9.51.12 14.25v2.74c0 4.82 0 9.57-.12 14.24l-5.1.59v2.2h15.38v-2.2l-5.12-.59c-.09-4.61-.09-9.37-.09-14.79h18.12c0 5.49 0 10.25-.09 14.79l-5.13.59v2.2h15.38v-2.2l-5.1-.59c-.09-4.74-.11-9.51-.11-14.24v-2.74c0-4.82.02-9.57.11-14.25zm10.92-2.4a3.63 3.63 0 1 0 3.62-3.46 3.42 3.42 0 0 0-3.62 3.46zm1.45 33.72l-4.25.78v1.92h12.63v-1.92l-3.94-.79c-.05-2.75-.08-6.37-.08-8.83v-7.25l.16-7.41-.82-.55-8.3 3.29v1.93l4.51.49c.11 2.2.16 3.9.16 6.92v2.58c.01 2.43-.02 6.09-.07 8.84zm30.35-4.41c0-3.4-2.09-6-7.58-8l-1.65-.6c-3.74-1.37-5.11-2.31-5.11-4.78 0-2.31 1.76-3.79 5.17-3.79a8.34 8.34 0 0 1 3.86 1l.86 4.36h2.75l.22-5.55a14 14 0 0 0-7.64-2.25c-6.1 0-9.45 3.68-9.45 7.63 0 3.74 2.64 5.88 6.65 7.36l2.53.94c3.46 1.26 5.1 2.47 5.1 4.83 0 2.53-2 4.23-6.2 4.23a10.8 10.8 0 0 1-4.47-.87l-1.08-4.73H283l.22 6a16.75 16.75 0 0 0 8.13 2.08c6.99-.04 10.56-3.77 10.56-7.86zm18.4 5l-1.31-1.46a6.3 6.3 0 0 1-3.73 1.54c-1.87 0-3.08-1.21-3.08-4.07v-17.08h7.58v-2.86h-7.48l.34-7.47h-3.19l-1.35 7.33-4.91.64v2.36h4.62V250c0 2.15-.06 3.3-.06 4.62 0 4.23 2.36 6.2 6.15 6.2a7.87 7.87 0 0 0 6.42-2.82zm19.82-34.53c1.48-1.37 1.76-2.2 1.76-2.91a1.93 1.93 0 0 0-2-2c-.94 0-1.87.55-2.91 2.19-1.71 2.59-3.3 5.17-4.89 7.75l1.37 1c2.28-2.02 4.47-4 6.67-6.03zm-5.99 37.35c6.21 0 12.53-4.5 12.53-13.62s-6.32-13.84-12.53-13.84-12.52 4.72-12.52 13.84 6.21 13.62 12.52 13.62zm0-25c4.78 0 7.58 4 7.58 11.37s-2.8 11.15-7.58 11.15-7.58-3.79-7.58-11.15 2.69-11.36 7.58-11.36zm24.55 12.75v-4.06a13.64 13.64 0 0 1 4.63-7.18l.7.59a5 5 0 0 0 3.3 1.32c2.19 0 3.18-1.43 3.18-4a4.72 4.72 0 0 0-3.9-1.87c-3 0-6.1 2.65-7.94 7.11l-.63-6.56-.82-.55-7.47 3.29v1.93l4.39.49c.11 2.2.17 3.9.17 6.92v2.58c0 2.47 0 6.12-.09 8.88l-4 .74v1.92h13.18v-1.92l-4.58-.84c-.09-2.76-.12-6.36-.12-8.79zm16.99 8.84l-4.25.78v1.92h12.63v-1.92l-3.92-.79c-.06-2.75-.09-6.37-.09-8.83v-7.25l.17-7.41-.83-.55-8.29 3.29v1.93l4.5.49c.11 2.2.17 3.9.17 6.92v2.58c0 2.43-.03 6.09-.09 8.84zm5.8-33.72a3.63 3.63 0 0 0-7.25 0 3.63 3.63 0 0 0 7.25 0zm27.74 30.05l-1.32-.66a8.84 8.84 0 0 1-7.69 4.28c-5.16 0-8.84-3.79-8.84-10.71s3.4-10.82 8.18-10.82a10.74 10.74 0 0 1 3.07.49l1.05 3.69c.38 1.37 1.1 2.47 2.91 2.47a2.26 2.26 0 0 0 2.47-2c-.71-4.07-4.78-7.09-9.66-7.09-6.54 0-12.58 5.16-12.58 13.79 0 8.4 4.72 13.67 12.25 13.67 5.16-.03 8.67-2.55 10.16-7.11zm23.39 6.92a5.12 5.12 0 0 0 4.67-2.8l-1.1-1.21a2.71 2.71 0 0 1-2.14 1.21c-1.26 0-2-.88-2-3.35v-11.65c0-6.92-2.75-9.5-8.41-9.5-5.49 0-9.55 2.58-10.6 6.76a2.24 2.24 0 0 0 2.47 2.19c1.49 0 2.31-.88 2.81-2.47l1.09-3.62a12.55 12.55 0 0 1 3.08-.39c3.63 0 5.17 1.32 5.17 6.7v1.34a62 62 0 0 0-6.32 1.85c-7.36 2.69-9 5.16-9 8.24 0 4.56 3.35 6.86 7.36 6.86 3.2 0 5.06-1.42 8.09-4.41a4.76 4.76 0 0 0 4.83 4.25zM417 253.19c0-1.59.55-3.68 5.49-5.6a51.22 51.22 0 0 1 5.17-1.68v8.35c-3.24 2.31-4.34 3-6.21 3-2.57-.01-4.45-1.16-4.45-4.07zm67.13-11.43c0-12-7.25-18.45-17.69-18.45h-16.2v2.19l5.1.59c.09 4.75.11 9.51.11 14.25v2.08c0 5.36 0 10.22-.09 14.9l-5.12.59v2.2h15.1c10.66 0 18.79-6.48 18.79-18.35zM465 257.58h-4.5c-.1-4.84-.11-9.78-.11-15.16v-2.08c0-4.91 0-9.75.12-14.51h5c8.13 0 12.85 5.55 12.85 15.93 0 10-4.72 15.82-13.36 15.82zm32.36-33.89a3.63 3.63 0 0 0-7.26 0 3.63 3.63 0 0 0 7.26 0zm2.58 34.5l-3.94-.79c-.05-2.75-.08-6.37-.08-8.83v-7.25l.16-7.41-.82-.55-8.3 3.29v1.93l4.51.49c.11 2.2.16 3.9.16 6.92v2.58c0 2.46 0 6.09-.08 8.84l-4.26.78v1.92h12.64zm20.4-22.71a10.68 10.68 0 0 0-6.84-2.12c-5.6 0-9.88 3.18-9.88 9 0 3.77 1.62 6.34 4.22 7.74-2.71 2.57-3.67 4.37-3.67 6.05 0 2.13 1.23 3.5 3.62 4.17-4.11 2-5.44 3.89-5.44 6.26 0 4 3.46 6.7 11.37 6.7 8.9 0 13.41-4.72 13.41-9.44 0-4.45-2.81-7-8.68-7h-7.25c-2.59 0-3.19-1-3.19-2.47a5.36 5.36 0 0 1 1.44-3.55 13 13 0 0 0 4 .59c5.55 0 9.83-3.19 9.83-9a9.36 9.36 0 0 0-1.32-5.06h5.44v-3.4l-.82-.55zm-2.72 25.34c4 0 5.55 1.87 5.55 4.34 0 3.14-3.24 5.66-9.28 5.66-4.29 0-7.09-1.43-7.09-5.05a7.11 7.11 0 0 1 2.23-5c.68.06 1.4.1 2.11.1zm-4.34-11.64c-3.4 0-5.38-2.75-5.38-6.76s2.14-6.86 5.66-6.86 5.44 2.74 5.44 6.64c0 4.07-2.14 6.98-5.72 6.98zM532 223.69a3.63 3.63 0 0 0 7.25 0 3.63 3.63 0 0 0-7.25 0zm5.83 24.88v-7.25l.17-7.41-.83-.55-8.29 3.29v1.93l4.5.49c.11 2.2.17 3.9.17 6.92v2.58c0 2.46 0 6.09-.09 8.84l-4.25.78v1.92h12.63v-1.92l-3.92-.79c-.06-2.75-.09-6.4-.09-8.83zm16.97 9.51c-1.87 0-3.07-1.21-3.07-4.07v-17.08h7.58v-2.86h-7.49l.34-7.47H549l-1.36 7.33-4.9.64v2.36h4.61V250c0 2.15-.05 3.3-.05 4.62 0 4.23 2.36 6.2 6.15 6.2a7.83 7.83 0 0 0 6.37-2.8l-1.26-1.48a6.3 6.3 0 0 1-3.76 1.54zm28.07-.22c-1.26 0-2-.88-2-3.35v-11.65c0-6.92-2.75-9.5-8.41-9.5-5.49 0-9.56 2.58-10.6 6.76a2.24 2.24 0 0 0 2.47 2.19c1.49 0 2.31-.88 2.8-2.47l1.1-3.62a12.55 12.55 0 0 1 3.08-.39c3.62 0 5.16 1.32 5.16 6.7v1.34a62.57 62.57 0 0 0-6.31 1.85c-7.37 2.69-9 5.16-9 8.24 0 4.56 3.35 6.86 7.36 6.86 3.2 0 5.06-1.42 8.09-4.41a4.75 4.75 0 0 0 4.87 4.25 5.12 5.12 0 0 0 4.67-2.8l-1.1-1.21a2.73 2.73 0 0 1-2.18 1.21zm-17.08-4.67c0-1.59.54-3.68 5.49-5.6a50.92 50.92 0 0 1 5.16-1.68v8.35c-3.23 2.31-4.34 3-6.21 3-2.52-.01-4.44-1.16-4.44-4.07zm29.76 4.21q-.1-4.41-.11-8.83V227.7l.22-7.8-.77-.44-8.4 2.47v1.93l4.56.54v24.17c0 3 0 5.89-.11 8.83l-4.45.79v1.92H600v-1.92zM86.52 285.12a6.81 6.81 0 0 1 3.37.92l.62 3.68h2l-.13-4.67a12.5 12.5 0 0 0-6.22-1.54c-6.27 0-10.84 4.83-10.84 11.27S79.66 306 86.17 306a13.59 13.59 0 0 0 6.5-1.54l.13-4.67h-2l-.62 3.7a9 9 0 0 1-3.91.9c-4.48 0-7.63-3.38-7.63-9.65s3.53-9.62 7.88-9.62zM95.57 298c0 5.35 3.63 8 7.34 8s7.34-2.64 7.34-8-3.71-8.11-7.34-8.11-7.34 2.76-7.34 8.11zm11.78 0c0 4.32-1.64 6.54-4.44 6.54s-4.45-2.22-4.45-6.54 1.58-6.66 4.45-6.66 4.44 2.34 4.44 6.66zm10.75-1.58a8 8 0 0 1 2.72-4.21l.4.35a3 3 0 0 0 1.94.77c1.28 0 1.86-.84 1.86-2.35a2.74 2.74 0 0 0-2.28-1.1c-1.77 0-3.58 1.57-4.65 4.19l-.37-3.87-.49-.32-4.38 1.93v1.13l2.58.29c.06 1.29.1 2.29.1 4.06V304l-2.37.43v1.13h7.73v-1.13l-2.69-.49c0-1.61-.05-3.71-.05-5.14zm10.76 5.92c0 2.48 1.38 3.64 3.6 3.64a4.59 4.59 0 0 0 3.73-1.64l-.74-.87a3.66 3.66 0 0 1-2.19.9c-1.09 0-1.8-.71-1.8-2.38V292h4.44v-1.7h-4.38l.2-4.38h-1.87l-.79 4.3-2.88.37V292h2.71v7.66c0 1.23-.03 1.91-.03 2.68zm22.21-6.34a5.75 5.75 0 0 0-6-6.15c-4 0-7.34 3.29-7.34 8.21s2.8 7.89 7.12 7.89a6.54 6.54 0 0 0 6.15-3.74l-.75-.58a5.53 5.53 0 0 1-4.5 2.29c-3.18 0-5.21-2.14-5.27-6.12h10.32a6.35 6.35 0 0 0 .27-1.8zm-4.44.45h-6.06c.38-3.71 2.51-5.15 4.38-5.15a3.57 3.57 0 0 1 3.57 3.51c0 .93-.35 1.67-1.89 1.67zm28.71 3.48c0-3-1.64-4.9-5.89-6.54l-1.25-.48c-2.36-.9-3.67-2.09-3.67-4.12 0-2.42 1.89-3.67 4.4-3.67a5.09 5.09 0 0 1 2.65.66l.67 3.62h1.93l.2-4.18a8.49 8.49 0 0 0-5.25-1.71c-4.09 0-7.21 2.25-7.21 5.95 0 3.29 2.25 5.16 5.53 6.44l1.23.49c2.8 1.09 4 2 4 4.12 0 2.51-2 3.92-5.08 3.92a6.41 6.41 0 0 1-3.39-.84l-.64-3.76h-1.93l-.19 4.51a12.36 12.36 0 0 0 6.24 1.7c4.46-.04 7.65-2.31 7.65-6.11zm8.15 6.07a7.43 7.43 0 0 0 5.72-3l.34 2.87 4.35-.26v-1.13l-2.23-.47v-9l.1-4.51-.32-.32-4.57.42v1.12l2.31.5-.09 9.46a6.88 6.88 0 0 1-4.6 2.12c-1.77 0-2.61-1-2.61-3.87v-4.92l.16-4.51-.32-.32-4.64.42v1.12l2.32.5-.1 8c-.01 4.21 1.6 5.78 4.18 5.78zm17.51-2.17a5.36 5.36 0 0 0 4.31 2.15c3.77 0 6.6-3.16 6.6-8.11s-2.7-8-6.11-8a6.55 6.55 0 0 0-4.89 2.44l-.2-2.12-.48-.32-4.38 1.93v1.13l2.58.29c.06 1.29.09 2.29.09 4.06v9.23c0 1.73 0 3.45-.07 5.17l-2.63.47v1.13h8.24v-1.13l-3-.49c0-1.74-.06-3.49-.06-5.21zm8.18-5.67c0 4.15-2 6-4.44 6a5.22 5.22 0 0 1-3.64-1.71v-9a6.49 6.49 0 0 1 4-1.84c2.4.04 4.11 2.39 4.11 6.55zm15.26-8.28c-1.77 0-3.58 1.57-4.66 4.2l-.37-3.88-.48-.32-4.38 1.93v1.13l2.58.29c.06 1.29.09 2.29.09 4.06v1.51c0 1.45 0 3.58-.05 5.2l-2.36.43v1.13h7.73v-1.13l-2.69-.49v-7.52a8 8 0 0 1 2.72-4.21l.4.35a2.94 2.94 0 0 0 1.93.77c1.29 0 1.87-.84 1.87-2.35a2.75 2.75 0 0 0-2.33-1.1zM241.4 296a5.75 5.75 0 0 0-6-6.15c-4 0-7.33 3.29-7.33 8.21s2.8 7.89 7.11 7.89a6.54 6.54 0 0 0 6.15-3.74l-.74-.58a5.56 5.56 0 0 1-4.51 2.29c-3.17 0-5.21-2.14-5.27-6.12h10.33a6.8 6.8 0 0 0 .26-1.8zm-4.44.45h-6.05c.37-3.71 2.5-5.15 4.37-5.15a3.58 3.58 0 0 1 3.58 3.51c0 .93-.36 1.67-1.86 1.67zm29.16-.45v2.77c0 1.49 0 3.59-.05 5.19l-2.43.44v1.13h7.41v-1.13l-2.3-.46c0-1.6-.05-3.69-.05-5.17v-3.32c0-4-1.52-5.6-4.09-5.6a7.69 7.69 0 0 0-5.88 3 3.53 3.53 0 0 0-3.78-3 8.24 8.24 0 0 0-5.68 2.93l-.27-2.58-.49-.32-4.37 1.93v1.13l2.57.29c.07 1.29.1 2.29.1 4.06v1.51c0 1.44 0 3.57-.05 5.19l-2.43.44v1.13h7.4v-1.13l-2.3-.46c0-1.61-.05-3.73-.05-5.17v-4.66c1.67-1.41 2.88-2 4.38-2 1.93 0 2.71 1 2.71 4v2.7c0 1.49 0 3.59-.05 5.19l-2.43.44v1.13h7.4v-1.13l-2.3-.46v-8.17a16.17 16.17 0 0 0-.08-1.63c1.71-1.52 3-2.07 4.43-2.07 1.85 0 2.68.86 2.68 3.86zm12.65 1.13c-4.31 1.57-5.27 3-5.27 4.82 0 2.68 2 4 4.31 4 1.87 0 3-.83 4.74-2.59a2.78 2.78 0 0 0 2.86 2.49 3 3 0 0 0 2.73-1.64l-.64-.71a1.6 1.6 0 0 1-1.26.71c-.74 0-1.19-.51-1.19-2v-6.83c0-4.05-1.61-5.57-4.92-5.57s-5.6 1.52-6.22 4a1.32 1.32 0 0 0 1.45 1.29c.87 0 1.35-.51 1.64-1.45l.65-2.12a7.62 7.62 0 0 1 1.8-.23c2.13 0 3 .77 3 3.93v.77a37.52 37.52 0 0 0-3.68 1.13zm-2.54 4.37c0-.93.32-2.15 3.22-3.28a30.44 30.44 0 0 1 3-1v4.89c-1.9 1.35-2.55 1.76-3.64 1.76-1.45.02-2.58-.66-2.58-2.37zm59.91-17.5h-8.66v1.29l3 .34c.06 2.79.07 5.58.07 8.35v1.61c0 2.82 0 5.61-.07 8.35l-3 .34v1.29h9v-1.29l-3-.34c0-2.33-.05-4.57-.06-6.9h1.74c6.57 0 9.05-3 9.05-6.63.01-3.78-2.73-6.41-8.07-6.41zm-.48 11.56h-2.23V294c0-2.87 0-5.71.08-8.5h2c3.89 0 5.63 1.81 5.63 4.93s-1.53 5.12-5.48 5.12zm17.48-5.68c-3.7 0-7.34 2.77-7.34 8.11s3.64 8 7.34 8 7.34-2.64 7.34-8-3.71-8.11-7.34-8.11zm0 14.65c-2.87 0-4.45-2.22-4.45-6.54s1.58-6.66 4.45-6.66 4.44 2.35 4.44 6.66-1.64 6.54-4.44 6.54zm26.52 1.03v-1.13L377 304v-17.43l.13-4.57-.45-.26-4.93 1.45v1.12l2.77.33V292a5.24 5.24 0 0 0-4.21-2.11c-4 0-6.86 3.29-6.86 8.18 0 4.67 2.64 7.92 6.57 7.92a5.25 5.25 0 0 0 4.5-2.37l.23 2.27zm-9-1.35c-2.6 0-4.54-1.93-4.54-6.22s2.1-6.34 4.51-6.34a5.64 5.64 0 0 1 3.74 1.73v8.88a4.58 4.58 0 0 1-3.66 1.95zm24.26-8.21a5.75 5.75 0 0 0-5.95-6.15c-4 0-7.34 3.29-7.34 8.21s2.8 7.89 7.11 7.89a6.54 6.54 0 0 0 6.15-3.74l-.74-.58a5.56 5.56 0 0 1-4.51 2.29c-3.17 0-5.21-2.14-5.27-6.12h10.33a6.8 6.8 0 0 0 .22-1.8zm-4.44.45h-6.05c.37-3.71 2.5-5.15 4.38-5.15a3.58 3.58 0 0 1 3.57 3.51c0 .93-.38 1.67-1.9 1.67zm12.42-.03a8.06 8.06 0 0 1 2.72-4.21l.41.35a2.94 2.94 0 0 0 1.93.77c1.29 0 1.87-.84 1.87-2.35a2.77 2.77 0 0 0-2.29-1.1c-1.76 0-3.57 1.57-4.65 4.2l-.37-3.88-.48-.32-4.38 1.93v1.13l2.57.29c.07 1.29.1 2.29.1 4.06v1.51c0 1.45 0 3.58-.05 5.2l-2.37.43v1.13h7.73v-1.13l-2.68-.49c0-1.61-.06-3.71-.06-5.14zm18.54 12.83l-.83-.63a3.74 3.74 0 0 0-2.38-.94 1.71 1.71 0 0 0-1.93 1.55c.29 1.22 1.54 1.54 2.73 1.54a5.86 5.86 0 0 0 6-4.79 35.35 35.35 0 0 0 .39-6.89V294c0-2.82 0-5.61.07-8.35l3-.34V284h-9.33v1.29l3.3.35c.16 14.72.3 17.9.3 19.77s-.37 2.95-1.32 3.84zm14.37-3.25a7.43 7.43 0 0 0 5.72-3l.34 2.87 4.34-.26v-1.13L444 304v-9l.1-4.51-.32-.32-4.57.42v1.12l2.31.5-.09 9.46a6.88 6.88 0 0 1-4.6 2.12c-1.78 0-2.61-1-2.61-3.87V295l.16-4.51-.32-.32-4.64.42v1.12l2.31.5-.09 8c-.02 4.22 1.59 5.79 4.17 5.79zm19.57-16.12c-4 0-6.86 3.29-6.86 8.18 0 4.67 2.64 7.92 6.57 7.92a5.27 5.27 0 0 0 4.51-2.37l.22 2.27 4.92-.32v-1.13l-2.67-.43v-17.43l.13-4.57-.45-.26-4.92 1.45v1.12l2.76.33V292a5.24 5.24 0 0 0-4.21-2.12zm.42 14.33c-2.61 0-4.54-1.93-4.54-6.22s2.09-6.34 4.5-6.34a5.64 5.64 0 0 1 3.74 1.73v8.88a4.57 4.57 0 0 1-3.7 1.95zm13.05-.21l-2.49.45v1.13h7.4v-1.13l-2.3-.46v-9.42l.1-4.35-.49-.32-4.86 1.93v1.13l2.64.29c.07 1.29.1 2.29.1 4.06v1.51c-.05 1.42-.07 3.54-.1 5.18z"/><ellipse cx="470.12" cy="284.22" rx="2.12" ry="2.03"/><path d="M483.35 306a5.77 5.77 0 0 0 6-4.15l-.78-.39A5.17 5.17 0 0 1 484 304c-3 0-5.18-2.22-5.18-6.28s2-6.34 4.79-6.34a6.41 6.41 0 0 1 1.8.29l.62 2.16a1.66 1.66 0 0 0 1.7 1.45 1.33 1.33 0 0 0 1.45-1.19c-.42-2.39-2.8-4.16-5.66-4.16-3.83 0-7.38 3-7.38 8.08s2.8 7.99 7.21 7.99z"/><ellipse cx="495.33" cy="284.22" rx="2.12" ry="2.03"/><path d="M494.05 304l-2.49.45v1.13H499v-1.13l-2.3-.46c0-1.61-.05-3.73-.05-5.17v-4.25l.09-4.35-.48-.32-4.86 1.93v1.13l2.64.29c.06 1.29.09 2.29.09 4.06v1.51c-.03 1.42-.04 3.54-.08 5.18zm14.06-14.12c-3.22 0-5.6 1.52-6.21 4a1.3 1.3 0 0 0 1.44 1.29c.87 0 1.36-.51 1.65-1.45l.64-2.12a7.69 7.69 0 0 1 1.8-.23c2.13 0 3 .77 3 3.93v.7a37.28 37.28 0 0 0-3.7 1.09c-4.32 1.57-5.28 3-5.28 4.82 0 2.68 2 4 4.31 4 1.88 0 3-.83 4.74-2.59a2.79 2.79 0 0 0 2.86 2.49 3 3 0 0 0 2.73-1.64l-.64-.71a1.59 1.59 0 0 1-1.25.71c-.75 0-1.2-.51-1.2-2v-6.83c0-3.94-1.58-5.46-4.89-5.46zm-3.9 11.62c0-.93.33-2.15 3.22-3.28a30.44 30.44 0 0 1 3-1v4.89c-1.9 1.35-2.55 1.76-3.64 1.76-1.45.02-2.58-.66-2.58-2.37zm15.54 2.5l-2.59.46v1.13h7.91v-1.13l-2.59-.46c0-1.72-.08-3.45-.08-5.17v-12.26l.13-4.57-.45-.26-4.92 1.45v1.12l2.67.33v14.16c0 1.72-.04 3.45-.08 5.2zM278.5 354a9 9 0 0 1-3.95.91c-4.52 0-7.71-3.41-7.71-9.75s3.55-9.75 7.94-9.75a6.86 6.86 0 0 1 3.4.93l.63 3.72h2l-.13-4.72a12.53 12.53 0 0 0-6.27-1.56c-6.34 0-11 4.88-11 11.38s4.42 11.38 11 11.38a13.7 13.7 0 0 0 6.56-1.56l.13-4.72h-2zm20.04-4.82v-3c0-4.29-1.33-6-4.13-6a8.75 8.75 0 0 0-6 3v-6.37l.13-4.61-.45-.27-4.88 1.47v1.14l2.7.32v14.3c0 1.46 0 3.61-.05 5.24l-2.49.45V356h7.48v-1.14l-2.29-.46c0-1.63-.05-3.77-.05-5.23v-4.59c1.79-1.57 3.1-2.14 4.68-2.14 2 0 2.73 1 2.73 4v2.73c0 1.51 0 3.63-.05 5.25l-2.45.44V356h7.48v-1.14l-2.33-.46c-.01-1.61-.03-3.72-.03-5.22zm6.18-14.72a2.15 2.15 0 0 0 4.3 0 2.15 2.15 0 0 0-4.3 0zm3.45 14.72v-4.29l.1-4.39-.49-.32-4.91 1.95v1.14l2.67.29c.06 1.3.09 2.31.09 4.1v1.52c0 1.46 0 3.6-.05 5.24l-2.51.45V356h7.47v-1.14l-2.32-.46c-.03-1.62-.05-3.76-.05-5.22zm9.53 0v-12.35l.13-4.61-.46-.27-5 1.47v1.14l2.7.32v14.3c0 1.75 0 3.49-.08 5.23l-2.62.46V356h8v-1.14l-2.63-.46c-.01-1.73-.04-3.47-.04-5.22zm18.43-2.79a5.8 5.8 0 0 0-6-6.21c-4 0-7.41 3.32-7.41 8.29s2.82 8 7.18 8a6.6 6.6 0 0 0 6.21-3.77l-.75-.58a5.64 5.64 0 0 1-4.55 2.31c-3.21 0-5.26-2.16-5.32-6.18h10.41a6.51 6.51 0 0 0 .23-1.86zm-4.48.45h-6.12c.39-3.74 2.54-5.2 4.43-5.2a3.61 3.61 0 0 1 3.6 3.55c0 .91-.36 1.65-1.91 1.65zM0 202.74h265.83v2.48H0zm352.25-90.17a8.28 8.28 0 0 0-16.56 0v67.33a8.28 8.28 0 1 0 16.56 0zm-88.33 0a8.28 8.28 0 0 0-16.56 0v67.33a8.28 8.28 0 0 0 16.56 0zm13.81 83.15a8.28 8.28 0 0 0 8.28-8.28v-72.9a8.29 8.29 0 0 0-16.57 0v72.9a8.29 8.29 0 0 0 8.29 8.28zm52.44-81.21a8.28 8.28 0 0 0-16.56 0v72.9a8.28 8.28 0 0 0 16.56 0zm-22.07.69a8.28 8.28 0 0 0-16.56 0v88.7a8.28 8.28 0 0 0 16.56 0zM296 101.43h7.62a4.33 4.33 0 0 0 4.47-4.17V85.6l-8.28 2.16-8.28-2.16v11.66a4.33 4.33 0 0 0 4.47 4.17zm-20.44-.83l7.61.46a4.33 4.33 0 0 0 4.71-3.9l.69-11.64-8.39 1.66-8.18-2.65-.7 11.64a4.33 4.33 0 0 0 4.26 4.43zm-7.93-4.71L269 84.31l-8.48 1.16-8-3.13-1.39 11.58a4.32 4.32 0 0 0 3.94 4.67l7.57.91a4.32 4.32 0 0 0 4.99-3.61zm60-11.06l-8.13 2.65-8.4-1.67.7 11.64a4.32 4.32 0 0 0 4.7 3.9l7.62-.45a4.33 4.33 0 0 0 4.21-4.43zm19.47-2.2l-8 3.13-8.48-1.16L332 96.18a4.32 4.32 0 0 0 5 3.61l7.57-.91a4.32 4.32 0 0 0 3.94-4.67zM235.76 49.91a2.34 2.34 0 0 0 1 .21h126.12a1.75 1.75 0 0 0 .61-.09 3.31 3.31 0 0 0 0-6.44 1.76 1.76 0 0 0-.58-.09H236.76a2 2 0 0 0-.87.17 3.31 3.31 0 0 0-.13 6.24zm-3.63 13.43a1 1 0 0 0 .25 0h134.88a1.29 1.29 0 0 0 .29 0c1.72-.25 3.07-2.6 3.07-5.46s-1.35-5.21-3.07-5.47H232.13c-1.74.22-3.11 2.58-3.11 5.47s1.37 5.24 3.11 5.46z"/><path d="M228.13 96.89c.46.29.93.56 1.43.81a12.1 12.1 0 0 0 1.43.62 13.25 13.25 0 0 0 3 .71 12.91 12.91 0 0 0 1.52.09 13.29 13.29 0 0 0 4.17-.68 13.06 13.06 0 0 0 6.24-4.44c.27-.34.51-.69.75-1.06s.45-.75.65-1.15a10.91 10.91 0 0 0 1.15-5.25c0-.36 0-.71-.08-1.06a12 12 0 0 0-.47-2.05 11.33 11.33 0 0 0-.85-1.92 10.9 10.9 0 0 0-4.63-4.43 9.06 9.06 0 0 0-5.27-.89c-.29 0-.58.09-.86.15a9.09 9.09 0 0 0-4.55 2.57 8.64 8.64 0 0 0-1.59 2.24 8.4 8.4 0 0 0-.55 1.41 7.63 7.63 0 0 0-.27 2.22c0 .25 0 .5.05.75a8.67 8.67 0 0 0 .34 1.49 7.67 7.67 0 0 0 1 2 6.26 6.26 0 0 0 .46.59 7.52 7.52 0 0 0 1.08 1c.2.15.41.3.62.43a6.38 6.38 0 0 0 .67.38 6.51 6.51 0 0 0 2.45.68 6.74 6.74 0 0 0 1.27 0 7.12 7.12 0 0 0 1.26-.28 6.67 6.67 0 0 0 2.22-1.26 6.44 6.44 0 0 0 1.56-2 2 2 0 0 0 .2-.81 1.89 1.89 0 0 0-1.85-1.93 1.87 1.87 0 0 0-1.7 1.06 2.78 2.78 0 0 1-.66.85 2.83 2.83 0 0 1-2 .67 2.94 2.94 0 0 1-1-.29 4 4 0 0 1-1.21-.94 3.95 3.95 0 0 1-.95-2.86 3.85 3.85 0 0 1 .41-1.47 5.39 5.39 0 0 1 5.16-3 5.25 5.25 0 0 1 1 .17 4.87 4.87 0 0 1 1 .39c.22.11.43.23.64.36s.4.27.59.42a6.48 6.48 0 0 1 1.11 1.11 7.26 7.26 0 0 1 1 1.63 7.44 7.44 0 0 1 .43 1.31 7.91 7.91 0 0 1 .18 1.37 7.09 7.09 0 0 1-.76 3.45 8.81 8.81 0 0 1-1 1.58 9.37 9.37 0 0 1-2.77 2.4 10.11 10.11 0 0 1-1.71.76 9.52 9.52 0 0 1-4.58.34 9.3 9.3 0 0 1-2.64-.87 12.23 12.23 0 0 1-5.72-6 12.54 12.54 0 0 1-.75-2.24c-.08-.39-.15-.77-.2-1.17a11.7 11.7 0 0 1-.08-2.37 12.34 12.34 0 0 1 .77-3.56c.15-.39.32-.77.51-1.15a16.27 16.27 0 0 1 3.72-5c.29-.26.59-.51.9-.74a13.32 13.32 0 0 1 2-1.22c2.49 2.13 10.89 4.78 22.82 6.9a260.2 260.2 0 0 0 44.08 3.69h1.11c33.31 0 61.92-6.32 66.9-10.59a13.66 13.66 0 0 1 3.72 2.88 16.78 16.78 0 0 1 2.23 3c.22.37.43.76.63 1.16s.36.76.51 1.15a12.34 12.34 0 0 1 .77 3.56 12.52 12.52 0 0 1-1.55 6.84 12.29 12.29 0 0 1-5.2 5 9.46 9.46 0 0 1-1.74.67c-.3.08-.6.15-.9.2a9.52 9.52 0 0 1-4.58-.34 10.11 10.11 0 0 1-1.71-.76 9.22 9.22 0 0 1-2.17-1.7 9 9 0 0 1-1.6-2.28 7.06 7.06 0 0 1-.76-3.45c0-.26 0-.53.07-.79a9.05 9.05 0 0 1 .29-1.25c.08-.21.16-.43.25-.64a6.78 6.78 0 0 1 .45-.84 7.1 7.1 0 0 1 1.14-1.43 6.93 6.93 0 0 1 1.76-1.25 5.12 5.12 0 0 1 2.06-.56 5.37 5.37 0 0 1 5.16 3 4.22 4.22 0 0 1 .35 1.13 3.92 3.92 0 0 1-.13 1.86 4.13 4.13 0 0 1-.76 1.34 3.85 3.85 0 0 1-.55.52 4.1 4.1 0 0 1-.66.42 2.23 2.23 0 0 1-.51.19 3.1 3.1 0 0 1-.53.1 2.83 2.83 0 0 1-2-.67 2.78 2.78 0 0 1-.66-.85 1.86 1.86 0 0 0-1.66-1.17 1.89 1.89 0 0 0-1.9 1.88 1.91 1.91 0 0 0 .2.86 6.44 6.44 0 0 0 1.56 2 6.27 6.27 0 0 0 1 .73 7 7 0 0 0 1.18.53l.63.17a6.35 6.35 0 0 0 2.53.06 6.28 6.28 0 0 0 1.82-.6 6.38 6.38 0 0 0 .67-.38c.21-.13.42-.28.62-.43a7.52 7.52 0 0 0 1.08-1 7.7 7.7 0 0 0 1.76-6.33 7.65 7.65 0 0 0-.71-2.15 9.14 9.14 0 0 0-6.14-4.81c-.28-.06-.57-.11-.86-.15a9.16 9.16 0 0 0-2.56 0h-.26a7.84 7.84 0 0 0-1.38.37l-.59.23-.48.21a10.81 10.81 0 0 0-1.87 1.19 10.48 10.48 0 0 0-1.55 1.5 9.88 9.88 0 0 0-.86 1.18 10.92 10.92 0 0 0-.82 1.5c-.14.32-.27.65-.38 1a11.08 11.08 0 0 0-.47 2.05 10.94 10.94 0 0 0 1.07 6.31 13.42 13.42 0 0 0 3.17 4.08 13.16 13.16 0 0 0 4.5 2.54c.26.09.53.16.8.23.42.11.84.21 1.27.28a13.52 13.52 0 0 0 2.1.17 13.16 13.16 0 0 0 5.92-1.42 16 16 0 0 0 6.79-6.48q.38-.68.69-1.38a16.06 16.06 0 0 0-.34-13.7 20.35 20.35 0 0 0-4.81-6.28 17.59 17.59 0 0 0-3.1-2.13 16.74 16.74 0 0 0-1.71-.81 15.27 15.27 0 0 0-1.8-.62 15.78 15.78 0 0 0-2.38-.45c-1.82-.23-3.63-.29-3.63-.29H239.85s-1.82.06-3.64.29c-.68.09-1.37.2-2 .34l-.41.11a17.38 17.38 0 0 0-5.11 2.41 16.56 16.56 0 0 0-1.5 1.15 19.14 19.14 0 0 0-2.65 2.81 21.16 21.16 0 0 0-2.16 3.47 16.07 16.07 0 0 0 5.75 20.8zM75.19 329.6h148.27v2.48H75.19zm258.74-126.86h265.83v2.48H333.93zm43.01 126.86h148.27v2.48H376.94zm-77.41-34.99h15.16v2.48h-15.16z"/></svg>