<svg xmlns="http://www.w3.org/2000/svg" viewBox="0 0 240 18" width="240" height="18"><path d="M233.47 4.09h-96.96c-.42-1.35-2.4-2.27-2.65-2.39a.45.45 0 0 0-.2 0h-27.32a.45.45 0 0 0-.2 0c-.25.12-2.23 1-2.65 2.39H6.73L6.64 4h-.06A4 4 0 0 0 5 7.25a4 4 0 0 0 1.57 3.21.5.5 0 0 0 .31.1H11a5.16 5.16 0 0 1 5.14 5.14.5.5 0 0 0 .5.5h61.79a.5.5 0 0 0 .43-.24 13 13 0 0 1 2.3-2.3 12.19 12.19 0 0 1 2.13 2.1.5.5 0 0 0 .5.45h26.53a.5.5 0 0 0 .5-.45 7.54 7.54 0 0 1 6.78-6.84h4.73a7.56 7.56 0 0 1 6.83 6.85.5.5 0 0 0 .5.45h26.54a.47.47 0 0 0 .49-.43 11.94 11.94 0 0 1 2.14-2.12 13 13 0 0 1 2.3 2.3.5.5 0 0 0 .43.24h61.82a.5.5 0 0 0 .5-.5 5.16 5.16 0 0 1 5.12-5.15h4.08a.5.5 0 0 0 .31-.1A4 4 0 0 0 235 7.25a4 4 0 0 0-1.53-3.16zM78.16 15.2H17.08a6.12 6.12 0 0 0-2.75-4.63h63.8A12.36 12.36 0 0 0 80.41 13a15.8 15.8 0 0 0-2.25 2.2zm77.7 0h-25.75a8.55 8.55 0 0 0-7.72-7.29h-4.83a8.54 8.54 0 0 0-7.67 7.29H84.14a12.14 12.14 0 0 0-2.21-2.2 10.33 10.33 0 0 0 2.18-2.41h23a.51.51 0 0 0 .35-.15.49.49 0 0 0 .15-.36A4.35 4.35 0 0 1 112 5.7h16a4.36 4.36 0 0 1 4.35 4.37.5.5 0 0 0 .5.5h23a10.33 10.33 0 0 0 2.22 2.43 12.14 12.14 0 0 0-2.21 2.2zm67.06 0h-61.08a15.8 15.8 0 0 0-2.25-2.2 12.36 12.36 0 0 0 2.28-2.41h63.8a6.12 6.12 0 0 0-2.75 4.61zm10-5.64h-71.35a.51.51 0 0 0-.46.3 10.72 10.72 0 0 1-2.28 2.45 8.75 8.75 0 0 1-2.17-2.45.51.51 0 0 0-.46-.3h-22.85A5.36 5.36 0 0 0 128 4.7h-16a5.36 5.36 0 0 0-5.32 4.87H83.8a.51.51 0 0 0-.46.3 8.75 8.75 0 0 1-2.17 2.45 10.72 10.72 0 0 1-2.28-2.45.51.51 0 0 0-.46-.3H7.07a3 3 0 0 1 0-4.63h96.82a.5.5 0 0 0 .5-.5c0-.73 1.32-1.58 2-1.93h27.1c.72.35 2 1.2 2 1.93a.5.5 0 0 0 .5.5h96.82a3 3 0 0 1 0 4.63z"/><path d="M120.24 11.14a.5.5 0 0 0-.35-.14.52.52 0 0 0-.36.14l-2.75 2.75a.5.5 0 0 0 0 .71l2.75 2.75a.49.49 0 0 0 .36.15.47.47 0 0 0 .35-.15L123 14.6a.5.5 0 0 0 0-.71zm-.35 5.15l-2-2 2-2.05 2 2.05z"/></svg>