<svg xmlns="http://www.w3.org/2000/svg" viewBox="0 0 100 100" width="100" height="100"><path d="M97.18 1.68h-.05a.31.31 0 0 0-.1-.05H35.66a.5.5 0 0 0-.43.24 10.75 10.75 0 0 1-2 2A10.78 10.78 0 0 1 31.45 2a.5.5 0 0 0-.5-.45H8.23a.5.5 0 0 0-.49.45A6.37 6.37 0 0 1 2 7.77a.51.51 0 0 0-.46.5V31a.51.51 0 0 0 .22.42A12.43 12.43 0 0 1 3.92 34a9.37 9.37 0 0 1-2.17 2.45.52.52 0 0 0-.25.43v60a.28.28 0 0 0 0 .13v.14a3.54 3.54 0 0 0 5.57-.05.49.49 0 0 0 .11-.31V93.3a4.33 4.33 0 0 1 4.48-4.3.5.5 0 0 0 .5-.5V14.21a2.59 2.59 0 0 0 2-2h74.33a.5.5 0 0 0 .5-.5 4.33 4.33 0 0 1 4.33-4.33h3.5a.48.48 0 0 0 .3-.11 3.54 3.54 0 0 0 .06-5.56zM2.5 30.73v-22a7.36 7.36 0 0 0 6.15-6.21h22a10.63 10.63 0 0 0 1.83 1.87 8.44 8.44 0 0 0-1.8 2H11a.49.49 0 0 0-.36.15.5.5 0 0 0-.14.35 3.67 3.67 0 0 1-3.65 3.67.5.5 0 0 0-.5.5v19.71A14.33 14.33 0 0 0 4.45 33a12.91 12.91 0 0 0-1.95-2.27zm3.83 65.89a2.54 2.54 0 0 1-3.83 0V37.1a11.17 11.17 0 0 0 2.05-2.27A14.27 14.27 0 0 0 6.33 37v59.61zM88 11.18H13.73a.5.5 0 0 0-.5.5 1.58 1.58 0 0 1-1.58 1.58.5.5 0 0 0-.5.5V88a5.3 5.3 0 0 0-3.82 2.19V36.72a.52.52 0 0 0-.21-.41 13.41 13.41 0 0 1-2-2.44 12.92 12.92 0 0 1 2.08-2.52.51.51 0 0 0 .13-.35V11.49a4.67 4.67 0 0 0 4.12-4.14H31a.5.5 0 0 0 .41-.35 7.32 7.32 0 0 1 1.78-2 8.81 8.81 0 0 1 1.8 2 .51.51 0 0 0 .46.3h54.79A5.28 5.28 0 0 0 88 11.18zm8.6-4.83H35.74A10.5 10.5 0 0 0 34 4.41a12.79 12.79 0 0 0 2-1.89h60.7a2.54 2.54 0 0 1 0 3.83z"/><path d="M17.54 14.53a.5.5 0 0 0-.7 0l-2.36 2.36a.51.51 0 0 0 0 .71l2.36 2.4a.49.49 0 0 0 .35.15.47.47 0 0 0 .35-.15l2.36-2.4a.5.5 0 0 0 0-.71zm-.35 4.36l-1.65-1.65 1.65-1.65 1.65 1.65z"/></svg>