<svg xmlns="http://www.w3.org/2000/svg" viewBox="0 0 100 100" width="100" height="100"><path d="M98.48 95.59a3.52 3.52 0 0 0-1.38-2.81.49.49 0 0 0-.31-.11H93.3a4.33 4.33 0 0 1-4.3-4.33.5.5 0 0 0-.5-.5H14.21a2.59 2.59 0 0 0-2-2V11.51a.5.5 0 0 0-.5-.5 4.34 4.34 0 0 1-4.36-4.33v-3.5a.48.48 0 0 0-.11-.3 3.54 3.54 0 0 0-5.56-.06v.05a.41.41 0 0 0-.13.13v61.34a.5.5 0 0 0 .24.43 11 11 0 0 1 2 2A11.22 11.22 0 0 1 2 68.55a.5.5 0 0 0-.45.5v22.72a.5.5 0 0 0 .47.49H2A6.37 6.37 0 0 1 7.77 98a.51.51 0 0 0 .5.46H31a.51.51 0 0 0 .42-.22A12.43 12.43 0 0 1 34 96.08a9.19 9.19 0 0 1 2.45 2.17.52.52 0 0 0 .43.25h60a.41.41 0 0 0 .24-.08v-.05a3.54 3.54 0 0 0 1.36-2.78zM11.18 12v74.27a.5.5 0 0 0 .5.5 1.58 1.58 0 0 1 1.58 1.58.5.5 0 0 0 .5.5H88a5.3 5.3 0 0 0 2.19 3.82H36.72a.52.52 0 0 0-.41.21 13.41 13.41 0 0 1-2.44 2 12.92 12.92 0 0 1-2.52-2.08.51.51 0 0 0-.37-.16H11.49a4.65 4.65 0 0 0-4.14-4.12V69.05a.5.5 0 0 0-.35-.46 7.32 7.32 0 0 1-2-1.78 8.81 8.81 0 0 1 2-1.8.51.51 0 0 0 .3-.46V9.76A5.28 5.28 0 0 0 11.18 12zM2.52 64.08V3.38a2.54 2.54 0 0 1 3.83 0v60.9A10.5 10.5 0 0 0 4.41 66a12.34 12.34 0 0 0-1.89-1.92zM30.73 97.5h-22a7.36 7.36 0 0 0-6.19-6.15v-22a10.63 10.63 0 0 0 1.87-1.83 8.44 8.44 0 0 0 2 1.8V89a.49.49 0 0 0 .15.36.5.5 0 0 0 .35.14 3.67 3.67 0 0 1 3.66 3.65.5.5 0 0 0 .5.5h19.7a14.33 14.33 0 0 0 2.23 1.9 13.29 13.29 0 0 0-2.27 1.95zm65.87 0H37.1a11.17 11.17 0 0 0-2.27-2A14.27 14.27 0 0 0 37 93.67h59.62a2.54 2.54 0 0 1 0 3.83z"/><path d="M17.24 85.67a.49.49 0 0 1-.35-.15l-2.36-2.36a.5.5 0 0 1 0-.7l2.36-2.36a.48.48 0 0 1 .7 0L20 82.46a.48.48 0 0 1 0 .7l-2.36 2.36a.47.47 0 0 1-.4.15zm-1.65-2.86l1.65 1.65 1.65-1.65-1.65-1.65z"/></svg>