<svg xmlns="http://www.w3.org/2000/svg" viewBox="0 0 100 100" width="100" height="100"><path d="M98 31.45a.5.5 0 0 0 .45-.5V8.23a.5.5 0 0 0-.45-.49A6.37 6.37 0 0 1 92.23 2a.51.51 0 0 0-.5-.46H69a.51.51 0 0 0-.42.22A12.43 12.43 0 0 1 66 3.92a9.19 9.19 0 0 1-2.45-2.17.52.52 0 0 0-.43-.25h-60a.27.27 0 0 0-.12 0v.07h-.07a3.53 3.53 0 0 0 0 5.56.49.49 0 0 0 .31.11H6.7a4.33 4.33 0 0 1 4.3 4.42.5.5 0 0 0 .5.5h74.29a2.59 2.59 0 0 0 2 2v74.33a.5.5 0 0 0 .5.5 4.33 4.33 0 0 1 4.33 4.33v3.5a.48.48 0 0 0 .11.3 3.54 3.54 0 0 0 5.56.06.13.13 0 0 0 0-.05.31.31 0 0 0 0-.1V35.66a.5.5 0 0 0-.24-.43 11 11 0 0 1-2-2A11.22 11.22 0 0 1 98 31.45zM2.52 4.41A2.55 2.55 0 0 1 3.4 2.5h59.5a11.17 11.17 0 0 0 2.27 2.05A14.27 14.27 0 0 0 63 6.33H3.38a2.56 2.56 0 0 1-.86-1.92zM88.82 88V13.73a.5.5 0 0 0-.5-.5 1.58 1.58 0 0 1-1.58-1.58.5.5 0 0 0-.5-.5H12a5.3 5.3 0 0 0-2.21-3.82h53.49a.52.52 0 0 0 .41-.21 13.41 13.41 0 0 1 2.44-2 12.59 12.59 0 0 1 2.52 2.08.51.51 0 0 0 .37.16h19.49a4.65 4.65 0 0 0 4.14 4.12V31a.49.49 0 0 0 .31.46 7.22 7.22 0 0 1 2 1.79A9 9 0 0 1 93 35a.51.51 0 0 0-.3.46v54.78A5.28 5.28 0 0 0 88.82 88zm8.66-52.12v60.7a2.54 2.54 0 0 1-3.83 0V35.74A10.5 10.5 0 0 0 95.59 34a12.34 12.34 0 0 0 1.89 1.92zm-1.87-3.47a8.44 8.44 0 0 0-2-1.8V11a.49.49 0 0 0-.15-.36.5.5 0 0 0-.35-.14 3.63 3.63 0 0 1-2.58-1.07 3.68 3.68 0 0 1-1.08-2.58.5.5 0 0 0-.5-.5H69.23A14.33 14.33 0 0 0 67 4.45a13.29 13.29 0 0 0 2.27-1.95h22a7.36 7.36 0 0 0 6.19 6.15v22a10.63 10.63 0 0 0-1.85 1.8z"/><path d="M83.11 14.48a.5.5 0 0 0-.7 0l-2.36 2.36a.5.5 0 0 0 0 .71l2.36 2.35a.47.47 0 0 0 .35.15.49.49 0 0 0 .35-.15l2.36-2.35a.51.51 0 0 0 0-.71zm-.35 4.36l-1.65-1.65 1.65-1.65 1.65 1.65z"/></svg>