<svg xmlns="http://www.w3.org/2000/svg" viewBox="0 0 100 100" width="100" height="100"><path d="M98.25 63.59a.52.52 0 0 0 .25-.43V3.21a.28.28 0 0 0 0-.13v-.14h-.05a3.54 3.54 0 0 0-5.57 0 .49.49 0 0 0-.11.31V6.7a4.33 4.33 0 0 1-4.43 4.3.5.5 0 0 0-.5.5v74.29a2.59 2.59 0 0 0-2 2H11.51a.5.5 0 0 0-.5.5 4.33 4.33 0 0 1-4.33 4.33h-3.5a.48.48 0 0 0-.3.11 3.54 3.54 0 0 0-.06 5.56.45.45 0 0 0 .27.1h61.25a.5.5 0 0 0 .43-.24 11 11 0 0 1 2-2A11.22 11.22 0 0 1 68.55 98a.5.5 0 0 0 .5.45h22.72a.5.5 0 0 0 .49-.47A6.37 6.37 0 0 1 98 92.23a.51.51 0 0 0 .46-.5V69a.51.51 0 0 0-.22-.42A12.43 12.43 0 0 1 96.08 66a9.37 9.37 0 0 1 2.17-2.41zM12 88.82h74.27a.5.5 0 0 0 .5-.5 1.58 1.58 0 0 1 1.58-1.58.5.5 0 0 0 .5-.5V12a5.3 5.3 0 0 0 3.82-2.19v53.47a.52.52 0 0 0 .21.41 13.41 13.41 0 0 1 2 2.44 12.92 12.92 0 0 1-2.08 2.52.51.51 0 0 0-.16.37v19.49a4.65 4.65 0 0 0-4.12 4.14H69.05a.5.5 0 0 0-.46.31 7.32 7.32 0 0 1-1.78 2A8.81 8.81 0 0 1 65 93a.51.51 0 0 0-.46-.3H9.76A5.28 5.28 0 0 0 12 88.82zm52.12 8.66H3.38a2.54 2.54 0 0 1 0-3.83h60.9A10.5 10.5 0 0 0 66 95.59a12.34 12.34 0 0 0-1.92 1.89zM97.5 69.27v22a7.36 7.36 0 0 0-6.15 6.19h-22a10.63 10.63 0 0 0-1.83-1.87 8.44 8.44 0 0 0 1.8-2H89a.49.49 0 0 0 .36-.15.5.5 0 0 0 .14-.35 3.67 3.67 0 0 1 3.65-3.67.5.5 0 0 0 .5-.5V69.23a14.33 14.33 0 0 0 1.9-2.23 13.29 13.29 0 0 0 1.95 2.27zm-2-4.1A14.27 14.27 0 0 0 93.67 63V3.38a2.54 2.54 0 0 1 3.83 0V62.9a11.17 11.17 0 0 0-2.05 2.27z"/><path d="M82.46 85.47a.47.47 0 0 0 .35.15.49.49 0 0 0 .35-.15l2.36-2.36a.5.5 0 0 0 0-.7l-2.36-2.36a.48.48 0 0 0-.7 0l-2.36 2.36a.48.48 0 0 0 0 .7zm.35-4.36l1.65 1.65-1.65 1.65-1.65-1.65z"/></svg>